999
"DXF R12 Output" (www.mydxf.blogspot.com)
 0 
SECTION
 2 
HEADER
 9 
$ACADVER
 1 
AC1009
 9 
$EXTMIN
 10 
 0 
 20 
 0 
 9 
$EXTMAX
 10 
 8.5 
 20 
 11 
 0 
ENDSEC
 0 
SECTION
 2 
ENTITIES
0
LINE
8
Layer 1
10
17.778900
20
14.957800
11
17.778900
21
13.893000
0
LINE
8
Layer 1
10
17.778900
20
13.893000
11
17.613219
21
12.239738
0
LINE
8
Layer 1
10
17.613219
20
12.239738
11
17.137785
21
10.701746
0
LINE
8
Layer 1
10
17.137785
20
10.701746
11
16.385011
21
9.311438
0
LINE
8
Layer 1
10
16.385011
20
9.311438
11
15.387313
21
8.101228
0
LINE
8
Layer 1
10
15.387313
20
8.101228
11
14.177102
21
7.103529
0
LINE
8
Layer 1
10
14.177102
20
7.103529
11
12.786794
21
6.350755
0
LINE
8
Layer 1
10
12.786794
20
6.350755
11
11.248802
21
5.875321
0
LINE
8
Layer 1
10
11.248802
20
5.875321
11
9.595540
21
5.709640
0
LINE
8
Layer 1
10
9.595540
20
5.709640
11
7.942278
21
5.875321
0
LINE
8
Layer 1
10
7.942278
20
5.875321
11
6.404286
21
6.350755
0
LINE
8
Layer 1
10
6.404286
20
6.350755
11
5.013978
21
7.103529
0
LINE
8
Layer 1
10
5.013978
20
7.103529
11
3.803767
21
8.101228
0
LINE
8
Layer 1
10
3.803767
20
8.101228
11
2.806069
21
9.311438
0
LINE
8
Layer 1
10
2.806069
20
9.311438
11
2.053295
21
10.701746
0
LINE
8
Layer 1
10
2.053295
20
10.701746
11
1.577861
21
12.239738
0
LINE
8
Layer 1
10
1.577861
20
12.239738
11
1.412180
21
13.893000
0
LINE
8
Layer 1
10
1.412180
20
13.893000
11
1.412190
21
22.231300
0
LINE
8
Layer 1
10
17.781100
20
20.602200
11
17.781100
21
22.231300
0
LINE
8
Layer 1
10
17.781100
20
22.231300
11
17.946781
21
23.884562
0
LINE
8
Layer 1
10
17.946781
20
23.884562
11
18.422215
21
25.422554
0
LINE
8
Layer 1
10
18.422215
20
25.422554
11
19.174989
21
26.812862
0
LINE
8
Layer 1
10
19.174989
20
26.812862
11
20.172687
21
28.023073
0
LINE
8
Layer 1
10
20.172687
20
28.023073
11
21.382898
21
29.020771
0
LINE
8
Layer 1
10
21.382898
20
29.020771
11
22.773206
21
29.773545
0
LINE
8
Layer 1
10
22.773206
20
29.773545
11
24.311198
21
30.248979
0
LINE
8
Layer 1
10
24.311198
20
30.248979
11
25.964460
21
30.414660
0
LINE
8
Layer 1
10
25.964460
20
30.414660
11
27.617722
21
30.248979
0
LINE
8
Layer 1
10
27.617722
20
30.248979
11
29.155714
21
29.773545
0
LINE
8
Layer 1
10
29.155714
20
29.773545
11
30.546022
21
29.020771
0
LINE
8
Layer 1
10
30.546022
20
29.020771
11
31.756232
21
28.023073
0
LINE
8
Layer 1
10
31.756232
20
28.023073
11
32.753931
21
26.812862
0
LINE
8
Layer 1
10
32.753931
20
26.812862
11
33.506705
21
25.422554
0
LINE
8
Layer 1
10
33.506705
20
25.422554
11
33.982139
21
23.884562
0
LINE
8
Layer 1
10
33.982139
20
23.884562
11
34.147820
21
22.231300
0
LINE
8
Layer 1
10
34.147820
20
22.231300
11
34.147800
21
13.893000
0
LINE
8
Layer 1
10
5.644440
20
20.602200
11
5.644440
21
14.957800
0
LINE
8
Layer 1
10
34.147800
20
13.893000
11
34.147800
21
22.231300
0
LINE
8
Layer 1
10
34.147800
20
22.231300
11
33.982119
21
23.884562
0
LINE
8
Layer 1
10
33.982119
20
23.884562
11
33.506685
21
25.422554
0
LINE
8
Layer 1
10
33.506685
20
25.422554
11
32.753911
21
26.812862
0
LINE
8
Layer 1
10
32.753911
20
26.812862
11
31.756212
21
28.023073
0
LINE
8
Layer 1
10
31.756212
20
28.023073
11
30.546002
21
29.020771
0
LINE
8
Layer 1
10
30.546002
20
29.020771
11
29.155694
21
29.773545
0
LINE
8
Layer 1
10
29.155694
20
29.773545
11
27.617702
21
30.248979
0
LINE
8
Layer 1
10
27.617702
20
30.248979
11
25.964440
21
30.414660
0
LINE
8
Layer 1
10
25.964440
20
30.414660
11
24.311178
21
30.248979
0
LINE
8
Layer 1
10
24.311178
20
30.248979
11
22.773186
21
29.773545
0
LINE
8
Layer 1
10
22.773186
20
29.773545
11
21.382878
21
29.020771
0
LINE
8
Layer 1
10
21.382878
20
29.020771
11
20.172667
21
28.023073
0
LINE
8
Layer 1
10
20.172667
20
28.023073
11
19.174969
21
26.812862
0
LINE
8
Layer 1
10
19.174969
20
26.812862
11
18.422195
21
25.422554
0
LINE
8
Layer 1
10
18.422195
20
25.422554
11
17.946761
21
23.884562
0
LINE
8
Layer 1
10
17.946761
20
23.884562
11
17.781080
21
22.231300
0
LINE
8
Layer 1
10
17.781080
20
22.231300
11
17.778900
21
22.231300
0
LINE
8
Layer 1
10
17.778900
20
22.231300
11
17.778900
21
13.893000
0
LINE
8
Layer 1
10
17.778900
20
13.893000
11
17.613219
21
12.239738
0
LINE
8
Layer 1
10
17.613219
20
12.239738
11
17.137785
21
10.701746
0
LINE
8
Layer 1
10
17.137785
20
10.701746
11
16.385011
21
9.311438
0
LINE
8
Layer 1
10
16.385011
20
9.311438
11
15.387313
21
8.101228
0
LINE
8
Layer 1
10
15.387313
20
8.101228
11
14.177102
21
7.103529
0
LINE
8
Layer 1
10
14.177102
20
7.103529
11
12.786794
21
6.350755
0
LINE
8
Layer 1
10
12.786794
20
6.350755
11
11.248802
21
5.875321
0
LINE
8
Layer 1
10
11.248802
20
5.875321
11
9.595540
21
5.709640
0
LINE
8
Layer 1
10
9.595540
20
5.709640
11
7.942278
21
5.875321
0
LINE
8
Layer 1
10
7.942278
20
5.875321
11
6.404286
21
6.350755
0
LINE
8
Layer 1
10
6.404286
20
6.350755
11
5.013978
21
7.103529
0
LINE
8
Layer 1
10
5.013978
20
7.103529
11
3.803767
21
8.101228
0
LINE
8
Layer 1
10
3.803767
20
8.101228
11
2.806069
21
9.311438
0
LINE
8
Layer 1
10
2.806069
20
9.311438
11
2.053295
21
10.701746
0
LINE
8
Layer 1
10
2.053295
20
10.701746
11
1.577861
21
12.239738
0
LINE
8
Layer 1
10
1.577861
20
12.239738
11
1.412180
21
13.893000
0
LINE
8
Layer 1
10
1.412180
20
13.893000
11
1.412180
21
22.231300
0
LINE
8
Layer 1
10
27.375500
20
18.908900
11
28.669500
21
18.908900
0
LINE
8
Layer 1
10
28.669500
20
18.908900
11
29.164717
21
18.808681
0
LINE
8
Layer 1
10
29.164717
20
18.808681
11
29.568264
21
18.535048
0
LINE
8
Layer 1
10
29.568264
20
18.535048
11
29.839902
21
18.128536
0
LINE
8
Layer 1
10
29.839902
20
18.128536
11
29.939390
21
17.629680
0
LINE
8
Layer 1
10
29.939390
20
17.629680
11
29.839902
21
17.130824
0
LINE
8
Layer 1
10
29.839902
20
17.130824
11
29.568265
21
16.724312
0
LINE
8
Layer 1
10
29.568265
20
16.724312
11
29.164718
21
16.450679
0
LINE
8
Layer 1
10
29.164718
20
16.450679
11
28.669500
21
16.350460
0
LINE
8
Layer 1
10
28.669500
20
16.350460
11
27.375500
21
16.350400
0
LINE
8
Layer 1
10
26.811100
20
16.350400
11
25.517200
21
16.350400
0
LINE
8
Layer 1
10
25.517200
20
16.350400
11
25.021983
21
16.450619
0
LINE
8
Layer 1
10
25.021983
20
16.450619
11
24.618436
21
16.724252
0
LINE
8
Layer 1
10
24.618436
20
16.724252
11
24.346798
21
17.130765
0
LINE
8
Layer 1
10
24.346798
20
17.130765
11
24.247310
21
17.629620
0
LINE
8
Layer 1
10
24.247310
20
17.629620
11
24.346782
21
18.128482
0
LINE
8
Layer 1
10
24.346782
20
18.128482
11
24.618401
21
18.535015
0
LINE
8
Layer 1
10
24.618401
20
18.535015
11
25.021947
21
18.808671
0
LINE
8
Layer 1
10
25.021947
20
18.808671
11
25.517200
21
18.908900
0
LINE
8
Layer 1
10
25.517200
20
18.908900
11
26.811100
21
18.908900
0
LINE
8
Layer 1
10
3.951110
20
17.497700
11
3.951110
21
16.203800
0
LINE
8
Layer 1
10
3.951110
20
16.203800
11
3.850874
21
15.706729
0
LINE
8
Layer 1
10
3.850874
20
15.706729
11
3.577212
21
15.300090
0
LINE
8
Layer 1
10
3.577212
20
15.300090
11
3.170694
21
15.027834
0
LINE
8
Layer 1
10
3.170694
20
15.027834
11
2.671890
21
14.933910
0
LINE
8
Layer 1
10
2.671890
20
14.933910
11
1.392670
21
14.957800
0
LINE
8
Layer 1
10
1.392670
20
20.602200
11
2.671890
21
20.626000
0
LINE
8
Layer 1
10
2.671890
20
20.626000
11
3.170692
21
20.532077
0
LINE
8
Layer 1
10
3.170692
20
20.532077
11
3.577210
21
20.259812
0
LINE
8
Layer 1
10
3.577210
20
20.259812
11
3.850873
21
19.853167
0
LINE
8
Layer 1
10
3.850873
20
19.853167
11
3.951110
21
19.356100
0
LINE
8
Layer 1
10
3.951110
20
19.356100
11
3.951110
21
18.062200
0
LINE
8
Layer 1
10
13.546700
20
20.602200
11
13.546700
21
14.957800
0
LINE
8
Layer 1
10
11.853300
20
20.320000
11
15.240000
21
20.320000
0
LINE
8
Layer 1
10
20.884400
20
17.780000
11
21.875000
21
17.780000
0
LINE
8
Layer 1
10
21.875000
20
17.780000
11
22.370426
21
17.679781
0
LINE
8
Layer 1
10
22.370426
20
17.679781
11
22.774323
21
17.406147
0
LINE
8
Layer 1
10
22.774323
20
17.406147
11
23.046030
21
16.999635
0
LINE
8
Layer 1
10
23.046030
20
16.999635
11
23.144890
21
16.500780
0
LINE
8
Layer 1
10
23.144890
20
16.500780
11
23.142200
21
15.221500
0
LINE
8
Layer 1
10
20.581100
20
20.341100
11
21.875000
21
20.341100
0
LINE
8
Layer 1
10
21.875000
20
20.341100
11
22.370217
21
20.240881
0
LINE
8
Layer 1
10
22.370217
20
20.240881
11
22.773764
21
19.967248
0
LINE
8
Layer 1
10
22.773764
20
19.967248
11
23.045402
21
19.560735
0
LINE
8
Layer 1
10
23.045402
20
19.560735
11
23.144890
21
19.061880
0
LINE
8
Layer 1
10
23.144890
20
19.061880
11
23.045402
21
18.563024
0
LINE
8
Layer 1
10
23.045402
20
18.563024
11
22.773765
21
18.156512
0
LINE
8
Layer 1
10
22.773765
20
18.156512
11
22.370218
21
17.882879
0
LINE
8
Layer 1
10
22.370218
20
17.882879
11
21.875000
21
17.782660
0
LINE
8
Layer 1
10
21.875000
20
17.782660
11
20.581100
21
17.782700
0
LINE
8
Layer 1
10
20.602200
20
20.602200
11
20.602200
21
14.957800
0
LINE
8
Layer 1
10
25.400000
20
20.602200
11
25.400000
21
14.957800
0
LINE
8
Layer 1
10
23.706600
20
20.320000
11
27.093300
21
20.320000
0
LINE
8
Layer 1
10
30.762200
20
15.221500
11
29.468300
21
15.221500
0
LINE
8
Layer 1
10
29.468300
20
15.221500
11
28.973083
21
15.321719
0
LINE
8
Layer 1
10
28.973083
20
15.321719
11
28.569536
21
15.595352
0
LINE
8
Layer 1
10
28.569536
20
15.595352
11
28.297898
21
16.001864
0
LINE
8
Layer 1
10
28.297898
20
16.001864
11
28.198410
21
16.500720
0
LINE
8
Layer 1
10
28.198410
20
16.500720
11
28.297882
21
16.999582
0
LINE
8
Layer 1
10
28.297882
20
16.999582
11
28.569501
21
17.406115
0
LINE
8
Layer 1
10
28.569501
20
17.406115
11
28.973047
21
17.679771
0
LINE
8
Layer 1
10
28.973047
20
17.679771
11
29.468300
21
17.780000
0
LINE
8
Layer 1
10
29.468300
20
17.780000
11
30.762200
21
17.780000
0
LINE
8
Layer 1
10
30.762200
20
17.761500
11
29.468300
21
17.761500
0
LINE
8
Layer 1
10
29.468300
20
17.761500
11
28.973083
21
17.861719
0
LINE
8
Layer 1
10
28.973083
20
17.861719
11
28.569536
21
18.135352
0
LINE
8
Layer 1
10
28.569536
20
18.135352
11
28.297898
21
18.541865
0
LINE
8
Layer 1
10
28.297898
20
18.541865
11
28.198410
21
19.040720
0
LINE
8
Layer 1
10
28.198410
20
19.040720
11
28.297882
21
19.539582
0
LINE
8
Layer 1
10
28.297882
20
19.539582
11
28.569501
21
19.946115
0
LINE
8
Layer 1
10
28.569501
20
19.946115
11
28.973047
21
20.219771
0
LINE
8
Layer 1
10
28.973047
20
20.219771
11
29.468300
21
20.320000
0
LINE
8
Layer 1
10
29.468300
20
20.320000
11
30.762200
21
20.320000
0
LINE
8
Layer 1
10
34.148900
20
17.777300
11
35.160600
21
17.777300
0
LINE
8
Layer 1
10
35.160600
20
17.777300
11
35.656026
21
17.677081
0
LINE
8
Layer 1
10
35.656026
20
17.677081
11
36.059923
21
17.403447
0
LINE
8
Layer 1
10
36.059923
20
17.403447
11
36.331630
21
16.996935
0
LINE
8
Layer 1
10
36.331630
20
16.996935
11
36.430490
21
16.498080
0
LINE
8
Layer 1
10
36.430490
20
16.498080
11
36.427668
21
15.218860
0
LINE
8
Layer 1
10
33.866600
20
20.338400
11
35.160600
21
20.338400
0
LINE
8
Layer 1
10
35.160600
20
20.338400
11
35.655817
21
20.238181
0
LINE
8
Layer 1
10
35.655817
20
20.238181
11
36.059364
21
19.964548
0
LINE
8
Layer 1
10
36.059364
20
19.964548
11
36.331002
21
19.558035
0
LINE
8
Layer 1
10
36.331002
20
19.558035
11
36.430490
21
19.059180
0
LINE
8
Layer 1
10
36.430490
20
19.059180
11
36.331004
21
18.560334
0
LINE
8
Layer 1
10
36.331004
20
18.560334
11
36.059361
21
18.153835
0
LINE
8
Layer 1
10
36.059361
20
18.153835
11
35.655811
21
17.880214
0
LINE
8
Layer 1
10
35.655811
20
17.880214
11
35.160600
21
17.780000
0
LINE
8
Layer 1
10
35.160600
20
17.780000
11
33.866600
21
17.780000
 0 
ENDSEC
 0 
EOF