M48
; DRILL file {KiCad 5.1.8-5.1.8} date Thu Nov 25 16:42:33 2021
; FORMAT={-:-/ absolute / inch / decimal}
; #@! TF.CreationDate,2021-11-25T16:42:33+01:00
; #@! TF.GenerationSoftware,Kicad,Pcbnew,5.1.8-5.1.8
FMAT,2
INCH
T1C0.0157
T2C0.0276
T3C0.0300
T4C0.0315
T5C0.0354
T6C0.0394
T7C0.0400
T8C0.0472
T9C0.0512
T10C0.0787
T11C0.0827
%
G90
G05
T1
X2.7844Y-4.4478
X3.4035Y-3.6752
X3.4094Y-4.2274
X3.6762Y-4.3917
X3.7904Y-4.3947
X4.0354Y-4.3937
X4.0768Y-5.0207
T2
X4.1882Y-5.2864
X4.4882Y-5.2864
X4.1882Y-5.0974
X4.4882Y-5.0974
X4.189Y-4.688
X4.489Y-4.688
X4.1882Y-5.1959
X4.4882Y-5.1959
X3.1803Y-2.6614
X3.4803Y-2.6614
X4.187Y-5.378
X4.487Y-5.378
X4.189Y-4.999
X4.489Y-4.999
X3.1142Y-3.7746
X3.1142Y-4.0746
X2.6417Y-4.5039
X2.6417Y-4.8039
X3.4524Y-3.1941
X3.7524Y-3.1941
X2.7953Y-4.5394
X3.0953Y-4.5394
X3.1795Y-2.7528
X3.4795Y-2.7528
T4
X4.1921Y-4.5817
X4.4921Y-4.5817
X4.1929Y-4.4793
X4.4929Y-4.4793
X2.8524Y-5.4744
X3.0492Y-5.4744
X2.7984Y-4.648
X2.7984Y-4.748
X2.7984Y-4.848
X2.7984Y-4.948
X2.7984Y-5.048
X2.7984Y-5.148
X2.7984Y-5.248
X3.0984Y-4.648
X3.0984Y-4.748
X3.0984Y-4.848
X3.0984Y-4.948
X3.0984Y-5.048
X3.0984Y-5.148
X3.0984Y-5.248
X2.6417Y-4.9016
X2.6417Y-5.0984
X3.776Y-4.5272
X3.876Y-4.4272
X3.876Y-4.6272
X3.2421Y-3.8356
X3.2421Y-4.0325
X4.1929Y-4.7943
X4.4929Y-4.7943
X3.5677Y-2.8122
X3.5677Y-3.0091
X4.1921Y-4.8967
X4.4921Y-4.8967
X2.6407Y-5.2244
X2.6407Y-5.4213
T5
X3.6063Y-3.4276
X3.6063Y-3.5276
T6
X2.685Y-3.7825
X2.7835Y-3.7825
X2.8819Y-3.7825
X3.5039Y-3.7825
X3.6024Y-3.7825
X3.7008Y-3.7825
X4.3228Y-3.7825
X4.4213Y-3.7825
X4.5197Y-3.7825
T7
X2.5902Y-2.8638
X2.6902Y-2.8638
T8
X4.3957Y-2.863
X4.3957Y-3.0598
T9
X3.2589Y-4.3809
X3.2589Y-4.5266
X3.2589Y-4.6722
X3.4045Y-4.3809
X3.4045Y-4.5266
X3.4045Y-4.6722
X3.5502Y-4.3809
X3.5502Y-4.5266
X3.5502Y-4.6722
T10
X2.6102Y-4.0581
X2.9567Y-4.0581
X3.4291Y-4.0581
X3.7756Y-4.0581
X4.248Y-4.0581
X4.5945Y-4.0581
T11
X3.6024Y-4.0778
X2.7835Y-4.0778
X4.4213Y-4.0778
T3
G00X2.7945Y-3.4488
M15
G01X2.8511Y-3.4488
M16
G05
G00X3.0898Y-3.5472
M15
G01X3.1464Y-3.5472
M16
G05
G00X3.3811Y-3.3504
M15
G01X3.4378Y-3.3504
M16
G05
G00X3.3811Y-3.5472
M15
G01X3.4378Y-3.5472
M16
G05
G00X3.8236Y-3.3504
M15
G01X3.767Y-3.3504
M16
G05
G00X3.8236Y-3.5472
M15
G01X3.767Y-3.5472
M16
G05
G00X4.1149Y-3.3504
M15
G01X4.0583Y-3.3504
M16
G05
G00X4.4102Y-3.4488
M15
G01X4.3536Y-3.4488
M16
G05
T6
G00X2.7598Y-2.9921
M15
G01X2.7598Y-3.0709
M16
G05
G00X2.9843Y-2.9134
M15
G01X2.9055Y-2.9134
M16
G05
G00X2.9843Y-3.1496
M15
G01X2.9055Y-3.1496
M16
G05
T0
M30
