%TF.GenerationSoftware,KiCad,Pcbnew,5.1.8-5.1.8*%
%TF.CreationDate,2021-11-25T16:42:30+01:00*%
%TF.ProjectId,diodedistortion,64696f64-6564-4697-9374-6f7274696f6e,rev?*%
%TF.SameCoordinates,Original*%
%TF.FileFunction,Soldermask,Bot*%
%TF.FilePolarity,Negative*%
%FSLAX46Y46*%
G04 Gerber Fmt 4.6, Leading zero omitted, Abs format (unit mm)*
G04 Created by KiCad (PCBNEW 5.1.8-5.1.8) date 2021-11-25 16:42:30*
%MOMM*%
%LPD*%
G01*
G04 APERTURE LIST*
%ADD10C,2.300000*%
%ADD11C,2.100000*%
%ADD12O,1.400000X1.400000*%
%ADD13C,1.400000*%
%ADD14O,1.600000X1.600000*%
%ADD15R,1.600000X1.600000*%
%ADD16O,2.400000X1.600000*%
%ADD17R,2.400000X1.600000*%
%ADD18C,1.440000*%
%ADD19C,4.000000*%
%ADD20C,1.800000*%
%ADD21O,3.000000X1.524000*%
%ADD22R,3.500000X3.500000*%
%ADD23R,1.800000X1.800000*%
%ADD24C,1.600000*%
%ADD25C,2.400000*%
%ADD26R,2.400000X2.400000*%
%ADD27C,2.082800*%
G04 APERTURE END LIST*
D10*
%TO.C,S1*%
X86475000Y-111275000D03*
X90175000Y-111275000D03*
X82775000Y-111275000D03*
X90175000Y-114975000D03*
X86475000Y-114975000D03*
X82775000Y-114975000D03*
X90175000Y-118675000D03*
X82775000Y-118675000D03*
X86475000Y-118675000D03*
%TD*%
D11*
%TO.C,REF\u002A\u002A*%
X70700000Y-103575000D03*
%TD*%
%TO.C,REF\u002A\u002A*%
X91500000Y-103575000D03*
%TD*%
%TO.C,REF\u002A\u002A*%
X112300000Y-103575000D03*
%TD*%
D12*
%TO.C,R12*%
X113970000Y-136600000D03*
D13*
X106350000Y-136600000D03*
%TD*%
D12*
%TO.C,R11*%
X67100000Y-122020000D03*
D13*
X67100000Y-114400000D03*
%TD*%
D12*
%TO.C,R10*%
X79100000Y-103495000D03*
D13*
X79100000Y-95875000D03*
%TD*%
D12*
%TO.C,R9*%
X78620000Y-115300000D03*
D13*
X71000000Y-115300000D03*
%TD*%
D12*
%TO.C,R8*%
X114020000Y-119075000D03*
D13*
X106400000Y-119075000D03*
%TD*%
D12*
%TO.C,R7*%
X95310000Y-81130000D03*
D13*
X87690000Y-81130000D03*
%TD*%
D12*
%TO.C,R6*%
X106380000Y-134275000D03*
D13*
X114000000Y-134275000D03*
%TD*%
D12*
%TO.C,R5*%
X106380000Y-131975000D03*
D13*
X114000000Y-131975000D03*
%TD*%
D12*
%TO.C,R4*%
X106380000Y-129475000D03*
D13*
X114000000Y-129475000D03*
%TD*%
D12*
%TO.C,R3*%
X114020000Y-126975000D03*
D13*
X106400000Y-126975000D03*
%TD*%
D12*
%TO.C,R2*%
X80780000Y-67600000D03*
D13*
X88400000Y-67600000D03*
%TD*%
D12*
%TO.C,R1*%
X88380000Y-69920000D03*
D13*
X80760000Y-69920000D03*
%TD*%
D14*
%TO.C,D4*%
X106480000Y-116375000D03*
D15*
X114100000Y-116375000D03*
%TD*%
D16*
%TO.C,U1*%
X71080000Y-133300000D03*
X78700000Y-118060000D03*
X71080000Y-130760000D03*
X78700000Y-120600000D03*
X71080000Y-128220000D03*
X78700000Y-123140000D03*
X71080000Y-125680000D03*
X78700000Y-125680000D03*
X71080000Y-123140000D03*
X78700000Y-128220000D03*
X71080000Y-120600000D03*
X78700000Y-130760000D03*
X71080000Y-118060000D03*
D17*
X78700000Y-133300000D03*
%TD*%
D18*
%TO.C,RV4*%
X98450000Y-112450000D03*
X95910000Y-114990000D03*
X98450000Y-117530000D03*
%TD*%
D19*
%TO.C,RV3*%
X75100000Y-103075000D03*
X66300000Y-103075000D03*
D20*
X73200000Y-96075000D03*
X70700000Y-96075000D03*
X68200000Y-96075000D03*
%TD*%
D19*
%TO.C,RV2*%
X95900000Y-103075000D03*
X87100000Y-103075000D03*
D20*
X94000000Y-96075000D03*
X91500000Y-96075000D03*
X89000000Y-96075000D03*
%TD*%
D19*
%TO.C,RV1*%
X116700000Y-103075000D03*
X107900000Y-103075000D03*
D20*
X114800000Y-96075000D03*
X112300000Y-96075000D03*
X109800000Y-96075000D03*
%TD*%
D21*
%TO.C,J3*%
X86600000Y-85100000D03*
X86600000Y-90100000D03*
X79200000Y-90100000D03*
X71700000Y-87600000D03*
%TD*%
%TO.C,J2*%
X96400000Y-90100000D03*
X96400000Y-85100000D03*
X103800000Y-85100000D03*
X111300000Y-87600000D03*
%TD*%
%TO.C,J1*%
G36*
G01*
X69225000Y-75250000D02*
X70975000Y-75250000D01*
G75*
G02*
X71850000Y-76125000I0J-875000D01*
G01*
X71850000Y-77875000D01*
G75*
G02*
X70975000Y-78750000I-875000J0D01*
G01*
X69225000Y-78750000D01*
G75*
G02*
X68350000Y-77875000I0J875000D01*
G01*
X68350000Y-76125000D01*
G75*
G02*
X69225000Y-75250000I875000J0D01*
G01*
G37*
G36*
G01*
X73800000Y-72500000D02*
X75800000Y-72500000D01*
G75*
G02*
X76550000Y-73250000I0J-750000D01*
G01*
X76550000Y-74750000D01*
G75*
G02*
X75800000Y-75500000I-750000J0D01*
G01*
X73800000Y-75500000D01*
G75*
G02*
X73050000Y-74750000I0J750000D01*
G01*
X73050000Y-73250000D01*
G75*
G02*
X73800000Y-72500000I750000J0D01*
G01*
G37*
D22*
X74800000Y-80000000D03*
%TD*%
D14*
%TO.C,D5*%
X114120000Y-113775000D03*
D15*
X106500000Y-113775000D03*
%TD*%
D14*
%TO.C,D3*%
X114120000Y-121775000D03*
D15*
X106500000Y-121775000D03*
%TD*%
D20*
%TO.C,D2*%
X91600000Y-87060000D03*
D23*
X91600000Y-89600000D03*
%TD*%
D14*
%TO.C,D1*%
X106480000Y-124375000D03*
D15*
X114100000Y-124375000D03*
%TD*%
D24*
%TO.C,C6*%
X67075000Y-132700000D03*
X67075000Y-137700000D03*
%TD*%
%TO.C,C5*%
X82350000Y-102425000D03*
X82350000Y-97425000D03*
%TD*%
%TO.C,C4*%
X67100000Y-129500000D03*
X67100000Y-124500000D03*
%TD*%
%TO.C,C3*%
X90620000Y-76430000D03*
D15*
X90620000Y-71430000D03*
%TD*%
D24*
%TO.C,C2*%
X77450000Y-139050000D03*
X72450000Y-139050000D03*
%TD*%
D25*
%TO.C,C1*%
X111650000Y-77720000D03*
D26*
X111650000Y-72720000D03*
%TD*%
D27*
%TO.C,BT1*%
X65790000Y-72740000D03*
X68330000Y-72740000D03*
%TD*%
M02*
