%TF.GenerationSoftware,KiCad,Pcbnew,5.1.8-5.1.8*%
%TF.CreationDate,2021-11-25T16:42:30+01:00*%
%TF.ProjectId,diodedistortion,64696f64-6564-4697-9374-6f7274696f6e,rev?*%
%TF.SameCoordinates,Original*%
%TF.FileFunction,Copper,L2,Bot*%
%TF.FilePolarity,Positive*%
%FSLAX46Y46*%
G04 Gerber Fmt 4.6, Leading zero omitted, Abs format (unit mm)*
G04 Created by KiCad (PCBNEW 5.1.8-5.1.8) date 2021-11-25 16:42:30*
%MOMM*%
%LPD*%
G01*
G04 APERTURE LIST*
%TA.AperFunction,ComponentPad*%
%ADD10C,2.300000*%
%TD*%
%TA.AperFunction,ComponentPad*%
%ADD11O,1.400000X1.400000*%
%TD*%
%TA.AperFunction,ComponentPad*%
%ADD12C,1.400000*%
%TD*%
%TA.AperFunction,ComponentPad*%
%ADD13O,1.600000X1.600000*%
%TD*%
%TA.AperFunction,ComponentPad*%
%ADD14R,1.600000X1.600000*%
%TD*%
%TA.AperFunction,ComponentPad*%
%ADD15O,2.400000X1.600000*%
%TD*%
%TA.AperFunction,ComponentPad*%
%ADD16R,2.400000X1.600000*%
%TD*%
%TA.AperFunction,ComponentPad*%
%ADD17C,1.440000*%
%TD*%
%TA.AperFunction,WasherPad*%
%ADD18C,4.000000*%
%TD*%
%TA.AperFunction,ComponentPad*%
%ADD19C,1.800000*%
%TD*%
%TA.AperFunction,ComponentPad*%
%ADD20O,3.000000X1.524000*%
%TD*%
%TA.AperFunction,ComponentPad*%
%ADD21R,3.500000X3.500000*%
%TD*%
%TA.AperFunction,ComponentPad*%
%ADD22R,1.800000X1.800000*%
%TD*%
%TA.AperFunction,ComponentPad*%
%ADD23C,1.600000*%
%TD*%
%TA.AperFunction,ComponentPad*%
%ADD24C,2.400000*%
%TD*%
%TA.AperFunction,ComponentPad*%
%ADD25R,2.400000X2.400000*%
%TD*%
%TA.AperFunction,ComponentPad*%
%ADD26C,1.879600*%
%TD*%
%TA.AperFunction,ViaPad*%
%ADD27C,0.800000*%
%TD*%
%TA.AperFunction,Conductor*%
%ADD28C,0.250000*%
%TD*%
%TA.AperFunction,Conductor*%
%ADD29C,0.500000*%
%TD*%
%TA.AperFunction,Conductor*%
%ADD30C,0.254000*%
%TD*%
%TA.AperFunction,Conductor*%
%ADD31C,0.100000*%
%TD*%
G04 APERTURE END LIST*
D10*
%TO.P,S1,P$6*%
%TO.N,Net-(S1-PadP$6)*%
X86475000Y-111275000D03*
%TO.P,S1,P$9*%
X90175000Y-111275000D03*
%TO.P,S1,P$3*%
%TO.N,Net-(S1-PadP$3)*%
X82775000Y-111275000D03*
%TO.P,S1,P$8*%
%TO.N,Net-(J3-PadT)*%
X90175000Y-114975000D03*
%TO.P,S1,P$5*%
%TO.N,Net-(J2-PadT)*%
X86475000Y-114975000D03*
%TO.P,S1,P$2*%
%TO.N,Net-(BT1-Pad1)*%
X82775000Y-114975000D03*
%TO.P,S1,P$7*%
%TO.N,Net-(C6-Pad1)*%
X90175000Y-118675000D03*
%TO.P,S1,P$1*%
%TO.N,Net-(C1-Pad1)*%
X82775000Y-118675000D03*
%TO.P,S1,P$4*%
%TO.N,Net-(C2-Pad2)*%
X86475000Y-118675000D03*
%TD*%
D11*
%TO.P,R12,2*%
%TO.N,GND*%
X113970000Y-136600000D03*
D12*
%TO.P,R12,1*%
%TO.N,Net-(C6-Pad1)*%
X106350000Y-136600000D03*
%TD*%
D11*
%TO.P,R11,2*%
%TO.N,Net-(R11-Pad2)*%
X67100000Y-122020000D03*
D12*
%TO.P,R11,1*%
%TO.N,Net-(R11-Pad1)*%
X67100000Y-114400000D03*
%TD*%
D11*
%TO.P,R10,2*%
%TO.N,Net-(C5-Pad1)*%
X79100000Y-103495000D03*
D12*
%TO.P,R10,1*%
%TO.N,GNDREF*%
X79100000Y-95875000D03*
%TD*%
D11*
%TO.P,R9,2*%
%TO.N,Net-(D4-Pad2)*%
X78620000Y-115300000D03*
D12*
%TO.P,R9,1*%
%TO.N,Net-(C4-Pad1)*%
X71000000Y-115300000D03*
%TD*%
D11*
%TO.P,R8,2*%
%TO.N,Net-(D4-Pad1)*%
X114020000Y-119075000D03*
D12*
%TO.P,R8,1*%
%TO.N,GNDREF*%
X106400000Y-119075000D03*
%TD*%
D11*
%TO.P,R7,2*%
%TO.N,Net-(D2-Pad2)*%
X95310000Y-81130000D03*
D12*
%TO.P,R7,1*%
%TO.N,Net-(C1-Pad1)*%
X87690000Y-81130000D03*
%TD*%
D11*
%TO.P,R6,2*%
%TO.N,Net-(R5-Pad2)*%
X106380000Y-134275000D03*
D12*
%TO.P,R6,1*%
%TO.N,Net-(D1-Pad2)*%
X114000000Y-134275000D03*
%TD*%
D11*
%TO.P,R5,2*%
%TO.N,Net-(R5-Pad2)*%
X106380000Y-131975000D03*
D12*
%TO.P,R5,1*%
%TO.N,Net-(R5-Pad1)*%
X114000000Y-131975000D03*
%TD*%
D11*
%TO.P,R4,2*%
%TO.N,Net-(R4-Pad2)*%
X106380000Y-129475000D03*
D12*
%TO.P,R4,1*%
%TO.N,GNDREF*%
X114000000Y-129475000D03*
%TD*%
D11*
%TO.P,R3,2*%
%TO.N,GNDREF*%
X114020000Y-126975000D03*
D12*
%TO.P,R3,1*%
%TO.N,Net-(C2-Pad1)*%
X106400000Y-126975000D03*
%TD*%
D11*
%TO.P,R2,2*%
%TO.N,GND*%
X80780000Y-67600000D03*
D12*
%TO.P,R2,1*%
%TO.N,GNDREF*%
X88400000Y-67600000D03*
%TD*%
D11*
%TO.P,R1,2*%
%TO.N,GNDREF*%
X88380000Y-69920000D03*
D12*
%TO.P,R1,1*%
%TO.N,Net-(C1-Pad1)*%
X80760000Y-69920000D03*
%TD*%
D13*
%TO.P,D4,2*%
%TO.N,Net-(D4-Pad2)*%
X106480000Y-116375000D03*
D14*
%TO.P,D4,1*%
%TO.N,Net-(D4-Pad1)*%
X114100000Y-116375000D03*
%TD*%
D15*
%TO.P,U1,14*%
%TO.N,Net-(C6-Pad2)*%
X71080000Y-133300000D03*
%TO.P,U1,7*%
%TO.N,Net-(D4-Pad2)*%
X78700000Y-118060000D03*
%TO.P,U1,13*%
%TO.N,Net-(RV4-Pad2)*%
X71080000Y-130760000D03*
%TO.P,U1,6*%
%TO.N,Net-(D4-Pad1)*%
X78700000Y-120600000D03*
%TO.P,U1,12*%
%TO.N,Net-(C6-Pad2)*%
X71080000Y-128220000D03*
%TO.P,U1,5*%
%TO.N,Net-(D1-Pad2)*%
X78700000Y-123140000D03*
%TO.P,U1,11*%
%TO.N,GND*%
X71080000Y-125680000D03*
%TO.P,U1,4*%
%TO.N,Net-(C1-Pad1)*%
X78700000Y-125680000D03*
%TO.P,U1,10*%
%TO.N,Net-(C4-Pad1)*%
X71080000Y-123140000D03*
%TO.P,U1,3*%
%TO.N,Net-(C2-Pad1)*%
X78700000Y-128220000D03*
%TO.P,U1,9*%
%TO.N,Net-(R11-Pad2)*%
X71080000Y-120600000D03*
%TO.P,U1,2*%
%TO.N,Net-(R4-Pad2)*%
X78700000Y-130760000D03*
%TO.P,U1,8*%
%TO.N,Net-(R11-Pad1)*%
X71080000Y-118060000D03*
D16*
%TO.P,U1,1*%
%TO.N,Net-(R5-Pad2)*%
X78700000Y-133300000D03*
%TD*%
D17*
%TO.P,RV4,1*%
%TO.N,Net-(R11-Pad1)*%
X98450000Y-112450000D03*
%TO.P,RV4,2*%
%TO.N,Net-(RV4-Pad2)*%
X95910000Y-114990000D03*
%TO.P,RV4,3*%
%TO.N,GNDREF*%
X98450000Y-117530000D03*
%TD*%
D18*
%TO.P,RV3,*%
%TO.N,*%
X75100000Y-103075000D03*
X66300000Y-103075000D03*
D19*
%TO.P,RV3,1*%
%TO.N,Net-(C4-Pad1)*%
X73200000Y-96075000D03*
%TO.P,RV3,2*%
%TO.N,Net-(C5-Pad2)*%
X70700000Y-96075000D03*
%TO.P,RV3,3*%
%TO.N,Net-(R11-Pad2)*%
X68200000Y-96075000D03*
%TD*%
D18*
%TO.P,RV2,*%
%TO.N,*%
X95900000Y-103075000D03*
X87100000Y-103075000D03*
D19*
%TO.P,RV2,1*%
%TO.N,Net-(D4-Pad2)*%
X94000000Y-96075000D03*
%TO.P,RV2,2*%
X91500000Y-96075000D03*
%TO.P,RV2,3*%
%TO.N,Net-(D4-Pad1)*%
X89000000Y-96075000D03*
%TD*%
D18*
%TO.P,RV1,*%
%TO.N,*%
X116700000Y-103075000D03*
X107900000Y-103075000D03*
D19*
%TO.P,RV1,1*%
%TO.N,Net-(R5-Pad1)*%
X114800000Y-96075000D03*
%TO.P,RV1,2*%
X112300000Y-96075000D03*
%TO.P,RV1,3*%
%TO.N,Net-(R4-Pad2)*%
X109800000Y-96075000D03*
%TD*%
D20*
%TO.P,J3,R*%
%TO.N,N/C*%
X86600000Y-85100000D03*
%TO.P,J3,T*%
%TO.N,Net-(J3-PadT)*%
X86600000Y-90100000D03*
%TO.P,J3,TN*%
%TO.N,N/C*%
X79200000Y-90100000D03*
%TO.P,J3,S*%
%TO.N,GND*%
X71700000Y-87600000D03*
%TD*%
%TO.P,J2,R*%
%TO.N,N/C*%
X96400000Y-90100000D03*
%TO.P,J2,T*%
%TO.N,Net-(J2-PadT)*%
X96400000Y-85100000D03*
%TO.P,J2,TN*%
%TO.N,N/C*%
X103800000Y-85100000D03*
%TO.P,J2,S*%
%TO.N,GND*%
X111300000Y-87600000D03*
%TD*%
%TO.P,J1,3*%
%TO.N,Net-(BT1-Pad2)*%
%TA.AperFunction,ComponentPad*%
G36*
G01*
X69225000Y-75250000D02*
X70975000Y-75250000D01*
G75*
G02*
X71850000Y-76125000I0J-875000D01*
G01*
X71850000Y-77875000D01*
G75*
G02*
X70975000Y-78750000I-875000J0D01*
G01*
X69225000Y-78750000D01*
G75*
G02*
X68350000Y-77875000I0J875000D01*
G01*
X68350000Y-76125000D01*
G75*
G02*
X69225000Y-75250000I875000J0D01*
G01*
G37*
%TD.AperFunction*%
%TO.P,J1,2*%
%TO.N,GND*%
%TA.AperFunction,ComponentPad*%
G36*
G01*
X73800000Y-72500000D02*
X75800000Y-72500000D01*
G75*
G02*
X76550000Y-73250000I0J-750000D01*
G01*
X76550000Y-74750000D01*
G75*
G02*
X75800000Y-75500000I-750000J0D01*
G01*
X73800000Y-75500000D01*
G75*
G02*
X73050000Y-74750000I0J750000D01*
G01*
X73050000Y-73250000D01*
G75*
G02*
X73800000Y-72500000I750000J0D01*
G01*
G37*
%TD.AperFunction*%
D21*
%TO.P,J1,1*%
%TO.N,Net-(BT1-Pad1)*%
X74800000Y-80000000D03*
%TD*%
D13*
%TO.P,D5,2*%
%TO.N,Net-(D4-Pad1)*%
X114120000Y-113775000D03*
D14*
%TO.P,D5,1*%
%TO.N,Net-(D4-Pad2)*%
X106500000Y-113775000D03*
%TD*%
D13*
%TO.P,D3,2*%
%TO.N,GNDREF*%
X114120000Y-121775000D03*
D14*
%TO.P,D3,1*%
%TO.N,Net-(D1-Pad2)*%
X106500000Y-121775000D03*
%TD*%
D19*
%TO.P,D2,2*%
%TO.N,Net-(D2-Pad2)*%
X91600000Y-87060000D03*
D22*
%TO.P,D2,1*%
%TO.N,GND*%
X91600000Y-89600000D03*
%TD*%
D13*
%TO.P,D1,2*%
%TO.N,Net-(D1-Pad2)*%
X106480000Y-124375000D03*
D14*
%TO.P,D1,1*%
%TO.N,GNDREF*%
X114100000Y-124375000D03*
%TD*%
D23*
%TO.P,C6,2*%
%TO.N,Net-(C6-Pad2)*%
X67075000Y-132700000D03*
%TO.P,C6,1*%
%TO.N,Net-(C6-Pad1)*%
X67075000Y-137700000D03*
%TD*%
%TO.P,C5,2*%
%TO.N,Net-(C5-Pad2)*%
X82350000Y-102425000D03*
%TO.P,C5,1*%
%TO.N,Net-(C5-Pad1)*%
X82350000Y-97425000D03*
%TD*%
%TO.P,C4,2*%
%TO.N,GNDREF*%
X67100000Y-129500000D03*
%TO.P,C4,1*%
%TO.N,Net-(C4-Pad1)*%
X67100000Y-124500000D03*
%TD*%
%TO.P,C3,2*%
%TO.N,GND*%
X90620000Y-76430000D03*
D14*
%TO.P,C3,1*%
%TO.N,GNDREF*%
X90620000Y-71430000D03*
%TD*%
D23*
%TO.P,C2,2*%
%TO.N,Net-(C2-Pad2)*%
X77450000Y-139050000D03*
%TO.P,C2,1*%
%TO.N,Net-(C2-Pad1)*%
X72450000Y-139050000D03*
%TD*%
D24*
%TO.P,C1,2*%
%TO.N,GND*%
X111650000Y-77720000D03*
D25*
%TO.P,C1,1*%
%TO.N,Net-(C1-Pad1)*%
X111650000Y-72720000D03*
%TD*%
D26*
%TO.P,BT1,2*%
%TO.N,Net-(BT1-Pad2)*%
X65790000Y-72740000D03*
%TO.P,BT1,1*%
%TO.N,Net-(BT1-Pad1)*%
X68330000Y-72740000D03*
%TD*%
D27*
%TO.N,GND*%
X70725000Y-112975000D03*
X103550000Y-127525000D03*
X96275000Y-111625000D03*
X93375000Y-111550000D03*
X86450000Y-93350000D03*
X86600000Y-107375000D03*
X102500000Y-111600000D03*
%TD*%
D28*
%TO.N,Net-(BT1-Pad1)*%
X74674999Y-80125001D02*
X74800000Y-80000000D01*
D29*
X77949999Y-110149999D02*
X82775000Y-114975000D01*
X77949999Y-102298997D02*
X77949999Y-110149999D01*
X74800000Y-99148998D02*
X77949999Y-102298997D01*
X74800000Y-80000000D02*
X74800000Y-99148998D01*
%TO.N,Net-(C1-Pad1)*%
X80760000Y-74200000D02*
X87690000Y-81130000D01*
X80760000Y-69920000D02*
X80760000Y-74200000D01*
X84414990Y-84405010D02*
X87690000Y-81130000D01*
X84414990Y-117035010D02*
X84414990Y-84405010D01*
X82775000Y-118675000D02*
X84414990Y-117035010D01*
X76400000Y-119820000D02*
X76400000Y-123380000D01*
X76870010Y-119349990D02*
X76400000Y-119820000D01*
X76400000Y-123380000D02*
X78700000Y-125680000D01*
X82100010Y-119349990D02*
X76870010Y-119349990D01*
X82775000Y-118675000D02*
X82100010Y-119349990D01*
D28*
%TO.N,Net-(C2-Pad2)*%
X78249999Y-138250001D02*
X77450000Y-139050000D01*
X80725011Y-135774989D02*
X78249999Y-138250001D01*
X80725011Y-121155001D02*
X80725011Y-135774989D01*
X80980022Y-120899990D02*
X80725011Y-121155001D01*
X84250010Y-120899990D02*
X80980022Y-120899990D01*
X86475000Y-118675000D02*
X84250010Y-120899990D01*
%TO.N,Net-(C2-Pad1)*%
X73249999Y-133670001D02*
X78700000Y-128220000D01*
X73249999Y-138250001D02*
X73249999Y-133670001D01*
X72450000Y-139050000D02*
X73249999Y-138250001D01*
%TO.N,Net-(C4-Pad1)*%
X72605010Y-121614990D02*
X71080000Y-123140000D01*
X72605010Y-116905010D02*
X72605010Y-121614990D01*
X71000000Y-115300000D02*
X72605010Y-116905010D01*
X72774999Y-96500001D02*
X73200000Y-96075000D01*
X72774999Y-113525001D02*
X72774999Y-96500001D01*
X71000000Y-115300000D02*
X72774999Y-113525001D01*
%TO.N,Net-(C5-Pad1)*%
X79100000Y-100675000D02*
X82350000Y-97425000D01*
X79100000Y-103495000D02*
X79100000Y-100675000D01*
%TO.N,Net-(C6-Pad2)*%
X69554990Y-131774990D02*
X71080000Y-133300000D01*
X69554990Y-129745010D02*
X69554990Y-131774990D01*
X71080000Y-128220000D02*
X69554990Y-129745010D01*
%TO.N,Net-(C6-Pad1)*%
X92160000Y-120660000D02*
X90175000Y-118675000D01*
X101510000Y-120660000D02*
X92160000Y-120660000D01*
X102350000Y-121500000D02*
X101510000Y-120660000D01*
X102350000Y-132600000D02*
X102350000Y-121500000D01*
X106350000Y-136600000D02*
X102350000Y-132600000D01*
%TO.N,Net-(D4-Pad2)*%
X78700000Y-115380000D02*
X78620000Y-115300000D01*
X78700000Y-118060000D02*
X78700000Y-115380000D01*
X106480000Y-113795000D02*
X106500000Y-113775000D01*
X106480000Y-116375000D02*
X106480000Y-113795000D01*
%TO.N,Net-(D4-Pad1)*%
X114100000Y-114926370D02*
X114100000Y-116375000D01*
X114120000Y-114906370D02*
X114100000Y-114926370D01*
X114120000Y-113775000D02*
X114120000Y-114906370D01*
X114100000Y-118995000D02*
X114020000Y-119075000D01*
X114100000Y-116375000D02*
X114100000Y-118995000D01*
X89425001Y-96500001D02*
X89000000Y-96075000D01*
X89425001Y-104724999D02*
X89425001Y-96500001D01*
X88550000Y-105600000D02*
X89425001Y-104724999D01*
X86883002Y-113050000D02*
X88550000Y-111383002D01*
X84990000Y-114276998D02*
X86216998Y-113050000D01*
X84990000Y-118643002D02*
X84990000Y-114276998D01*
X88550000Y-111383002D02*
X88550000Y-105600000D01*
X83183022Y-120449980D02*
X84990000Y-118643002D01*
X78850020Y-120449980D02*
X83183022Y-120449980D01*
X86216998Y-113050000D02*
X86883002Y-113050000D01*
X78700000Y-120600000D02*
X78850020Y-120449980D01*
%TO.N,Net-(J2-PadT)*%
X98525001Y-87225001D02*
X96400000Y-85100000D01*
X98525001Y-103891001D02*
X98525001Y-87225001D01*
X95074999Y-107341003D02*
X98525001Y-103891001D01*
X95074999Y-112258003D02*
X95074999Y-107341003D01*
X90883001Y-116450001D02*
X95074999Y-112258003D01*
X87950001Y-116450001D02*
X90883001Y-116450001D01*
X86475000Y-114975000D02*
X87950001Y-116450001D01*
%TO.N,Net-(J3-PadT)*%
X91650001Y-113499999D02*
X91650001Y-106375001D01*
X90175000Y-114975000D02*
X91650001Y-113499999D01*
X92875001Y-105150001D02*
X91650001Y-106375001D01*
X92875001Y-102658997D02*
X92875001Y-105150001D01*
X95225001Y-100308997D02*
X92875001Y-102658997D01*
X89838002Y-90100000D02*
X95225001Y-95486999D01*
X95225001Y-95486999D02*
X95225001Y-100308997D01*
X86600000Y-90100000D02*
X89838002Y-90100000D01*
%TO.N,Net-(R4-Pad2)*%
X110300000Y-125555000D02*
X106380000Y-129475000D01*
X109800000Y-96075000D02*
X110300000Y-96575000D01*
X110300000Y-96575000D02*
X110300000Y-125555000D01*
%TO.N,Net-(R5-Pad1)*%
X114800000Y-96075000D02*
X112300000Y-96075000D01*
%TO.N,Net-(R11-Pad2)*%
X69099999Y-118619999D02*
X71080000Y-120600000D01*
X69099999Y-96974999D02*
X69099999Y-118619999D01*
X68200000Y-96075000D02*
X69099999Y-96974999D01*
%TD*%
D30*
%TO.N,GND*%
X118340001Y-142340000D02*
X64660000Y-142340000D01*
X64660000Y-138375325D01*
X64696893Y-138492151D01*
X64715895Y-138544274D01*
X64883299Y-138947761D01*
X64906776Y-138998025D01*
X65108758Y-139385361D01*
X65136535Y-139433386D01*
X65371555Y-139801614D01*
X65403417Y-139847031D01*
X65669680Y-140193339D01*
X65705384Y-140235801D01*
X66000859Y-140557548D01*
X66040133Y-140596730D01*
X66362562Y-140891459D01*
X66405107Y-140927066D01*
X66752032Y-141192527D01*
X66797523Y-141224284D01*
X67166293Y-141458450D01*
X67214380Y-141486114D01*
X67602183Y-141687200D01*
X67652503Y-141710562D01*
X68056376Y-141877031D01*
X68108543Y-141895912D01*
X68525406Y-142026494D01*
X68579021Y-142040750D01*
X69005690Y-142134448D01*
X69060344Y-142143969D01*
X69493563Y-142200069D01*
X69548842Y-142204783D01*
X69985304Y-142222855D01*
X70013044Y-142223397D01*
X106183476Y-142139669D01*
X106210531Y-142139030D01*
X106636201Y-142119889D01*
X106690110Y-142115157D01*
X107112604Y-142059842D01*
X107165912Y-142050537D01*
X107582162Y-141959451D01*
X107634484Y-141945641D01*
X108041467Y-141819446D01*
X108092426Y-141801231D01*
X108487187Y-141640841D01*
X108536406Y-141618355D01*
X108916078Y-141424938D01*
X108963207Y-141398340D01*
X109325032Y-141173298D01*
X109369724Y-141142786D01*
X109711074Y-140887755D01*
X109753006Y-140853549D01*
X110071403Y-140570381D01*
X110091238Y-140551969D01*
X110320806Y-140329575D01*
X110340664Y-140309462D01*
X110646188Y-139985915D01*
X110683123Y-139943137D01*
X110958669Y-139593706D01*
X110991654Y-139547816D01*
X111235040Y-139175270D01*
X111263813Y-139126628D01*
X111473112Y-138733917D01*
X111497448Y-138682908D01*
X111671000Y-138273143D01*
X111690703Y-138220175D01*
X111827135Y-137796602D01*
X111842051Y-137742091D01*
X111940282Y-137308066D01*
X111950292Y-137252443D01*
X111993162Y-136933329D01*
X112677284Y-136933329D01*
X112709953Y-137041044D01*
X112820208Y-137278392D01*
X112974649Y-137489670D01*
X113167340Y-137666759D01*
X113390877Y-137802853D01*
X113636670Y-137892722D01*
X113843000Y-137770201D01*
X113843000Y-136727000D01*
X114097000Y-136727000D01*
X114097000Y-137770201D01*
X114303330Y-137892722D01*
X114549123Y-137802853D01*
X114772660Y-137666759D01*
X114965351Y-137489670D01*
X115119792Y-137278392D01*
X115230047Y-137041044D01*
X115262716Y-136933329D01*
X115139374Y-136727000D01*
X114097000Y-136727000D01*
X113843000Y-136727000D01*
X112800626Y-136727000D01*
X112677284Y-136933329D01*
X111993162Y-136933329D01*
X112009543Y-136811402D01*
X112014568Y-136755111D01*
X112034371Y-136310549D01*
X112035000Y-136282291D01*
X112035000Y-133006494D01*
X112049827Y-132783045D01*
X112089881Y-132584204D01*
X112155859Y-132392393D01*
X112246600Y-132210985D01*
X112360518Y-132043154D01*
X112495953Y-131891464D01*
X112651422Y-131757551D01*
X112686717Y-131734338D01*
X112665000Y-131843514D01*
X112665000Y-132106486D01*
X112716304Y-132364405D01*
X112816939Y-132607359D01*
X112963038Y-132826013D01*
X113148987Y-133011962D01*
X113318161Y-133125000D01*
X113148987Y-133238038D01*
X112963038Y-133423987D01*
X112816939Y-133642641D01*
X112716304Y-133885595D01*
X112665000Y-134143514D01*
X112665000Y-134406486D01*
X112716304Y-134664405D01*
X112816939Y-134907359D01*
X112963038Y-135126013D01*
X113148987Y-135311962D01*
X113331018Y-135433590D01*
X113167340Y-135533241D01*
X112974649Y-135710330D01*
X112820208Y-135921608D01*
X112709953Y-136158956D01*
X112677284Y-136266671D01*
X112800626Y-136473000D01*
X113843000Y-136473000D01*
X113843000Y-136453000D01*
X114097000Y-136453000D01*
X114097000Y-136473000D01*
X115139374Y-136473000D01*
X115262716Y-136266671D01*
X115230047Y-136158956D01*
X115119792Y-135921608D01*
X114965351Y-135710330D01*
X114772660Y-135533241D01*
X114640376Y-135452704D01*
X114851013Y-135311962D01*
X115036962Y-135126013D01*
X115183061Y-134907359D01*
X115283696Y-134664405D01*
X115335000Y-134406486D01*
X115335000Y-134143514D01*
X115283696Y-133885595D01*
X115183061Y-133642641D01*
X115036962Y-133423987D01*
X114851013Y-133238038D01*
X114681839Y-133125000D01*
X114851013Y-133011962D01*
X115036962Y-132826013D01*
X115183061Y-132607359D01*
X115283696Y-132364405D01*
X115335000Y-132106486D01*
X115335000Y-131843514D01*
X115283696Y-131585595D01*
X115221317Y-131435000D01*
X115715207Y-131435000D01*
X115750815Y-131434001D01*
X116088398Y-131415041D01*
X116159163Y-131407067D01*
X116492500Y-131350427D01*
X116561929Y-131334579D01*
X116886827Y-131240971D01*
X116954044Y-131217449D01*
X117266418Y-131088050D01*
X117330580Y-131057149D01*
X117626501Y-130893586D01*
X117686798Y-130855696D01*
X117962543Y-130660027D01*
X118018219Y-130615623D01*
X118270320Y-130390309D01*
X118320674Y-130339949D01*
X118340001Y-130318320D01*
X118340001Y-142340000D01*
%TA.AperFunction,Conductor*%
D31*
G36*
X118340001Y-142340000D02*
G01*
X64660000Y-142340000D01*
X64660000Y-138375325D01*
X64696893Y-138492151D01*
X64715895Y-138544274D01*
X64883299Y-138947761D01*
X64906776Y-138998025D01*
X65108758Y-139385361D01*
X65136535Y-139433386D01*
X65371555Y-139801614D01*
X65403417Y-139847031D01*
X65669680Y-140193339D01*
X65705384Y-140235801D01*
X66000859Y-140557548D01*
X66040133Y-140596730D01*
X66362562Y-140891459D01*
X66405107Y-140927066D01*
X66752032Y-141192527D01*
X66797523Y-141224284D01*
X67166293Y-141458450D01*
X67214380Y-141486114D01*
X67602183Y-141687200D01*
X67652503Y-141710562D01*
X68056376Y-141877031D01*
X68108543Y-141895912D01*
X68525406Y-142026494D01*
X68579021Y-142040750D01*
X69005690Y-142134448D01*
X69060344Y-142143969D01*
X69493563Y-142200069D01*
X69548842Y-142204783D01*
X69985304Y-142222855D01*
X70013044Y-142223397D01*
X106183476Y-142139669D01*
X106210531Y-142139030D01*
X106636201Y-142119889D01*
X106690110Y-142115157D01*
X107112604Y-142059842D01*
X107165912Y-142050537D01*
X107582162Y-141959451D01*
X107634484Y-141945641D01*
X108041467Y-141819446D01*
X108092426Y-141801231D01*
X108487187Y-141640841D01*
X108536406Y-141618355D01*
X108916078Y-141424938D01*
X108963207Y-141398340D01*
X109325032Y-141173298D01*
X109369724Y-141142786D01*
X109711074Y-140887755D01*
X109753006Y-140853549D01*
X110071403Y-140570381D01*
X110091238Y-140551969D01*
X110320806Y-140329575D01*
X110340664Y-140309462D01*
X110646188Y-139985915D01*
X110683123Y-139943137D01*
X110958669Y-139593706D01*
X110991654Y-139547816D01*
X111235040Y-139175270D01*
X111263813Y-139126628D01*
X111473112Y-138733917D01*
X111497448Y-138682908D01*
X111671000Y-138273143D01*
X111690703Y-138220175D01*
X111827135Y-137796602D01*
X111842051Y-137742091D01*
X111940282Y-137308066D01*
X111950292Y-137252443D01*
X111993162Y-136933329D01*
X112677284Y-136933329D01*
X112709953Y-137041044D01*
X112820208Y-137278392D01*
X112974649Y-137489670D01*
X113167340Y-137666759D01*
X113390877Y-137802853D01*
X113636670Y-137892722D01*
X113843000Y-137770201D01*
X113843000Y-136727000D01*
X114097000Y-136727000D01*
X114097000Y-137770201D01*
X114303330Y-137892722D01*
X114549123Y-137802853D01*
X114772660Y-137666759D01*
X114965351Y-137489670D01*
X115119792Y-137278392D01*
X115230047Y-137041044D01*
X115262716Y-136933329D01*
X115139374Y-136727000D01*
X114097000Y-136727000D01*
X113843000Y-136727000D01*
X112800626Y-136727000D01*
X112677284Y-136933329D01*
X111993162Y-136933329D01*
X112009543Y-136811402D01*
X112014568Y-136755111D01*
X112034371Y-136310549D01*
X112035000Y-136282291D01*
X112035000Y-133006494D01*
X112049827Y-132783045D01*
X112089881Y-132584204D01*
X112155859Y-132392393D01*
X112246600Y-132210985D01*
X112360518Y-132043154D01*
X112495953Y-131891464D01*
X112651422Y-131757551D01*
X112686717Y-131734338D01*
X112665000Y-131843514D01*
X112665000Y-132106486D01*
X112716304Y-132364405D01*
X112816939Y-132607359D01*
X112963038Y-132826013D01*
X113148987Y-133011962D01*
X113318161Y-133125000D01*
X113148987Y-133238038D01*
X112963038Y-133423987D01*
X112816939Y-133642641D01*
X112716304Y-133885595D01*
X112665000Y-134143514D01*
X112665000Y-134406486D01*
X112716304Y-134664405D01*
X112816939Y-134907359D01*
X112963038Y-135126013D01*
X113148987Y-135311962D01*
X113331018Y-135433590D01*
X113167340Y-135533241D01*
X112974649Y-135710330D01*
X112820208Y-135921608D01*
X112709953Y-136158956D01*
X112677284Y-136266671D01*
X112800626Y-136473000D01*
X113843000Y-136473000D01*
X113843000Y-136453000D01*
X114097000Y-136453000D01*
X114097000Y-136473000D01*
X115139374Y-136473000D01*
X115262716Y-136266671D01*
X115230047Y-136158956D01*
X115119792Y-135921608D01*
X114965351Y-135710330D01*
X114772660Y-135533241D01*
X114640376Y-135452704D01*
X114851013Y-135311962D01*
X115036962Y-135126013D01*
X115183061Y-134907359D01*
X115283696Y-134664405D01*
X115335000Y-134406486D01*
X115335000Y-134143514D01*
X115283696Y-133885595D01*
X115183061Y-133642641D01*
X115036962Y-133423987D01*
X114851013Y-133238038D01*
X114681839Y-133125000D01*
X114851013Y-133011962D01*
X115036962Y-132826013D01*
X115183061Y-132607359D01*
X115283696Y-132364405D01*
X115335000Y-132106486D01*
X115335000Y-131843514D01*
X115283696Y-131585595D01*
X115221317Y-131435000D01*
X115715207Y-131435000D01*
X115750815Y-131434001D01*
X116088398Y-131415041D01*
X116159163Y-131407067D01*
X116492500Y-131350427D01*
X116561929Y-131334579D01*
X116886827Y-131240971D01*
X116954044Y-131217449D01*
X117266418Y-131088050D01*
X117330580Y-131057149D01*
X117626501Y-130893586D01*
X117686798Y-130855696D01*
X117962543Y-130660027D01*
X118018219Y-130615623D01*
X118270320Y-130390309D01*
X118320674Y-130339949D01*
X118340001Y-130318320D01*
X118340001Y-142340000D01*
G37*
%TD.AperFunction*%
D30*
X79784649Y-66710330D02*
X79630208Y-66921608D01*
X79519953Y-67158956D01*
X79487284Y-67266671D01*
X79610626Y-67473000D01*
X80653000Y-67473000D01*
X80653000Y-67453000D01*
X80907000Y-67453000D01*
X80907000Y-67473000D01*
X81949374Y-67473000D01*
X82072716Y-67266671D01*
X82040047Y-67158956D01*
X81929792Y-66921608D01*
X81775351Y-66710330D01*
X81720587Y-66660000D01*
X84918236Y-66660000D01*
X84888015Y-66747869D01*
X84865782Y-66830070D01*
X84806355Y-67127737D01*
X84795320Y-67212172D01*
X84776254Y-67515115D01*
X84775006Y-67557696D01*
X84776688Y-67953827D01*
X84777505Y-67983451D01*
X84801253Y-68449424D01*
X84807027Y-68508399D01*
X84874108Y-68970130D01*
X84885354Y-69028307D01*
X84995181Y-69481774D01*
X85011801Y-69538651D01*
X85163420Y-69979907D01*
X85185269Y-70034988D01*
X85377359Y-70460189D01*
X85404248Y-70512992D01*
X85635137Y-70918437D01*
X85666830Y-70968504D01*
X85934506Y-71350661D01*
X85970728Y-71397556D01*
X86272861Y-71753098D01*
X86292574Y-71775227D01*
X87206722Y-72754450D01*
X87224611Y-72772853D01*
X87512072Y-73056849D01*
X87550007Y-73091412D01*
X87859462Y-73351267D01*
X87900064Y-73382653D01*
X88229492Y-73616671D01*
X88272497Y-73644677D01*
X88619747Y-73851328D01*
X88664871Y-73875769D01*
X89027674Y-74053705D01*
X89050941Y-74064538D01*
X91061349Y-74951637D01*
X91441060Y-75140935D01*
X91788687Y-75357093D01*
X92114525Y-75604863D01*
X92426704Y-75892185D01*
X98653693Y-82187754D01*
X98916946Y-82478045D01*
X99145742Y-82779051D01*
X99347625Y-83098728D01*
X99521085Y-83434681D01*
X99664820Y-83784393D01*
X99777745Y-84145227D01*
X99859018Y-84514477D01*
X99908027Y-84889381D01*
X99925000Y-85280876D01*
X99925000Y-86531382D01*
X99925634Y-86559755D01*
X99945598Y-87006118D01*
X99950664Y-87062635D01*
X100010396Y-87505434D01*
X100020487Y-87561275D01*
X100119511Y-87996974D01*
X100134547Y-88051691D01*
X100272071Y-88476809D01*
X100291931Y-88529963D01*
X100466857Y-88941108D01*
X100491384Y-88992280D01*
X100702316Y-89386166D01*
X100731313Y-89434944D01*
X100976567Y-89808427D01*
X101009801Y-89854418D01*
X101287416Y-90204516D01*
X101324626Y-90247360D01*
X101632388Y-90571276D01*
X101673272Y-90610625D01*
X102008721Y-90905773D01*
X102030441Y-90924039D01*
X102569233Y-91356965D01*
X102873225Y-91624478D01*
X103142254Y-91907762D01*
X103384889Y-92213991D01*
X103599156Y-92540678D01*
X103783354Y-92885227D01*
X103936000Y-93244863D01*
X104055875Y-93616713D01*
X104142011Y-93997782D01*
X104193727Y-94385047D01*
X104211217Y-94789581D01*
X104198819Y-102703317D01*
X104199351Y-102730330D01*
X104216780Y-103155353D01*
X104221288Y-103209188D01*
X104274781Y-103631191D01*
X104283848Y-103684448D01*
X104373017Y-104100378D01*
X104386578Y-104152671D01*
X104510777Y-104559515D01*
X104528734Y-104610467D01*
X104687066Y-105005283D01*
X104709289Y-105054523D01*
X104900606Y-105434452D01*
X104926934Y-105481626D01*
X105149853Y-105843918D01*
X105180095Y-105888683D01*
X105433001Y-106230716D01*
X105466939Y-106272749D01*
X105748003Y-106592047D01*
X105766282Y-106611942D01*
X106741463Y-107629067D01*
X106995248Y-107917325D01*
X107215636Y-108215217D01*
X107409954Y-108530718D01*
X107576812Y-108861574D01*
X107715005Y-109205392D01*
X107823534Y-109559689D01*
X107901620Y-109921924D01*
X107948696Y-110289456D01*
X107965000Y-110673176D01*
X107965000Y-116593810D01*
X107954013Y-116705363D01*
X107930573Y-116782636D01*
X107892505Y-116853856D01*
X107841277Y-116916277D01*
X107792419Y-116956374D01*
X107859853Y-116793574D01*
X107915000Y-116516335D01*
X107915000Y-116233665D01*
X107859853Y-115956426D01*
X107751680Y-115695273D01*
X107594637Y-115460241D01*
X107394759Y-115260363D01*
X107320902Y-115211013D01*
X107424482Y-115200812D01*
X107544180Y-115164502D01*
X107654494Y-115105537D01*
X107751185Y-115026185D01*
X107830537Y-114929494D01*
X107889502Y-114819180D01*
X107925812Y-114699482D01*
X107938072Y-114575000D01*
X107938072Y-112975000D01*
X107925812Y-112850518D01*
X107889502Y-112730820D01*
X107830537Y-112620506D01*
X107751185Y-112523815D01*
X107654494Y-112444463D01*
X107544180Y-112385498D01*
X107424482Y-112349188D01*
X107300000Y-112336928D01*
X105700000Y-112336928D01*
X105575518Y-112349188D01*
X105455820Y-112385498D01*
X105345506Y-112444463D01*
X105248815Y-112523815D01*
X105169463Y-112620506D01*
X105110498Y-112730820D01*
X105074188Y-112850518D01*
X105061928Y-112975000D01*
X105061928Y-114575000D01*
X105074188Y-114699482D01*
X105110498Y-114819180D01*
X105169463Y-114929494D01*
X105248815Y-115026185D01*
X105345506Y-115105537D01*
X105455820Y-115164502D01*
X105575518Y-115200812D01*
X105644237Y-115207580D01*
X105565241Y-115260363D01*
X105365363Y-115460241D01*
X105208320Y-115695273D01*
X105100147Y-115956426D01*
X105045000Y-116233665D01*
X105045000Y-116516335D01*
X105076808Y-116676241D01*
X100387251Y-115538333D01*
X100353047Y-115531024D01*
X99811642Y-115430849D01*
X99742287Y-115421932D01*
X99193151Y-115381893D01*
X99158211Y-115380311D01*
X98298737Y-115365099D01*
X98243889Y-115366499D01*
X97996872Y-115383504D01*
X97888563Y-115400446D01*
X97648153Y-115459683D01*
X97544369Y-115495002D01*
X97317730Y-115594707D01*
X97221568Y-115647349D01*
X97015455Y-115784550D01*
X97001068Y-115796036D01*
X97110785Y-115631833D01*
X97212928Y-115385239D01*
X97265000Y-115123456D01*
X97265000Y-114856544D01*
X97212928Y-114594761D01*
X97110785Y-114348167D01*
X96962497Y-114126238D01*
X96773762Y-113937503D01*
X96551833Y-113789215D01*
X96305239Y-113687072D01*
X96043456Y-113635000D01*
X95776544Y-113635000D01*
X95514761Y-113687072D01*
X95268167Y-113789215D01*
X95046238Y-113937503D01*
X94857503Y-114126238D01*
X94709215Y-114348167D01*
X94607072Y-114594761D01*
X94555000Y-114856544D01*
X94555000Y-115123456D01*
X94607072Y-115385239D01*
X94709215Y-115631833D01*
X94857503Y-115853762D01*
X95046238Y-116042497D01*
X95268167Y-116190785D01*
X95514761Y-116292928D01*
X95776544Y-116345000D01*
X96043456Y-116345000D01*
X96305239Y-116292928D01*
X96551833Y-116190785D01*
X96676223Y-116107671D01*
X96530282Y-116304597D01*
X96472856Y-116397978D01*
X96361843Y-116619299D01*
X96321333Y-116721169D01*
X96250042Y-116958284D01*
X96227657Y-117065603D01*
X96198212Y-117311448D01*
X96194047Y-117366155D01*
X96190341Y-117479192D01*
X96190712Y-117530064D01*
X96201914Y-117766402D01*
X96214842Y-117867243D01*
X96263618Y-118098765D01*
X96292473Y-118196252D01*
X96377573Y-118417022D01*
X96421616Y-118508653D01*
X96540858Y-118713012D01*
X96598961Y-118796441D01*
X96749289Y-118979151D01*
X96819959Y-119052234D01*
X96997518Y-119208612D01*
X97078951Y-119269485D01*
X97279192Y-119395521D01*
X97369292Y-119442616D01*
X97587080Y-119535080D01*
X97683542Y-119567192D01*
X97913296Y-119623714D01*
X98013646Y-119640020D01*
X98249475Y-119659151D01*
X98300307Y-119661230D01*
X102020002Y-119664227D01*
X102240693Y-119680640D01*
X102433789Y-119724040D01*
X102618469Y-119795233D01*
X102790731Y-119892677D01*
X102946886Y-120014282D01*
X103115823Y-120191211D01*
X103115826Y-120191208D01*
X103115859Y-120191250D01*
X103317038Y-120401911D01*
X103386234Y-120464450D01*
X103616102Y-120643369D01*
X103693714Y-120695098D01*
X103947311Y-120838414D01*
X104031664Y-120878217D01*
X104303520Y-120982838D01*
X104392795Y-121009854D01*
X104677044Y-121073522D01*
X104769310Y-121087169D01*
X105059819Y-121108512D01*
X105061928Y-121108589D01*
X105061928Y-122575000D01*
X105074188Y-122699482D01*
X105110498Y-122819180D01*
X105169463Y-122929494D01*
X105248815Y-123026185D01*
X105345506Y-123105537D01*
X105455820Y-123164502D01*
X105575518Y-123200812D01*
X105644237Y-123207580D01*
X105565241Y-123260363D01*
X105365363Y-123460241D01*
X105208320Y-123695273D01*
X105100147Y-123956426D01*
X105045000Y-124233665D01*
X105045000Y-124516335D01*
X105100147Y-124793574D01*
X105208320Y-125054727D01*
X105365363Y-125289759D01*
X105565241Y-125489637D01*
X105800273Y-125646680D01*
X105959300Y-125712551D01*
X105767641Y-125791939D01*
X105548987Y-125938038D01*
X105363038Y-126123987D01*
X105216939Y-126342641D01*
X105116304Y-126585595D01*
X105065000Y-126843514D01*
X105065000Y-127106486D01*
X105116304Y-127364405D01*
X105216939Y-127607359D01*
X105363038Y-127826013D01*
X105548987Y-128011962D01*
X105767641Y-128158061D01*
X105919246Y-128220858D01*
X105747641Y-128291939D01*
X105528987Y-128438038D01*
X105343038Y-128623987D01*
X105196939Y-128842641D01*
X105096304Y-129085595D01*
X105045000Y-129343514D01*
X105045000Y-129606486D01*
X105096304Y-129864405D01*
X105196939Y-130107359D01*
X105343038Y-130326013D01*
X105528987Y-130511962D01*
X105747641Y-130658061D01*
X105909246Y-130725000D01*
X105747641Y-130791939D01*
X105528987Y-130938038D01*
X105343038Y-131123987D01*
X105196939Y-131342641D01*
X105096304Y-131585595D01*
X105045000Y-131843514D01*
X105045000Y-132106486D01*
X105096304Y-132364405D01*
X105196939Y-132607359D01*
X105343038Y-132826013D01*
X105528987Y-133011962D01*
X105698161Y-133125000D01*
X105528987Y-133238038D01*
X105343038Y-133423987D01*
X105196939Y-133642641D01*
X105096304Y-133885595D01*
X105045000Y-134143514D01*
X105045000Y-134220198D01*
X103110000Y-132285199D01*
X103110000Y-121537322D01*
X103113676Y-121499999D01*
X103110000Y-121462676D01*
X103110000Y-121462667D01*
X103099003Y-121351014D01*
X103055546Y-121207753D01*
X102984974Y-121075724D01*
X102964840Y-121051191D01*
X102913799Y-120988996D01*
X102913795Y-120988992D01*
X102890001Y-120959999D01*
X102861008Y-120936205D01*
X102073803Y-120149002D01*
X102050001Y-120119999D01*
X101934276Y-120025026D01*
X101802247Y-119954454D01*
X101658986Y-119910997D01*
X101547333Y-119900000D01*
X101547322Y-119900000D01*
X101510000Y-119896324D01*
X101472678Y-119900000D01*
X92474802Y-119900000D01*
X91855982Y-119281181D01*
X91891404Y-119195665D01*
X91960000Y-118850807D01*
X91960000Y-118499193D01*
X91891404Y-118154335D01*
X91756847Y-117829485D01*
X91561500Y-117537129D01*
X91312871Y-117288500D01*
X91133051Y-117168347D01*
X91175248Y-117155547D01*
X91307277Y-117084975D01*
X91423002Y-116990002D01*
X91446805Y-116960998D01*
X95586008Y-112821797D01*
X95615000Y-112798004D01*
X95638794Y-112769011D01*
X95638798Y-112769007D01*
X95709972Y-112682280D01*
X95709973Y-112682279D01*
X95780545Y-112550250D01*
X95824002Y-112406989D01*
X95832910Y-112316544D01*
X97095000Y-112316544D01*
X97095000Y-112583456D01*
X97147072Y-112845239D01*
X97249215Y-113091833D01*
X97397503Y-113313762D01*
X97586238Y-113502497D01*
X97808167Y-113650785D01*
X98054761Y-113752928D01*
X98316544Y-113805000D01*
X98583456Y-113805000D01*
X98845239Y-113752928D01*
X99091833Y-113650785D01*
X99313762Y-113502497D01*
X99502497Y-113313762D01*
X99650785Y-113091833D01*
X99752928Y-112845239D01*
X99805000Y-112583456D01*
X99805000Y-112316544D01*
X99752928Y-112054761D01*
X99650785Y-111808167D01*
X99502497Y-111586238D01*
X99313762Y-111397503D01*
X99091833Y-111249215D01*
X98845239Y-111147072D01*
X98583456Y-111095000D01*
X98316544Y-111095000D01*
X98054761Y-111147072D01*
X97808167Y-111249215D01*
X97586238Y-111397503D01*
X97397503Y-111586238D01*
X97249215Y-111808167D01*
X97147072Y-112054761D01*
X97095000Y-112316544D01*
X95832910Y-112316544D01*
X95834999Y-112295336D01*
X95834999Y-112295327D01*
X95838675Y-112258004D01*
X95834999Y-112220681D01*
X95834999Y-107655804D01*
X99036005Y-104454799D01*
X99065002Y-104431002D01*
X99159975Y-104315277D01*
X99230547Y-104183248D01*
X99274004Y-104039987D01*
X99285001Y-103928334D01*
X99285001Y-103928333D01*
X99288678Y-103891001D01*
X99285001Y-103853668D01*
X99285001Y-87262323D01*
X99288677Y-87225000D01*
X99285001Y-87187677D01*
X99285001Y-87187668D01*
X99274004Y-87076015D01*
X99230547Y-86932754D01*
X99159975Y-86800725D01*
X99065002Y-86685000D01*
X99036004Y-86661202D01*
X98282422Y-85907621D01*
X98305183Y-85879887D01*
X98434904Y-85637195D01*
X98514786Y-85373860D01*
X98541759Y-85100000D01*
X98514786Y-84826140D01*
X98434904Y-84562805D01*
X98305183Y-84320113D01*
X98130608Y-84107392D01*
X97917887Y-83932817D01*
X97675195Y-83803096D01*
X97411860Y-83723214D01*
X97206625Y-83703000D01*
X95593375Y-83703000D01*
X95388140Y-83723214D01*
X95124805Y-83803096D01*
X94882113Y-83932817D01*
X94669392Y-84107392D01*
X94494817Y-84320113D01*
X94365096Y-84562805D01*
X94285214Y-84826140D01*
X94258241Y-85100000D01*
X94285214Y-85373860D01*
X94365096Y-85637195D01*
X94494817Y-85879887D01*
X94669392Y-86092608D01*
X94882113Y-86267183D01*
X95124805Y-86396904D01*
X95388140Y-86476786D01*
X95593375Y-86497000D01*
X96722199Y-86497000D01*
X97765002Y-87539804D01*
X97765002Y-88851099D01*
X97675195Y-88803096D01*
X97411860Y-88723214D01*
X97206625Y-88703000D01*
X95593375Y-88703000D01*
X95388140Y-88723214D01*
X95124805Y-88803096D01*
X94882113Y-88932817D01*
X94669392Y-89107392D01*
X94494817Y-89320113D01*
X94365096Y-89562805D01*
X94285214Y-89826140D01*
X94258241Y-90100000D01*
X94285214Y-90373860D01*
X94365096Y-90637195D01*
X94494817Y-90879887D01*
X94669392Y-91092608D01*
X94882113Y-91267183D01*
X95124805Y-91396904D01*
X95388140Y-91476786D01*
X95593375Y-91497000D01*
X97206625Y-91497000D01*
X97411860Y-91476786D01*
X97675195Y-91396904D01*
X97765002Y-91348902D01*
X97765001Y-101213548D01*
X97579715Y-101028262D01*
X97148141Y-100739893D01*
X96668601Y-100541261D01*
X96159525Y-100440000D01*
X95975775Y-100440000D01*
X95985001Y-100346330D01*
X95985001Y-100346320D01*
X95988677Y-100308997D01*
X95985001Y-100271674D01*
X95985001Y-95524321D01*
X95988677Y-95486998D01*
X95985001Y-95449675D01*
X95985001Y-95449666D01*
X95974004Y-95338013D01*
X95930547Y-95194752D01*
X95859976Y-95062724D01*
X95859975Y-95062722D01*
X95788800Y-94975996D01*
X95765002Y-94946998D01*
X95736005Y-94923201D01*
X91948115Y-91135312D01*
X92500000Y-91138072D01*
X92624482Y-91125812D01*
X92744180Y-91089502D01*
X92854494Y-91030537D01*
X92951185Y-90951185D01*
X93030537Y-90854494D01*
X93089502Y-90744180D01*
X93125812Y-90624482D01*
X93138072Y-90500000D01*
X93135000Y-89885750D01*
X92976250Y-89727000D01*
X91727000Y-89727000D01*
X91727000Y-89747000D01*
X91473000Y-89747000D01*
X91473000Y-89727000D01*
X91453000Y-89727000D01*
X91453000Y-89473000D01*
X91473000Y-89473000D01*
X91473000Y-89453000D01*
X91727000Y-89453000D01*
X91727000Y-89473000D01*
X92976250Y-89473000D01*
X93135000Y-89314250D01*
X93138072Y-88700000D01*
X93125812Y-88575518D01*
X93089502Y-88455820D01*
X93030537Y-88345506D01*
X92951185Y-88248815D01*
X92854494Y-88169463D01*
X92744180Y-88110498D01*
X92725873Y-88104944D01*
X92792312Y-88038505D01*
X92960299Y-87787095D01*
X93076011Y-87507743D01*
X93135000Y-87211184D01*
X93135000Y-86908816D01*
X93076011Y-86612257D01*
X92960299Y-86332905D01*
X92792312Y-86081495D01*
X92578505Y-85867688D01*
X92327095Y-85699701D01*
X92047743Y-85583989D01*
X91751184Y-85525000D01*
X91448816Y-85525000D01*
X91152257Y-85583989D01*
X90872905Y-85699701D01*
X90621495Y-85867688D01*
X90407688Y-86081495D01*
X90239701Y-86332905D01*
X90123989Y-86612257D01*
X90065000Y-86908816D01*
X90065000Y-87211184D01*
X90123989Y-87507743D01*
X90239701Y-87787095D01*
X90407688Y-88038505D01*
X90474127Y-88104944D01*
X90455820Y-88110498D01*
X90345506Y-88169463D01*
X90248815Y-88248815D01*
X90169463Y-88345506D01*
X90110498Y-88455820D01*
X90074188Y-88575518D01*
X90061928Y-88700000D01*
X90065000Y-89314250D01*
X90162377Y-89411627D01*
X90130249Y-89394454D01*
X89986988Y-89350997D01*
X89875335Y-89340000D01*
X89875324Y-89340000D01*
X89838002Y-89336324D01*
X89800680Y-89340000D01*
X88515813Y-89340000D01*
X88505183Y-89320113D01*
X88330608Y-89107392D01*
X88117887Y-88932817D01*
X87875195Y-88803096D01*
X87611860Y-88723214D01*
X87406625Y-88703000D01*
X85793375Y-88703000D01*
X85588140Y-88723214D01*
X85324805Y-88803096D01*
X85299990Y-88816360D01*
X85299990Y-86383640D01*
X85324805Y-86396904D01*
X85588140Y-86476786D01*
X85793375Y-86497000D01*
X87406625Y-86497000D01*
X87611860Y-86476786D01*
X87875195Y-86396904D01*
X88117887Y-86267183D01*
X88330608Y-86092608D01*
X88505183Y-85879887D01*
X88634904Y-85637195D01*
X88714786Y-85373860D01*
X88741759Y-85100000D01*
X88714786Y-84826140D01*
X88634904Y-84562805D01*
X88505183Y-84320113D01*
X88330608Y-84107392D01*
X88117887Y-83932817D01*
X87875195Y-83803096D01*
X87611860Y-83723214D01*
X87406625Y-83703000D01*
X86368578Y-83703000D01*
X87606579Y-82465000D01*
X87821486Y-82465000D01*
X88079405Y-82413696D01*
X88322359Y-82313061D01*
X88541013Y-82166962D01*
X88726962Y-81981013D01*
X88873061Y-81762359D01*
X88973696Y-81519405D01*
X89025000Y-81261486D01*
X89025000Y-80998514D01*
X93975000Y-80998514D01*
X93975000Y-81261486D01*
X94026304Y-81519405D01*
X94126939Y-81762359D01*
X94273038Y-81981013D01*
X94458987Y-82166962D01*
X94677641Y-82313061D01*
X94920595Y-82413696D01*
X95178514Y-82465000D01*
X95441486Y-82465000D01*
X95699405Y-82413696D01*
X95942359Y-82313061D01*
X96161013Y-82166962D01*
X96346962Y-81981013D01*
X96493061Y-81762359D01*
X96593696Y-81519405D01*
X96645000Y-81261486D01*
X96645000Y-80998514D01*
X96593696Y-80740595D01*
X96493061Y-80497641D01*
X96346962Y-80278987D01*
X96161013Y-80093038D01*
X95942359Y-79946939D01*
X95699405Y-79846304D01*
X95441486Y-79795000D01*
X95178514Y-79795000D01*
X94920595Y-79846304D01*
X94677641Y-79946939D01*
X94458987Y-80093038D01*
X94273038Y-80278987D01*
X94126939Y-80497641D01*
X94026304Y-80740595D01*
X93975000Y-80998514D01*
X89025000Y-80998514D01*
X88973696Y-80740595D01*
X88873061Y-80497641D01*
X88726962Y-80278987D01*
X88541013Y-80093038D01*
X88322359Y-79946939D01*
X88079405Y-79846304D01*
X87821486Y-79795000D01*
X87606579Y-79795000D01*
X85234281Y-77422702D01*
X89806903Y-77422702D01*
X89878486Y-77666671D01*
X90133996Y-77787571D01*
X90408184Y-77856300D01*
X90690512Y-77870217D01*
X90970130Y-77828787D01*
X91236292Y-77733603D01*
X91361514Y-77666671D01*
X91433097Y-77422702D01*
X90620000Y-76609605D01*
X89806903Y-77422702D01*
X85234281Y-77422702D01*
X84312091Y-76500512D01*
X89179783Y-76500512D01*
X89221213Y-76780130D01*
X89316397Y-77046292D01*
X89383329Y-77171514D01*
X89627298Y-77243097D01*
X90440395Y-76430000D01*
X90799605Y-76430000D01*
X91612702Y-77243097D01*
X91856671Y-77171514D01*
X91977571Y-76916004D01*
X92046300Y-76641816D01*
X92060217Y-76359488D01*
X92018787Y-76079870D01*
X91923603Y-75813708D01*
X91856671Y-75688486D01*
X91612702Y-75616903D01*
X90799605Y-76430000D01*
X90440395Y-76430000D01*
X89627298Y-75616903D01*
X89383329Y-75688486D01*
X89262429Y-75943996D01*
X89193700Y-76218184D01*
X89179783Y-76500512D01*
X84312091Y-76500512D01*
X83248877Y-75437298D01*
X89806903Y-75437298D01*
X90620000Y-76250395D01*
X91433097Y-75437298D01*
X91361514Y-75193329D01*
X91106004Y-75072429D01*
X90831816Y-75003700D01*
X90549488Y-74989783D01*
X90269870Y-75031213D01*
X90003708Y-75126397D01*
X89878486Y-75193329D01*
X89806903Y-75437298D01*
X83248877Y-75437298D01*
X81645000Y-73833422D01*
X81645000Y-70922975D01*
X81796962Y-70771013D01*
X81943061Y-70552359D01*
X82043696Y-70309405D01*
X82095000Y-70051486D01*
X82095000Y-69788514D01*
X82043696Y-69530595D01*
X81943061Y-69287641D01*
X81796962Y-69068987D01*
X81611013Y-68883038D01*
X81428130Y-68760840D01*
X81582660Y-68666759D01*
X81775351Y-68489670D01*
X81929792Y-68278392D01*
X82040047Y-68041044D01*
X82072716Y-67933329D01*
X81949374Y-67727000D01*
X80907000Y-67727000D01*
X80907000Y-67747000D01*
X80653000Y-67747000D01*
X80653000Y-67727000D01*
X79610626Y-67727000D01*
X79487284Y-67933329D01*
X79519953Y-68041044D01*
X79630208Y-68278392D01*
X79784649Y-68489670D01*
X79977340Y-68666759D01*
X80110941Y-68748098D01*
X79908987Y-68883038D01*
X79723038Y-69068987D01*
X79576939Y-69287641D01*
X79476304Y-69530595D01*
X79425000Y-69788514D01*
X79425000Y-70051486D01*
X79476304Y-70309405D01*
X79576939Y-70552359D01*
X79723038Y-70771013D01*
X79875000Y-70922975D01*
X79875001Y-74156521D01*
X79870719Y-74200000D01*
X79887805Y-74373490D01*
X79938412Y-74540313D01*
X80020590Y-74694059D01*
X80103468Y-74795046D01*
X80103471Y-74795049D01*
X80131184Y-74828817D01*
X80164952Y-74856530D01*
X86355000Y-81046579D01*
X86355000Y-81213421D01*
X83819941Y-83748481D01*
X83786174Y-83776193D01*
X83758461Y-83809961D01*
X83758458Y-83809964D01*
X83675580Y-83910951D01*
X83593402Y-84064697D01*
X83542795Y-84231520D01*
X83525709Y-84405010D01*
X83529991Y-84448489D01*
X83529991Y-96608050D01*
X83464637Y-96510241D01*
X83264759Y-96310363D01*
X83029727Y-96153320D01*
X82768574Y-96045147D01*
X82491335Y-95990000D01*
X82208665Y-95990000D01*
X81931426Y-96045147D01*
X81670273Y-96153320D01*
X81435241Y-96310363D01*
X81235363Y-96510241D01*
X81078320Y-96745273D01*
X80970147Y-97006426D01*
X80915000Y-97283665D01*
X80915000Y-97566335D01*
X80951312Y-97748886D01*
X78588998Y-100111201D01*
X78560000Y-100134999D01*
X78536202Y-100163997D01*
X78536201Y-100163998D01*
X78465026Y-100250724D01*
X78394454Y-100382754D01*
X78350998Y-100526015D01*
X78336324Y-100675000D01*
X78340001Y-100712332D01*
X78340001Y-101437420D01*
X75685000Y-98782420D01*
X75685000Y-95743514D01*
X77765000Y-95743514D01*
X77765000Y-96006486D01*
X77816304Y-96264405D01*
X77916939Y-96507359D01*
X78063038Y-96726013D01*
X78248987Y-96911962D01*
X78467641Y-97058061D01*
X78710595Y-97158696D01*
X78968514Y-97210000D01*
X79231486Y-97210000D01*
X79489405Y-97158696D01*
X79732359Y-97058061D01*
X79951013Y-96911962D01*
X80136962Y-96726013D01*
X80283061Y-96507359D01*
X80383696Y-96264405D01*
X80435000Y-96006486D01*
X80435000Y-95743514D01*
X80383696Y-95485595D01*
X80283061Y-95242641D01*
X80136962Y-95023987D01*
X79951013Y-94838038D01*
X79732359Y-94691939D01*
X79489405Y-94591304D01*
X79231486Y-94540000D01*
X78968514Y-94540000D01*
X78710595Y-94591304D01*
X78467641Y-94691939D01*
X78248987Y-94838038D01*
X78063038Y-95023987D01*
X77916939Y-95242641D01*
X77816304Y-95485595D01*
X77765000Y-95743514D01*
X75685000Y-95743514D01*
X75685000Y-90100000D01*
X77058241Y-90100000D01*
X77085214Y-90373860D01*
X77165096Y-90637195D01*
X77294817Y-90879887D01*
X77469392Y-91092608D01*
X77682113Y-91267183D01*
X77924805Y-91396904D01*
X78188140Y-91476786D01*
X78393375Y-91497000D01*
X80006625Y-91497000D01*
X80211860Y-91476786D01*
X80475195Y-91396904D01*
X80717887Y-91267183D01*
X80930608Y-91092608D01*
X81105183Y-90879887D01*
X81234904Y-90637195D01*
X81314786Y-90373860D01*
X81341759Y-90100000D01*
X81314786Y-89826140D01*
X81234904Y-89562805D01*
X81105183Y-89320113D01*
X80930608Y-89107392D01*
X80717887Y-88932817D01*
X80475195Y-88803096D01*
X80211860Y-88723214D01*
X80006625Y-88703000D01*
X78393375Y-88703000D01*
X78188140Y-88723214D01*
X77924805Y-88803096D01*
X77682113Y-88932817D01*
X77469392Y-89107392D01*
X77294817Y-89320113D01*
X77165096Y-89562805D01*
X77085214Y-89826140D01*
X77058241Y-90100000D01*
X75685000Y-90100000D01*
X75685000Y-82388072D01*
X76550000Y-82388072D01*
X76674482Y-82375812D01*
X76794180Y-82339502D01*
X76904494Y-82280537D01*
X77001185Y-82201185D01*
X77080537Y-82104494D01*
X77139502Y-81994180D01*
X77175812Y-81874482D01*
X77188072Y-81750000D01*
X77188072Y-78250000D01*
X77175812Y-78125518D01*
X77139502Y-78005820D01*
X77080537Y-77895506D01*
X77001185Y-77798815D01*
X76904494Y-77719463D01*
X76794180Y-77660498D01*
X76674482Y-77624188D01*
X76550000Y-77611928D01*
X73050000Y-77611928D01*
X72925518Y-77624188D01*
X72805820Y-77660498D01*
X72695506Y-77719463D01*
X72598815Y-77798815D01*
X72519463Y-77895506D01*
X72478506Y-77972131D01*
X72488072Y-77875000D01*
X72488072Y-76125000D01*
X72458999Y-75829814D01*
X72372896Y-75545972D01*
X72348324Y-75500000D01*
X72411928Y-75500000D01*
X72424188Y-75624482D01*
X72460498Y-75744180D01*
X72519463Y-75854494D01*
X72598815Y-75951185D01*
X72695506Y-76030537D01*
X72805820Y-76089502D01*
X72925518Y-76125812D01*
X73050000Y-76138072D01*
X74514250Y-76135000D01*
X74673000Y-75976250D01*
X74673000Y-74127000D01*
X74927000Y-74127000D01*
X74927000Y-75976250D01*
X75085750Y-76135000D01*
X76550000Y-76138072D01*
X76674482Y-76125812D01*
X76794180Y-76089502D01*
X76904494Y-76030537D01*
X77001185Y-75951185D01*
X77080537Y-75854494D01*
X77139502Y-75744180D01*
X77175812Y-75624482D01*
X77188072Y-75500000D01*
X77185000Y-74285750D01*
X77026250Y-74127000D01*
X74927000Y-74127000D01*
X74673000Y-74127000D01*
X72573750Y-74127000D01*
X72415000Y-74285750D01*
X72411928Y-75500000D01*
X72348324Y-75500000D01*
X72233073Y-75284382D01*
X72044903Y-75055097D01*
X71815618Y-74866927D01*
X71554028Y-74727104D01*
X71270186Y-74641001D01*
X70975000Y-74611928D01*
X69225000Y-74611928D01*
X68929814Y-74641001D01*
X68645972Y-74727104D01*
X68384382Y-74866927D01*
X68155097Y-75055097D01*
X67966927Y-75284382D01*
X67827104Y-75545972D01*
X67741001Y-75829814D01*
X67711928Y-76125000D01*
X67711928Y-77875000D01*
X67741001Y-78170186D01*
X67827104Y-78454028D01*
X67966927Y-78715618D01*
X68155097Y-78944903D01*
X68384382Y-79133073D01*
X68645972Y-79272896D01*
X68929814Y-79358999D01*
X69225000Y-79388072D01*
X70975000Y-79388072D01*
X71270186Y-79358999D01*
X71554028Y-79272896D01*
X71815618Y-79133073D01*
X72044903Y-78944903D01*
X72233073Y-78715618D01*
X72372896Y-78454028D01*
X72411928Y-78325357D01*
X72411928Y-81750000D01*
X72424188Y-81874482D01*
X72460498Y-81994180D01*
X72519463Y-82104494D01*
X72598815Y-82201185D01*
X72695506Y-82280537D01*
X72805820Y-82339502D01*
X72925518Y-82375812D01*
X73050000Y-82388072D01*
X73915000Y-82388072D01*
X73915001Y-94709691D01*
X73647743Y-94598989D01*
X73351184Y-94540000D01*
X73048816Y-94540000D01*
X72752257Y-94598989D01*
X72472905Y-94714701D01*
X72221495Y-94882688D01*
X72007688Y-95096495D01*
X71950000Y-95182831D01*
X71892312Y-95096495D01*
X71678505Y-94882688D01*
X71427095Y-94714701D01*
X71147743Y-94598989D01*
X70851184Y-94540000D01*
X70548816Y-94540000D01*
X70252257Y-94598989D01*
X69972905Y-94714701D01*
X69721495Y-94882688D01*
X69507688Y-95096495D01*
X69450000Y-95182831D01*
X69392312Y-95096495D01*
X69178505Y-94882688D01*
X68927095Y-94714701D01*
X68647743Y-94598989D01*
X68351184Y-94540000D01*
X68048816Y-94540000D01*
X67752257Y-94598989D01*
X67472905Y-94714701D01*
X67221495Y-94882688D01*
X67007688Y-95096495D01*
X66839701Y-95347905D01*
X66723989Y-95627257D01*
X66665000Y-95923816D01*
X66665000Y-96226184D01*
X66723989Y-96522743D01*
X66839701Y-96802095D01*
X67007688Y-97053505D01*
X67221495Y-97267312D01*
X67472905Y-97435299D01*
X67752257Y-97551011D01*
X68048816Y-97610000D01*
X68339999Y-97610000D01*
X68339999Y-101388546D01*
X67979715Y-101028262D01*
X67548141Y-100739893D01*
X67068601Y-100541261D01*
X66559525Y-100440000D01*
X66040475Y-100440000D01*
X65531399Y-100541261D01*
X65051859Y-100739893D01*
X64660000Y-101001725D01*
X64660000Y-87943070D01*
X69607780Y-87943070D01*
X69622738Y-88017276D01*
X69729878Y-88270535D01*
X69884368Y-88498026D01*
X70080271Y-88691006D01*
X70310058Y-88842059D01*
X70564899Y-88945381D01*
X70835000Y-88997000D01*
X71573000Y-88997000D01*
X71573000Y-87727000D01*
X71827000Y-87727000D01*
X71827000Y-88997000D01*
X72565000Y-88997000D01*
X72835101Y-88945381D01*
X73089942Y-88842059D01*
X73319729Y-88691006D01*
X73515632Y-88498026D01*
X73670122Y-88270535D01*
X73777262Y-88017276D01*
X73792220Y-87943070D01*
X73669720Y-87727000D01*
X71827000Y-87727000D01*
X71573000Y-87727000D01*
X69730280Y-87727000D01*
X69607780Y-87943070D01*
X64660000Y-87943070D01*
X64660000Y-87256930D01*
X69607780Y-87256930D01*
X69730280Y-87473000D01*
X71573000Y-87473000D01*
X71573000Y-86203000D01*
X71827000Y-86203000D01*
X71827000Y-87473000D01*
X73669720Y-87473000D01*
X73792220Y-87256930D01*
X73777262Y-87182724D01*
X73670122Y-86929465D01*
X73515632Y-86701974D01*
X73319729Y-86508994D01*
X73089942Y-86357941D01*
X72835101Y-86254619D01*
X72565000Y-86203000D01*
X71827000Y-86203000D01*
X71573000Y-86203000D01*
X70835000Y-86203000D01*
X70564899Y-86254619D01*
X70310058Y-86357941D01*
X70080271Y-86508994D01*
X69884368Y-86701974D01*
X69729878Y-86929465D01*
X69622738Y-87182724D01*
X69607780Y-87256930D01*
X64660000Y-87256930D01*
X64660000Y-73837104D01*
X64786123Y-73963227D01*
X65044052Y-74135570D01*
X65330648Y-74254282D01*
X65634896Y-74314800D01*
X65945104Y-74314800D01*
X66249352Y-74254282D01*
X66535948Y-74135570D01*
X66793877Y-73963227D01*
X67013227Y-73743877D01*
X67060000Y-73673876D01*
X67106773Y-73743877D01*
X67326123Y-73963227D01*
X67584052Y-74135570D01*
X67870648Y-74254282D01*
X68174896Y-74314800D01*
X68485104Y-74314800D01*
X68789352Y-74254282D01*
X69075948Y-74135570D01*
X69333877Y-73963227D01*
X69553227Y-73743877D01*
X69725570Y-73485948D01*
X69844282Y-73199352D01*
X69904800Y-72895104D01*
X69904800Y-72584896D01*
X69887914Y-72500000D01*
X72411928Y-72500000D01*
X72415000Y-73714250D01*
X72573750Y-73873000D01*
X74673000Y-73873000D01*
X74673000Y-72023750D01*
X74927000Y-72023750D01*
X74927000Y-73873000D01*
X77026250Y-73873000D01*
X77185000Y-73714250D01*
X77188072Y-72500000D01*
X77175812Y-72375518D01*
X77139502Y-72255820D01*
X77080537Y-72145506D01*
X77001185Y-72048815D01*
X76904494Y-71969463D01*
X76794180Y-71910498D01*
X76674482Y-71874188D01*
X76550000Y-71861928D01*
X75085750Y-71865000D01*
X74927000Y-72023750D01*
X74673000Y-72023750D01*
X74514250Y-71865000D01*
X73050000Y-71861928D01*
X72925518Y-71874188D01*
X72805820Y-71910498D01*
X72695506Y-71969463D01*
X72598815Y-72048815D01*
X72519463Y-72145506D01*
X72460498Y-72255820D01*
X72424188Y-72375518D01*
X72411928Y-72500000D01*
X69887914Y-72500000D01*
X69844282Y-72280648D01*
X69725570Y-71994052D01*
X69553227Y-71736123D01*
X69333877Y-71516773D01*
X69075948Y-71344430D01*
X68789352Y-71225718D01*
X68485104Y-71165200D01*
X68174896Y-71165200D01*
X67870648Y-71225718D01*
X67584052Y-71344430D01*
X67326123Y-71516773D01*
X67106773Y-71736123D01*
X67060000Y-71806124D01*
X67013227Y-71736123D01*
X66793877Y-71516773D01*
X66535948Y-71344430D01*
X66249352Y-71225718D01*
X65945104Y-71165200D01*
X65634896Y-71165200D01*
X65330648Y-71225718D01*
X65044052Y-71344430D01*
X64786123Y-71516773D01*
X64660000Y-71642896D01*
X64660000Y-66660000D01*
X79839413Y-66660000D01*
X79784649Y-66710330D01*
%TA.AperFunction,Conductor*%
D31*
G36*
X79784649Y-66710330D02*
G01*
X79630208Y-66921608D01*
X79519953Y-67158956D01*
X79487284Y-67266671D01*
X79610626Y-67473000D01*
X80653000Y-67473000D01*
X80653000Y-67453000D01*
X80907000Y-67453000D01*
X80907000Y-67473000D01*
X81949374Y-67473000D01*
X82072716Y-67266671D01*
X82040047Y-67158956D01*
X81929792Y-66921608D01*
X81775351Y-66710330D01*
X81720587Y-66660000D01*
X84918236Y-66660000D01*
X84888015Y-66747869D01*
X84865782Y-66830070D01*
X84806355Y-67127737D01*
X84795320Y-67212172D01*
X84776254Y-67515115D01*
X84775006Y-67557696D01*
X84776688Y-67953827D01*
X84777505Y-67983451D01*
X84801253Y-68449424D01*
X84807027Y-68508399D01*
X84874108Y-68970130D01*
X84885354Y-69028307D01*
X84995181Y-69481774D01*
X85011801Y-69538651D01*
X85163420Y-69979907D01*
X85185269Y-70034988D01*
X85377359Y-70460189D01*
X85404248Y-70512992D01*
X85635137Y-70918437D01*
X85666830Y-70968504D01*
X85934506Y-71350661D01*
X85970728Y-71397556D01*
X86272861Y-71753098D01*
X86292574Y-71775227D01*
X87206722Y-72754450D01*
X87224611Y-72772853D01*
X87512072Y-73056849D01*
X87550007Y-73091412D01*
X87859462Y-73351267D01*
X87900064Y-73382653D01*
X88229492Y-73616671D01*
X88272497Y-73644677D01*
X88619747Y-73851328D01*
X88664871Y-73875769D01*
X89027674Y-74053705D01*
X89050941Y-74064538D01*
X91061349Y-74951637D01*
X91441060Y-75140935D01*
X91788687Y-75357093D01*
X92114525Y-75604863D01*
X92426704Y-75892185D01*
X98653693Y-82187754D01*
X98916946Y-82478045D01*
X99145742Y-82779051D01*
X99347625Y-83098728D01*
X99521085Y-83434681D01*
X99664820Y-83784393D01*
X99777745Y-84145227D01*
X99859018Y-84514477D01*
X99908027Y-84889381D01*
X99925000Y-85280876D01*
X99925000Y-86531382D01*
X99925634Y-86559755D01*
X99945598Y-87006118D01*
X99950664Y-87062635D01*
X100010396Y-87505434D01*
X100020487Y-87561275D01*
X100119511Y-87996974D01*
X100134547Y-88051691D01*
X100272071Y-88476809D01*
X100291931Y-88529963D01*
X100466857Y-88941108D01*
X100491384Y-88992280D01*
X100702316Y-89386166D01*
X100731313Y-89434944D01*
X100976567Y-89808427D01*
X101009801Y-89854418D01*
X101287416Y-90204516D01*
X101324626Y-90247360D01*
X101632388Y-90571276D01*
X101673272Y-90610625D01*
X102008721Y-90905773D01*
X102030441Y-90924039D01*
X102569233Y-91356965D01*
X102873225Y-91624478D01*
X103142254Y-91907762D01*
X103384889Y-92213991D01*
X103599156Y-92540678D01*
X103783354Y-92885227D01*
X103936000Y-93244863D01*
X104055875Y-93616713D01*
X104142011Y-93997782D01*
X104193727Y-94385047D01*
X104211217Y-94789581D01*
X104198819Y-102703317D01*
X104199351Y-102730330D01*
X104216780Y-103155353D01*
X104221288Y-103209188D01*
X104274781Y-103631191D01*
X104283848Y-103684448D01*
X104373017Y-104100378D01*
X104386578Y-104152671D01*
X104510777Y-104559515D01*
X104528734Y-104610467D01*
X104687066Y-105005283D01*
X104709289Y-105054523D01*
X104900606Y-105434452D01*
X104926934Y-105481626D01*
X105149853Y-105843918D01*
X105180095Y-105888683D01*
X105433001Y-106230716D01*
X105466939Y-106272749D01*
X105748003Y-106592047D01*
X105766282Y-106611942D01*
X106741463Y-107629067D01*
X106995248Y-107917325D01*
X107215636Y-108215217D01*
X107409954Y-108530718D01*
X107576812Y-108861574D01*
X107715005Y-109205392D01*
X107823534Y-109559689D01*
X107901620Y-109921924D01*
X107948696Y-110289456D01*
X107965000Y-110673176D01*
X107965000Y-116593810D01*
X107954013Y-116705363D01*
X107930573Y-116782636D01*
X107892505Y-116853856D01*
X107841277Y-116916277D01*
X107792419Y-116956374D01*
X107859853Y-116793574D01*
X107915000Y-116516335D01*
X107915000Y-116233665D01*
X107859853Y-115956426D01*
X107751680Y-115695273D01*
X107594637Y-115460241D01*
X107394759Y-115260363D01*
X107320902Y-115211013D01*
X107424482Y-115200812D01*
X107544180Y-115164502D01*
X107654494Y-115105537D01*
X107751185Y-115026185D01*
X107830537Y-114929494D01*
X107889502Y-114819180D01*
X107925812Y-114699482D01*
X107938072Y-114575000D01*
X107938072Y-112975000D01*
X107925812Y-112850518D01*
X107889502Y-112730820D01*
X107830537Y-112620506D01*
X107751185Y-112523815D01*
X107654494Y-112444463D01*
X107544180Y-112385498D01*
X107424482Y-112349188D01*
X107300000Y-112336928D01*
X105700000Y-112336928D01*
X105575518Y-112349188D01*
X105455820Y-112385498D01*
X105345506Y-112444463D01*
X105248815Y-112523815D01*
X105169463Y-112620506D01*
X105110498Y-112730820D01*
X105074188Y-112850518D01*
X105061928Y-112975000D01*
X105061928Y-114575000D01*
X105074188Y-114699482D01*
X105110498Y-114819180D01*
X105169463Y-114929494D01*
X105248815Y-115026185D01*
X105345506Y-115105537D01*
X105455820Y-115164502D01*
X105575518Y-115200812D01*
X105644237Y-115207580D01*
X105565241Y-115260363D01*
X105365363Y-115460241D01*
X105208320Y-115695273D01*
X105100147Y-115956426D01*
X105045000Y-116233665D01*
X105045000Y-116516335D01*
X105076808Y-116676241D01*
X100387251Y-115538333D01*
X100353047Y-115531024D01*
X99811642Y-115430849D01*
X99742287Y-115421932D01*
X99193151Y-115381893D01*
X99158211Y-115380311D01*
X98298737Y-115365099D01*
X98243889Y-115366499D01*
X97996872Y-115383504D01*
X97888563Y-115400446D01*
X97648153Y-115459683D01*
X97544369Y-115495002D01*
X97317730Y-115594707D01*
X97221568Y-115647349D01*
X97015455Y-115784550D01*
X97001068Y-115796036D01*
X97110785Y-115631833D01*
X97212928Y-115385239D01*
X97265000Y-115123456D01*
X97265000Y-114856544D01*
X97212928Y-114594761D01*
X97110785Y-114348167D01*
X96962497Y-114126238D01*
X96773762Y-113937503D01*
X96551833Y-113789215D01*
X96305239Y-113687072D01*
X96043456Y-113635000D01*
X95776544Y-113635000D01*
X95514761Y-113687072D01*
X95268167Y-113789215D01*
X95046238Y-113937503D01*
X94857503Y-114126238D01*
X94709215Y-114348167D01*
X94607072Y-114594761D01*
X94555000Y-114856544D01*
X94555000Y-115123456D01*
X94607072Y-115385239D01*
X94709215Y-115631833D01*
X94857503Y-115853762D01*
X95046238Y-116042497D01*
X95268167Y-116190785D01*
X95514761Y-116292928D01*
X95776544Y-116345000D01*
X96043456Y-116345000D01*
X96305239Y-116292928D01*
X96551833Y-116190785D01*
X96676223Y-116107671D01*
X96530282Y-116304597D01*
X96472856Y-116397978D01*
X96361843Y-116619299D01*
X96321333Y-116721169D01*
X96250042Y-116958284D01*
X96227657Y-117065603D01*
X96198212Y-117311448D01*
X96194047Y-117366155D01*
X96190341Y-117479192D01*
X96190712Y-117530064D01*
X96201914Y-117766402D01*
X96214842Y-117867243D01*
X96263618Y-118098765D01*
X96292473Y-118196252D01*
X96377573Y-118417022D01*
X96421616Y-118508653D01*
X96540858Y-118713012D01*
X96598961Y-118796441D01*
X96749289Y-118979151D01*
X96819959Y-119052234D01*
X96997518Y-119208612D01*
X97078951Y-119269485D01*
X97279192Y-119395521D01*
X97369292Y-119442616D01*
X97587080Y-119535080D01*
X97683542Y-119567192D01*
X97913296Y-119623714D01*
X98013646Y-119640020D01*
X98249475Y-119659151D01*
X98300307Y-119661230D01*
X102020002Y-119664227D01*
X102240693Y-119680640D01*
X102433789Y-119724040D01*
X102618469Y-119795233D01*
X102790731Y-119892677D01*
X102946886Y-120014282D01*
X103115823Y-120191211D01*
X103115826Y-120191208D01*
X103115859Y-120191250D01*
X103317038Y-120401911D01*
X103386234Y-120464450D01*
X103616102Y-120643369D01*
X103693714Y-120695098D01*
X103947311Y-120838414D01*
X104031664Y-120878217D01*
X104303520Y-120982838D01*
X104392795Y-121009854D01*
X104677044Y-121073522D01*
X104769310Y-121087169D01*
X105059819Y-121108512D01*
X105061928Y-121108589D01*
X105061928Y-122575000D01*
X105074188Y-122699482D01*
X105110498Y-122819180D01*
X105169463Y-122929494D01*
X105248815Y-123026185D01*
X105345506Y-123105537D01*
X105455820Y-123164502D01*
X105575518Y-123200812D01*
X105644237Y-123207580D01*
X105565241Y-123260363D01*
X105365363Y-123460241D01*
X105208320Y-123695273D01*
X105100147Y-123956426D01*
X105045000Y-124233665D01*
X105045000Y-124516335D01*
X105100147Y-124793574D01*
X105208320Y-125054727D01*
X105365363Y-125289759D01*
X105565241Y-125489637D01*
X105800273Y-125646680D01*
X105959300Y-125712551D01*
X105767641Y-125791939D01*
X105548987Y-125938038D01*
X105363038Y-126123987D01*
X105216939Y-126342641D01*
X105116304Y-126585595D01*
X105065000Y-126843514D01*
X105065000Y-127106486D01*
X105116304Y-127364405D01*
X105216939Y-127607359D01*
X105363038Y-127826013D01*
X105548987Y-128011962D01*
X105767641Y-128158061D01*
X105919246Y-128220858D01*
X105747641Y-128291939D01*
X105528987Y-128438038D01*
X105343038Y-128623987D01*
X105196939Y-128842641D01*
X105096304Y-129085595D01*
X105045000Y-129343514D01*
X105045000Y-129606486D01*
X105096304Y-129864405D01*
X105196939Y-130107359D01*
X105343038Y-130326013D01*
X105528987Y-130511962D01*
X105747641Y-130658061D01*
X105909246Y-130725000D01*
X105747641Y-130791939D01*
X105528987Y-130938038D01*
X105343038Y-131123987D01*
X105196939Y-131342641D01*
X105096304Y-131585595D01*
X105045000Y-131843514D01*
X105045000Y-132106486D01*
X105096304Y-132364405D01*
X105196939Y-132607359D01*
X105343038Y-132826013D01*
X105528987Y-133011962D01*
X105698161Y-133125000D01*
X105528987Y-133238038D01*
X105343038Y-133423987D01*
X105196939Y-133642641D01*
X105096304Y-133885595D01*
X105045000Y-134143514D01*
X105045000Y-134220198D01*
X103110000Y-132285199D01*
X103110000Y-121537322D01*
X103113676Y-121499999D01*
X103110000Y-121462676D01*
X103110000Y-121462667D01*
X103099003Y-121351014D01*
X103055546Y-121207753D01*
X102984974Y-121075724D01*
X102964840Y-121051191D01*
X102913799Y-120988996D01*
X102913795Y-120988992D01*
X102890001Y-120959999D01*
X102861008Y-120936205D01*
X102073803Y-120149002D01*
X102050001Y-120119999D01*
X101934276Y-120025026D01*
X101802247Y-119954454D01*
X101658986Y-119910997D01*
X101547333Y-119900000D01*
X101547322Y-119900000D01*
X101510000Y-119896324D01*
X101472678Y-119900000D01*
X92474802Y-119900000D01*
X91855982Y-119281181D01*
X91891404Y-119195665D01*
X91960000Y-118850807D01*
X91960000Y-118499193D01*
X91891404Y-118154335D01*
X91756847Y-117829485D01*
X91561500Y-117537129D01*
X91312871Y-117288500D01*
X91133051Y-117168347D01*
X91175248Y-117155547D01*
X91307277Y-117084975D01*
X91423002Y-116990002D01*
X91446805Y-116960998D01*
X95586008Y-112821797D01*
X95615000Y-112798004D01*
X95638794Y-112769011D01*
X95638798Y-112769007D01*
X95709972Y-112682280D01*
X95709973Y-112682279D01*
X95780545Y-112550250D01*
X95824002Y-112406989D01*
X95832910Y-112316544D01*
X97095000Y-112316544D01*
X97095000Y-112583456D01*
X97147072Y-112845239D01*
X97249215Y-113091833D01*
X97397503Y-113313762D01*
X97586238Y-113502497D01*
X97808167Y-113650785D01*
X98054761Y-113752928D01*
X98316544Y-113805000D01*
X98583456Y-113805000D01*
X98845239Y-113752928D01*
X99091833Y-113650785D01*
X99313762Y-113502497D01*
X99502497Y-113313762D01*
X99650785Y-113091833D01*
X99752928Y-112845239D01*
X99805000Y-112583456D01*
X99805000Y-112316544D01*
X99752928Y-112054761D01*
X99650785Y-111808167D01*
X99502497Y-111586238D01*
X99313762Y-111397503D01*
X99091833Y-111249215D01*
X98845239Y-111147072D01*
X98583456Y-111095000D01*
X98316544Y-111095000D01*
X98054761Y-111147072D01*
X97808167Y-111249215D01*
X97586238Y-111397503D01*
X97397503Y-111586238D01*
X97249215Y-111808167D01*
X97147072Y-112054761D01*
X97095000Y-112316544D01*
X95832910Y-112316544D01*
X95834999Y-112295336D01*
X95834999Y-112295327D01*
X95838675Y-112258004D01*
X95834999Y-112220681D01*
X95834999Y-107655804D01*
X99036005Y-104454799D01*
X99065002Y-104431002D01*
X99159975Y-104315277D01*
X99230547Y-104183248D01*
X99274004Y-104039987D01*
X99285001Y-103928334D01*
X99285001Y-103928333D01*
X99288678Y-103891001D01*
X99285001Y-103853668D01*
X99285001Y-87262323D01*
X99288677Y-87225000D01*
X99285001Y-87187677D01*
X99285001Y-87187668D01*
X99274004Y-87076015D01*
X99230547Y-86932754D01*
X99159975Y-86800725D01*
X99065002Y-86685000D01*
X99036004Y-86661202D01*
X98282422Y-85907621D01*
X98305183Y-85879887D01*
X98434904Y-85637195D01*
X98514786Y-85373860D01*
X98541759Y-85100000D01*
X98514786Y-84826140D01*
X98434904Y-84562805D01*
X98305183Y-84320113D01*
X98130608Y-84107392D01*
X97917887Y-83932817D01*
X97675195Y-83803096D01*
X97411860Y-83723214D01*
X97206625Y-83703000D01*
X95593375Y-83703000D01*
X95388140Y-83723214D01*
X95124805Y-83803096D01*
X94882113Y-83932817D01*
X94669392Y-84107392D01*
X94494817Y-84320113D01*
X94365096Y-84562805D01*
X94285214Y-84826140D01*
X94258241Y-85100000D01*
X94285214Y-85373860D01*
X94365096Y-85637195D01*
X94494817Y-85879887D01*
X94669392Y-86092608D01*
X94882113Y-86267183D01*
X95124805Y-86396904D01*
X95388140Y-86476786D01*
X95593375Y-86497000D01*
X96722199Y-86497000D01*
X97765002Y-87539804D01*
X97765002Y-88851099D01*
X97675195Y-88803096D01*
X97411860Y-88723214D01*
X97206625Y-88703000D01*
X95593375Y-88703000D01*
X95388140Y-88723214D01*
X95124805Y-88803096D01*
X94882113Y-88932817D01*
X94669392Y-89107392D01*
X94494817Y-89320113D01*
X94365096Y-89562805D01*
X94285214Y-89826140D01*
X94258241Y-90100000D01*
X94285214Y-90373860D01*
X94365096Y-90637195D01*
X94494817Y-90879887D01*
X94669392Y-91092608D01*
X94882113Y-91267183D01*
X95124805Y-91396904D01*
X95388140Y-91476786D01*
X95593375Y-91497000D01*
X97206625Y-91497000D01*
X97411860Y-91476786D01*
X97675195Y-91396904D01*
X97765002Y-91348902D01*
X97765001Y-101213548D01*
X97579715Y-101028262D01*
X97148141Y-100739893D01*
X96668601Y-100541261D01*
X96159525Y-100440000D01*
X95975775Y-100440000D01*
X95985001Y-100346330D01*
X95985001Y-100346320D01*
X95988677Y-100308997D01*
X95985001Y-100271674D01*
X95985001Y-95524321D01*
X95988677Y-95486998D01*
X95985001Y-95449675D01*
X95985001Y-95449666D01*
X95974004Y-95338013D01*
X95930547Y-95194752D01*
X95859976Y-95062724D01*
X95859975Y-95062722D01*
X95788800Y-94975996D01*
X95765002Y-94946998D01*
X95736005Y-94923201D01*
X91948115Y-91135312D01*
X92500000Y-91138072D01*
X92624482Y-91125812D01*
X92744180Y-91089502D01*
X92854494Y-91030537D01*
X92951185Y-90951185D01*
X93030537Y-90854494D01*
X93089502Y-90744180D01*
X93125812Y-90624482D01*
X93138072Y-90500000D01*
X93135000Y-89885750D01*
X92976250Y-89727000D01*
X91727000Y-89727000D01*
X91727000Y-89747000D01*
X91473000Y-89747000D01*
X91473000Y-89727000D01*
X91453000Y-89727000D01*
X91453000Y-89473000D01*
X91473000Y-89473000D01*
X91473000Y-89453000D01*
X91727000Y-89453000D01*
X91727000Y-89473000D01*
X92976250Y-89473000D01*
X93135000Y-89314250D01*
X93138072Y-88700000D01*
X93125812Y-88575518D01*
X93089502Y-88455820D01*
X93030537Y-88345506D01*
X92951185Y-88248815D01*
X92854494Y-88169463D01*
X92744180Y-88110498D01*
X92725873Y-88104944D01*
X92792312Y-88038505D01*
X92960299Y-87787095D01*
X93076011Y-87507743D01*
X93135000Y-87211184D01*
X93135000Y-86908816D01*
X93076011Y-86612257D01*
X92960299Y-86332905D01*
X92792312Y-86081495D01*
X92578505Y-85867688D01*
X92327095Y-85699701D01*
X92047743Y-85583989D01*
X91751184Y-85525000D01*
X91448816Y-85525000D01*
X91152257Y-85583989D01*
X90872905Y-85699701D01*
X90621495Y-85867688D01*
X90407688Y-86081495D01*
X90239701Y-86332905D01*
X90123989Y-86612257D01*
X90065000Y-86908816D01*
X90065000Y-87211184D01*
X90123989Y-87507743D01*
X90239701Y-87787095D01*
X90407688Y-88038505D01*
X90474127Y-88104944D01*
X90455820Y-88110498D01*
X90345506Y-88169463D01*
X90248815Y-88248815D01*
X90169463Y-88345506D01*
X90110498Y-88455820D01*
X90074188Y-88575518D01*
X90061928Y-88700000D01*
X90065000Y-89314250D01*
X90162377Y-89411627D01*
X90130249Y-89394454D01*
X89986988Y-89350997D01*
X89875335Y-89340000D01*
X89875324Y-89340000D01*
X89838002Y-89336324D01*
X89800680Y-89340000D01*
X88515813Y-89340000D01*
X88505183Y-89320113D01*
X88330608Y-89107392D01*
X88117887Y-88932817D01*
X87875195Y-88803096D01*
X87611860Y-88723214D01*
X87406625Y-88703000D01*
X85793375Y-88703000D01*
X85588140Y-88723214D01*
X85324805Y-88803096D01*
X85299990Y-88816360D01*
X85299990Y-86383640D01*
X85324805Y-86396904D01*
X85588140Y-86476786D01*
X85793375Y-86497000D01*
X87406625Y-86497000D01*
X87611860Y-86476786D01*
X87875195Y-86396904D01*
X88117887Y-86267183D01*
X88330608Y-86092608D01*
X88505183Y-85879887D01*
X88634904Y-85637195D01*
X88714786Y-85373860D01*
X88741759Y-85100000D01*
X88714786Y-84826140D01*
X88634904Y-84562805D01*
X88505183Y-84320113D01*
X88330608Y-84107392D01*
X88117887Y-83932817D01*
X87875195Y-83803096D01*
X87611860Y-83723214D01*
X87406625Y-83703000D01*
X86368578Y-83703000D01*
X87606579Y-82465000D01*
X87821486Y-82465000D01*
X88079405Y-82413696D01*
X88322359Y-82313061D01*
X88541013Y-82166962D01*
X88726962Y-81981013D01*
X88873061Y-81762359D01*
X88973696Y-81519405D01*
X89025000Y-81261486D01*
X89025000Y-80998514D01*
X93975000Y-80998514D01*
X93975000Y-81261486D01*
X94026304Y-81519405D01*
X94126939Y-81762359D01*
X94273038Y-81981013D01*
X94458987Y-82166962D01*
X94677641Y-82313061D01*
X94920595Y-82413696D01*
X95178514Y-82465000D01*
X95441486Y-82465000D01*
X95699405Y-82413696D01*
X95942359Y-82313061D01*
X96161013Y-82166962D01*
X96346962Y-81981013D01*
X96493061Y-81762359D01*
X96593696Y-81519405D01*
X96645000Y-81261486D01*
X96645000Y-80998514D01*
X96593696Y-80740595D01*
X96493061Y-80497641D01*
X96346962Y-80278987D01*
X96161013Y-80093038D01*
X95942359Y-79946939D01*
X95699405Y-79846304D01*
X95441486Y-79795000D01*
X95178514Y-79795000D01*
X94920595Y-79846304D01*
X94677641Y-79946939D01*
X94458987Y-80093038D01*
X94273038Y-80278987D01*
X94126939Y-80497641D01*
X94026304Y-80740595D01*
X93975000Y-80998514D01*
X89025000Y-80998514D01*
X88973696Y-80740595D01*
X88873061Y-80497641D01*
X88726962Y-80278987D01*
X88541013Y-80093038D01*
X88322359Y-79946939D01*
X88079405Y-79846304D01*
X87821486Y-79795000D01*
X87606579Y-79795000D01*
X85234281Y-77422702D01*
X89806903Y-77422702D01*
X89878486Y-77666671D01*
X90133996Y-77787571D01*
X90408184Y-77856300D01*
X90690512Y-77870217D01*
X90970130Y-77828787D01*
X91236292Y-77733603D01*
X91361514Y-77666671D01*
X91433097Y-77422702D01*
X90620000Y-76609605D01*
X89806903Y-77422702D01*
X85234281Y-77422702D01*
X84312091Y-76500512D01*
X89179783Y-76500512D01*
X89221213Y-76780130D01*
X89316397Y-77046292D01*
X89383329Y-77171514D01*
X89627298Y-77243097D01*
X90440395Y-76430000D01*
X90799605Y-76430000D01*
X91612702Y-77243097D01*
X91856671Y-77171514D01*
X91977571Y-76916004D01*
X92046300Y-76641816D01*
X92060217Y-76359488D01*
X92018787Y-76079870D01*
X91923603Y-75813708D01*
X91856671Y-75688486D01*
X91612702Y-75616903D01*
X90799605Y-76430000D01*
X90440395Y-76430000D01*
X89627298Y-75616903D01*
X89383329Y-75688486D01*
X89262429Y-75943996D01*
X89193700Y-76218184D01*
X89179783Y-76500512D01*
X84312091Y-76500512D01*
X83248877Y-75437298D01*
X89806903Y-75437298D01*
X90620000Y-76250395D01*
X91433097Y-75437298D01*
X91361514Y-75193329D01*
X91106004Y-75072429D01*
X90831816Y-75003700D01*
X90549488Y-74989783D01*
X90269870Y-75031213D01*
X90003708Y-75126397D01*
X89878486Y-75193329D01*
X89806903Y-75437298D01*
X83248877Y-75437298D01*
X81645000Y-73833422D01*
X81645000Y-70922975D01*
X81796962Y-70771013D01*
X81943061Y-70552359D01*
X82043696Y-70309405D01*
X82095000Y-70051486D01*
X82095000Y-69788514D01*
X82043696Y-69530595D01*
X81943061Y-69287641D01*
X81796962Y-69068987D01*
X81611013Y-68883038D01*
X81428130Y-68760840D01*
X81582660Y-68666759D01*
X81775351Y-68489670D01*
X81929792Y-68278392D01*
X82040047Y-68041044D01*
X82072716Y-67933329D01*
X81949374Y-67727000D01*
X80907000Y-67727000D01*
X80907000Y-67747000D01*
X80653000Y-67747000D01*
X80653000Y-67727000D01*
X79610626Y-67727000D01*
X79487284Y-67933329D01*
X79519953Y-68041044D01*
X79630208Y-68278392D01*
X79784649Y-68489670D01*
X79977340Y-68666759D01*
X80110941Y-68748098D01*
X79908987Y-68883038D01*
X79723038Y-69068987D01*
X79576939Y-69287641D01*
X79476304Y-69530595D01*
X79425000Y-69788514D01*
X79425000Y-70051486D01*
X79476304Y-70309405D01*
X79576939Y-70552359D01*
X79723038Y-70771013D01*
X79875000Y-70922975D01*
X79875001Y-74156521D01*
X79870719Y-74200000D01*
X79887805Y-74373490D01*
X79938412Y-74540313D01*
X80020590Y-74694059D01*
X80103468Y-74795046D01*
X80103471Y-74795049D01*
X80131184Y-74828817D01*
X80164952Y-74856530D01*
X86355000Y-81046579D01*
X86355000Y-81213421D01*
X83819941Y-83748481D01*
X83786174Y-83776193D01*
X83758461Y-83809961D01*
X83758458Y-83809964D01*
X83675580Y-83910951D01*
X83593402Y-84064697D01*
X83542795Y-84231520D01*
X83525709Y-84405010D01*
X83529991Y-84448489D01*
X83529991Y-96608050D01*
X83464637Y-96510241D01*
X83264759Y-96310363D01*
X83029727Y-96153320D01*
X82768574Y-96045147D01*
X82491335Y-95990000D01*
X82208665Y-95990000D01*
X81931426Y-96045147D01*
X81670273Y-96153320D01*
X81435241Y-96310363D01*
X81235363Y-96510241D01*
X81078320Y-96745273D01*
X80970147Y-97006426D01*
X80915000Y-97283665D01*
X80915000Y-97566335D01*
X80951312Y-97748886D01*
X78588998Y-100111201D01*
X78560000Y-100134999D01*
X78536202Y-100163997D01*
X78536201Y-100163998D01*
X78465026Y-100250724D01*
X78394454Y-100382754D01*
X78350998Y-100526015D01*
X78336324Y-100675000D01*
X78340001Y-100712332D01*
X78340001Y-101437420D01*
X75685000Y-98782420D01*
X75685000Y-95743514D01*
X77765000Y-95743514D01*
X77765000Y-96006486D01*
X77816304Y-96264405D01*
X77916939Y-96507359D01*
X78063038Y-96726013D01*
X78248987Y-96911962D01*
X78467641Y-97058061D01*
X78710595Y-97158696D01*
X78968514Y-97210000D01*
X79231486Y-97210000D01*
X79489405Y-97158696D01*
X79732359Y-97058061D01*
X79951013Y-96911962D01*
X80136962Y-96726013D01*
X80283061Y-96507359D01*
X80383696Y-96264405D01*
X80435000Y-96006486D01*
X80435000Y-95743514D01*
X80383696Y-95485595D01*
X80283061Y-95242641D01*
X80136962Y-95023987D01*
X79951013Y-94838038D01*
X79732359Y-94691939D01*
X79489405Y-94591304D01*
X79231486Y-94540000D01*
X78968514Y-94540000D01*
X78710595Y-94591304D01*
X78467641Y-94691939D01*
X78248987Y-94838038D01*
X78063038Y-95023987D01*
X77916939Y-95242641D01*
X77816304Y-95485595D01*
X77765000Y-95743514D01*
X75685000Y-95743514D01*
X75685000Y-90100000D01*
X77058241Y-90100000D01*
X77085214Y-90373860D01*
X77165096Y-90637195D01*
X77294817Y-90879887D01*
X77469392Y-91092608D01*
X77682113Y-91267183D01*
X77924805Y-91396904D01*
X78188140Y-91476786D01*
X78393375Y-91497000D01*
X80006625Y-91497000D01*
X80211860Y-91476786D01*
X80475195Y-91396904D01*
X80717887Y-91267183D01*
X80930608Y-91092608D01*
X81105183Y-90879887D01*
X81234904Y-90637195D01*
X81314786Y-90373860D01*
X81341759Y-90100000D01*
X81314786Y-89826140D01*
X81234904Y-89562805D01*
X81105183Y-89320113D01*
X80930608Y-89107392D01*
X80717887Y-88932817D01*
X80475195Y-88803096D01*
X80211860Y-88723214D01*
X80006625Y-88703000D01*
X78393375Y-88703000D01*
X78188140Y-88723214D01*
X77924805Y-88803096D01*
X77682113Y-88932817D01*
X77469392Y-89107392D01*
X77294817Y-89320113D01*
X77165096Y-89562805D01*
X77085214Y-89826140D01*
X77058241Y-90100000D01*
X75685000Y-90100000D01*
X75685000Y-82388072D01*
X76550000Y-82388072D01*
X76674482Y-82375812D01*
X76794180Y-82339502D01*
X76904494Y-82280537D01*
X77001185Y-82201185D01*
X77080537Y-82104494D01*
X77139502Y-81994180D01*
X77175812Y-81874482D01*
X77188072Y-81750000D01*
X77188072Y-78250000D01*
X77175812Y-78125518D01*
X77139502Y-78005820D01*
X77080537Y-77895506D01*
X77001185Y-77798815D01*
X76904494Y-77719463D01*
X76794180Y-77660498D01*
X76674482Y-77624188D01*
X76550000Y-77611928D01*
X73050000Y-77611928D01*
X72925518Y-77624188D01*
X72805820Y-77660498D01*
X72695506Y-77719463D01*
X72598815Y-77798815D01*
X72519463Y-77895506D01*
X72478506Y-77972131D01*
X72488072Y-77875000D01*
X72488072Y-76125000D01*
X72458999Y-75829814D01*
X72372896Y-75545972D01*
X72348324Y-75500000D01*
X72411928Y-75500000D01*
X72424188Y-75624482D01*
X72460498Y-75744180D01*
X72519463Y-75854494D01*
X72598815Y-75951185D01*
X72695506Y-76030537D01*
X72805820Y-76089502D01*
X72925518Y-76125812D01*
X73050000Y-76138072D01*
X74514250Y-76135000D01*
X74673000Y-75976250D01*
X74673000Y-74127000D01*
X74927000Y-74127000D01*
X74927000Y-75976250D01*
X75085750Y-76135000D01*
X76550000Y-76138072D01*
X76674482Y-76125812D01*
X76794180Y-76089502D01*
X76904494Y-76030537D01*
X77001185Y-75951185D01*
X77080537Y-75854494D01*
X77139502Y-75744180D01*
X77175812Y-75624482D01*
X77188072Y-75500000D01*
X77185000Y-74285750D01*
X77026250Y-74127000D01*
X74927000Y-74127000D01*
X74673000Y-74127000D01*
X72573750Y-74127000D01*
X72415000Y-74285750D01*
X72411928Y-75500000D01*
X72348324Y-75500000D01*
X72233073Y-75284382D01*
X72044903Y-75055097D01*
X71815618Y-74866927D01*
X71554028Y-74727104D01*
X71270186Y-74641001D01*
X70975000Y-74611928D01*
X69225000Y-74611928D01*
X68929814Y-74641001D01*
X68645972Y-74727104D01*
X68384382Y-74866927D01*
X68155097Y-75055097D01*
X67966927Y-75284382D01*
X67827104Y-75545972D01*
X67741001Y-75829814D01*
X67711928Y-76125000D01*
X67711928Y-77875000D01*
X67741001Y-78170186D01*
X67827104Y-78454028D01*
X67966927Y-78715618D01*
X68155097Y-78944903D01*
X68384382Y-79133073D01*
X68645972Y-79272896D01*
X68929814Y-79358999D01*
X69225000Y-79388072D01*
X70975000Y-79388072D01*
X71270186Y-79358999D01*
X71554028Y-79272896D01*
X71815618Y-79133073D01*
X72044903Y-78944903D01*
X72233073Y-78715618D01*
X72372896Y-78454028D01*
X72411928Y-78325357D01*
X72411928Y-81750000D01*
X72424188Y-81874482D01*
X72460498Y-81994180D01*
X72519463Y-82104494D01*
X72598815Y-82201185D01*
X72695506Y-82280537D01*
X72805820Y-82339502D01*
X72925518Y-82375812D01*
X73050000Y-82388072D01*
X73915000Y-82388072D01*
X73915001Y-94709691D01*
X73647743Y-94598989D01*
X73351184Y-94540000D01*
X73048816Y-94540000D01*
X72752257Y-94598989D01*
X72472905Y-94714701D01*
X72221495Y-94882688D01*
X72007688Y-95096495D01*
X71950000Y-95182831D01*
X71892312Y-95096495D01*
X71678505Y-94882688D01*
X71427095Y-94714701D01*
X71147743Y-94598989D01*
X70851184Y-94540000D01*
X70548816Y-94540000D01*
X70252257Y-94598989D01*
X69972905Y-94714701D01*
X69721495Y-94882688D01*
X69507688Y-95096495D01*
X69450000Y-95182831D01*
X69392312Y-95096495D01*
X69178505Y-94882688D01*
X68927095Y-94714701D01*
X68647743Y-94598989D01*
X68351184Y-94540000D01*
X68048816Y-94540000D01*
X67752257Y-94598989D01*
X67472905Y-94714701D01*
X67221495Y-94882688D01*
X67007688Y-95096495D01*
X66839701Y-95347905D01*
X66723989Y-95627257D01*
X66665000Y-95923816D01*
X66665000Y-96226184D01*
X66723989Y-96522743D01*
X66839701Y-96802095D01*
X67007688Y-97053505D01*
X67221495Y-97267312D01*
X67472905Y-97435299D01*
X67752257Y-97551011D01*
X68048816Y-97610000D01*
X68339999Y-97610000D01*
X68339999Y-101388546D01*
X67979715Y-101028262D01*
X67548141Y-100739893D01*
X67068601Y-100541261D01*
X66559525Y-100440000D01*
X66040475Y-100440000D01*
X65531399Y-100541261D01*
X65051859Y-100739893D01*
X64660000Y-101001725D01*
X64660000Y-87943070D01*
X69607780Y-87943070D01*
X69622738Y-88017276D01*
X69729878Y-88270535D01*
X69884368Y-88498026D01*
X70080271Y-88691006D01*
X70310058Y-88842059D01*
X70564899Y-88945381D01*
X70835000Y-88997000D01*
X71573000Y-88997000D01*
X71573000Y-87727000D01*
X71827000Y-87727000D01*
X71827000Y-88997000D01*
X72565000Y-88997000D01*
X72835101Y-88945381D01*
X73089942Y-88842059D01*
X73319729Y-88691006D01*
X73515632Y-88498026D01*
X73670122Y-88270535D01*
X73777262Y-88017276D01*
X73792220Y-87943070D01*
X73669720Y-87727000D01*
X71827000Y-87727000D01*
X71573000Y-87727000D01*
X69730280Y-87727000D01*
X69607780Y-87943070D01*
X64660000Y-87943070D01*
X64660000Y-87256930D01*
X69607780Y-87256930D01*
X69730280Y-87473000D01*
X71573000Y-87473000D01*
X71573000Y-86203000D01*
X71827000Y-86203000D01*
X71827000Y-87473000D01*
X73669720Y-87473000D01*
X73792220Y-87256930D01*
X73777262Y-87182724D01*
X73670122Y-86929465D01*
X73515632Y-86701974D01*
X73319729Y-86508994D01*
X73089942Y-86357941D01*
X72835101Y-86254619D01*
X72565000Y-86203000D01*
X71827000Y-86203000D01*
X71573000Y-86203000D01*
X70835000Y-86203000D01*
X70564899Y-86254619D01*
X70310058Y-86357941D01*
X70080271Y-86508994D01*
X69884368Y-86701974D01*
X69729878Y-86929465D01*
X69622738Y-87182724D01*
X69607780Y-87256930D01*
X64660000Y-87256930D01*
X64660000Y-73837104D01*
X64786123Y-73963227D01*
X65044052Y-74135570D01*
X65330648Y-74254282D01*
X65634896Y-74314800D01*
X65945104Y-74314800D01*
X66249352Y-74254282D01*
X66535948Y-74135570D01*
X66793877Y-73963227D01*
X67013227Y-73743877D01*
X67060000Y-73673876D01*
X67106773Y-73743877D01*
X67326123Y-73963227D01*
X67584052Y-74135570D01*
X67870648Y-74254282D01*
X68174896Y-74314800D01*
X68485104Y-74314800D01*
X68789352Y-74254282D01*
X69075948Y-74135570D01*
X69333877Y-73963227D01*
X69553227Y-73743877D01*
X69725570Y-73485948D01*
X69844282Y-73199352D01*
X69904800Y-72895104D01*
X69904800Y-72584896D01*
X69887914Y-72500000D01*
X72411928Y-72500000D01*
X72415000Y-73714250D01*
X72573750Y-73873000D01*
X74673000Y-73873000D01*
X74673000Y-72023750D01*
X74927000Y-72023750D01*
X74927000Y-73873000D01*
X77026250Y-73873000D01*
X77185000Y-73714250D01*
X77188072Y-72500000D01*
X77175812Y-72375518D01*
X77139502Y-72255820D01*
X77080537Y-72145506D01*
X77001185Y-72048815D01*
X76904494Y-71969463D01*
X76794180Y-71910498D01*
X76674482Y-71874188D01*
X76550000Y-71861928D01*
X75085750Y-71865000D01*
X74927000Y-72023750D01*
X74673000Y-72023750D01*
X74514250Y-71865000D01*
X73050000Y-71861928D01*
X72925518Y-71874188D01*
X72805820Y-71910498D01*
X72695506Y-71969463D01*
X72598815Y-72048815D01*
X72519463Y-72145506D01*
X72460498Y-72255820D01*
X72424188Y-72375518D01*
X72411928Y-72500000D01*
X69887914Y-72500000D01*
X69844282Y-72280648D01*
X69725570Y-71994052D01*
X69553227Y-71736123D01*
X69333877Y-71516773D01*
X69075948Y-71344430D01*
X68789352Y-71225718D01*
X68485104Y-71165200D01*
X68174896Y-71165200D01*
X67870648Y-71225718D01*
X67584052Y-71344430D01*
X67326123Y-71516773D01*
X67106773Y-71736123D01*
X67060000Y-71806124D01*
X67013227Y-71736123D01*
X66793877Y-71516773D01*
X66535948Y-71344430D01*
X66249352Y-71225718D01*
X65945104Y-71165200D01*
X65634896Y-71165200D01*
X65330648Y-71225718D01*
X65044052Y-71344430D01*
X64786123Y-71516773D01*
X64660000Y-71642896D01*
X64660000Y-66660000D01*
X79839413Y-66660000D01*
X79784649Y-66710330D01*
G37*
%TD.AperFunction*%
D30*
X68340000Y-113905103D02*
X68283061Y-113767641D01*
X68136962Y-113548987D01*
X67951013Y-113363038D01*
X67732359Y-113216939D01*
X67489405Y-113116304D01*
X67231486Y-113065000D01*
X66968514Y-113065000D01*
X66710595Y-113116304D01*
X66467641Y-113216939D01*
X66248987Y-113363038D01*
X66063038Y-113548987D01*
X65916939Y-113767641D01*
X65816304Y-114010595D01*
X65765000Y-114268514D01*
X65765000Y-114531486D01*
X65816304Y-114789405D01*
X65916939Y-115032359D01*
X66063038Y-115251013D01*
X66248987Y-115436962D01*
X66467641Y-115583061D01*
X66710595Y-115683696D01*
X66968514Y-115735000D01*
X67231486Y-115735000D01*
X67489405Y-115683696D01*
X67732359Y-115583061D01*
X67951013Y-115436962D01*
X68136962Y-115251013D01*
X68283061Y-115032359D01*
X68340000Y-114894897D01*
X68340000Y-118582666D01*
X68336323Y-118619999D01*
X68340000Y-118657332D01*
X68350997Y-118768985D01*
X68357975Y-118791988D01*
X68394453Y-118912245D01*
X68465025Y-119044275D01*
X68536200Y-119131001D01*
X68559999Y-119160000D01*
X68588997Y-119183798D01*
X69384592Y-119979393D01*
X69347818Y-120048192D01*
X69265764Y-120318691D01*
X69238057Y-120600000D01*
X69265764Y-120881309D01*
X69347818Y-121151808D01*
X69481068Y-121401101D01*
X69660392Y-121619608D01*
X69878899Y-121798932D01*
X70011858Y-121870000D01*
X69878899Y-121941068D01*
X69660392Y-122120392D01*
X69481068Y-122338899D01*
X69347818Y-122588192D01*
X69265764Y-122858691D01*
X69238057Y-123140000D01*
X69265764Y-123421309D01*
X69347818Y-123691808D01*
X69481068Y-123941101D01*
X69660392Y-124159608D01*
X69878899Y-124338932D01*
X70006741Y-124407265D01*
X69777161Y-124557399D01*
X69575500Y-124755105D01*
X69416285Y-124988354D01*
X69305633Y-125248182D01*
X69288096Y-125330961D01*
X69410085Y-125553000D01*
X70953000Y-125553000D01*
X70953000Y-125533000D01*
X71207000Y-125533000D01*
X71207000Y-125553000D01*
X72749915Y-125553000D01*
X72871904Y-125330961D01*
X72854367Y-125248182D01*
X72743715Y-124988354D01*
X72584500Y-124755105D01*
X72382839Y-124557399D01*
X72153259Y-124407265D01*
X72281101Y-124338932D01*
X72499608Y-124159608D01*
X72678932Y-123941101D01*
X72812182Y-123691808D01*
X72894236Y-123421309D01*
X72921943Y-123140000D01*
X72894236Y-122858691D01*
X72812182Y-122588192D01*
X72775408Y-122519393D01*
X73116013Y-122178789D01*
X73145011Y-122154991D01*
X73239984Y-122039266D01*
X73310556Y-121907237D01*
X73354013Y-121763976D01*
X73365010Y-121652323D01*
X73365010Y-121652313D01*
X73368686Y-121614990D01*
X73365010Y-121577667D01*
X73365010Y-116942333D01*
X73368686Y-116905010D01*
X73365010Y-116867687D01*
X73365010Y-116867677D01*
X73354013Y-116756024D01*
X73310556Y-116612763D01*
X73239984Y-116480733D01*
X73168809Y-116394007D01*
X73145011Y-116365009D01*
X73116014Y-116341212D01*
X72313645Y-115538843D01*
X72335000Y-115431486D01*
X72335000Y-115168514D01*
X72313645Y-115061156D01*
X73286003Y-114088799D01*
X73315000Y-114065002D01*
X73409973Y-113949277D01*
X73480545Y-113817248D01*
X73524002Y-113673987D01*
X73534999Y-113562334D01*
X73534999Y-113562326D01*
X73538675Y-113525001D01*
X73534999Y-113487676D01*
X73534999Y-105198388D01*
X73851859Y-105410107D01*
X74331399Y-105608739D01*
X74840475Y-105710000D01*
X75359525Y-105710000D01*
X75868601Y-105608739D01*
X76348141Y-105410107D01*
X76779715Y-105121738D01*
X77064999Y-104836454D01*
X77065000Y-110106520D01*
X77060718Y-110149999D01*
X77077804Y-110323489D01*
X77128411Y-110490312D01*
X77210589Y-110644058D01*
X77293467Y-110745045D01*
X77293470Y-110745048D01*
X77321183Y-110778816D01*
X77354951Y-110806529D01*
X81049332Y-114500910D01*
X80990000Y-114799193D01*
X80990000Y-115150807D01*
X81058596Y-115495665D01*
X81193153Y-115820515D01*
X81388500Y-116112871D01*
X81637129Y-116361500D01*
X81929485Y-116556847D01*
X82254335Y-116691404D01*
X82599193Y-116760000D01*
X82950807Y-116760000D01*
X83295665Y-116691404D01*
X83529990Y-116594344D01*
X83529990Y-116668431D01*
X83249090Y-116949332D01*
X82950807Y-116890000D01*
X82599193Y-116890000D01*
X82254335Y-116958596D01*
X81929485Y-117093153D01*
X81637129Y-117288500D01*
X81388500Y-117537129D01*
X81193153Y-117829485D01*
X81058596Y-118154335D01*
X80996803Y-118464990D01*
X80476718Y-118464990D01*
X80514236Y-118341309D01*
X80541943Y-118060000D01*
X80514236Y-117778691D01*
X80432182Y-117508192D01*
X80298932Y-117258899D01*
X80119608Y-117040392D01*
X79901101Y-116861068D01*
X79651808Y-116727818D01*
X79460000Y-116669634D01*
X79460000Y-116344321D01*
X79471013Y-116336962D01*
X79656962Y-116151013D01*
X79803061Y-115932359D01*
X79903696Y-115689405D01*
X79955000Y-115431486D01*
X79955000Y-115168514D01*
X79903696Y-114910595D01*
X79803061Y-114667641D01*
X79656962Y-114448987D01*
X79471013Y-114263038D01*
X79252359Y-114116939D01*
X79009405Y-114016304D01*
X78751486Y-113965000D01*
X78488514Y-113965000D01*
X78230595Y-114016304D01*
X77987641Y-114116939D01*
X77768987Y-114263038D01*
X77583038Y-114448987D01*
X77436939Y-114667641D01*
X77336304Y-114910595D01*
X77285000Y-115168514D01*
X77285000Y-115431486D01*
X77336304Y-115689405D01*
X77436939Y-115932359D01*
X77583038Y-116151013D01*
X77768987Y-116336962D01*
X77940001Y-116451229D01*
X77940001Y-116669634D01*
X77748192Y-116727818D01*
X77498899Y-116861068D01*
X77280392Y-117040392D01*
X77101068Y-117258899D01*
X76967818Y-117508192D01*
X76885764Y-117778691D01*
X76858057Y-118060000D01*
X76885764Y-118341309D01*
X76923282Y-118464990D01*
X76913479Y-118464990D01*
X76870010Y-118460709D01*
X76826541Y-118464990D01*
X76826533Y-118464990D01*
X76696520Y-118477795D01*
X76529696Y-118528401D01*
X76463099Y-118563998D01*
X76375951Y-118610579D01*
X76241193Y-118721173D01*
X76213478Y-118754944D01*
X75804956Y-119163466D01*
X75771183Y-119191183D01*
X75660589Y-119325942D01*
X75578411Y-119479688D01*
X75565127Y-119523480D01*
X75532822Y-119629974D01*
X75527805Y-119646511D01*
X75515000Y-119776524D01*
X75515000Y-119776531D01*
X75510719Y-119820000D01*
X75515000Y-119863469D01*
X75515001Y-123336521D01*
X75510719Y-123380000D01*
X75527805Y-123553490D01*
X75578412Y-123720313D01*
X75660590Y-123874059D01*
X75743468Y-123975046D01*
X75743471Y-123975049D01*
X75771184Y-124008817D01*
X75804951Y-124036529D01*
X76951246Y-125182824D01*
X76885764Y-125398691D01*
X76858057Y-125680000D01*
X76885764Y-125961309D01*
X76967818Y-126231808D01*
X77101068Y-126481101D01*
X77280392Y-126699608D01*
X77498899Y-126878932D01*
X77631858Y-126950000D01*
X77498899Y-127021068D01*
X77280392Y-127200392D01*
X77101068Y-127418899D01*
X76967818Y-127668192D01*
X76885764Y-127938691D01*
X76858057Y-128220000D01*
X76885764Y-128501309D01*
X76967818Y-128771808D01*
X77004592Y-128840607D01*
X72878473Y-132966726D01*
X72812182Y-132748192D01*
X72678932Y-132498899D01*
X72499608Y-132280392D01*
X72281101Y-132101068D01*
X72148142Y-132030000D01*
X72281101Y-131958932D01*
X72499608Y-131779608D01*
X72678932Y-131561101D01*
X72812182Y-131311808D01*
X72894236Y-131041309D01*
X72921943Y-130760000D01*
X72894236Y-130478691D01*
X72812182Y-130208192D01*
X72678932Y-129958899D01*
X72499608Y-129740392D01*
X72281101Y-129561068D01*
X72148142Y-129490000D01*
X72281101Y-129418932D01*
X72499608Y-129239608D01*
X72678932Y-129021101D01*
X72812182Y-128771808D01*
X72894236Y-128501309D01*
X72921943Y-128220000D01*
X72894236Y-127938691D01*
X72812182Y-127668192D01*
X72678932Y-127418899D01*
X72499608Y-127200392D01*
X72281101Y-127021068D01*
X72153259Y-126952735D01*
X72382839Y-126802601D01*
X72584500Y-126604895D01*
X72743715Y-126371646D01*
X72854367Y-126111818D01*
X72871904Y-126029039D01*
X72749915Y-125807000D01*
X71207000Y-125807000D01*
X71207000Y-125827000D01*
X70953000Y-125827000D01*
X70953000Y-125807000D01*
X69410085Y-125807000D01*
X69288096Y-126029039D01*
X69305633Y-126111818D01*
X69416285Y-126371646D01*
X69575500Y-126604895D01*
X69777161Y-126802601D01*
X70006741Y-126952735D01*
X69878899Y-127021068D01*
X69660392Y-127200392D01*
X69481068Y-127418899D01*
X69347818Y-127668192D01*
X69265764Y-127938691D01*
X69260773Y-127989366D01*
X69223264Y-127888801D01*
X69185627Y-127806388D01*
X69055708Y-127568459D01*
X69006724Y-127492239D01*
X68844266Y-127275222D01*
X68784937Y-127206752D01*
X68593248Y-127015063D01*
X68524778Y-126955734D01*
X68307761Y-126793276D01*
X68231541Y-126744292D01*
X67993612Y-126614373D01*
X67911199Y-126576736D01*
X67657202Y-126482000D01*
X67570271Y-126456475D01*
X67305377Y-126398851D01*
X67215698Y-126385957D01*
X66945300Y-126366618D01*
X66854700Y-126366618D01*
X66584302Y-126385957D01*
X66494623Y-126398851D01*
X66229729Y-126456475D01*
X66142798Y-126482000D01*
X65888801Y-126576736D01*
X65806388Y-126614373D01*
X65568459Y-126744292D01*
X65492239Y-126793276D01*
X65275222Y-126955734D01*
X65206752Y-127015063D01*
X65015063Y-127206752D01*
X64955734Y-127275222D01*
X64793276Y-127492239D01*
X64744292Y-127568459D01*
X64660000Y-127722828D01*
X64660000Y-124358665D01*
X65665000Y-124358665D01*
X65665000Y-124641335D01*
X65720147Y-124918574D01*
X65828320Y-125179727D01*
X65985363Y-125414759D01*
X66185241Y-125614637D01*
X66420273Y-125771680D01*
X66681426Y-125879853D01*
X66958665Y-125935000D01*
X67241335Y-125935000D01*
X67518574Y-125879853D01*
X67779727Y-125771680D01*
X68014759Y-125614637D01*
X68214637Y-125414759D01*
X68371680Y-125179727D01*
X68479853Y-124918574D01*
X68535000Y-124641335D01*
X68535000Y-124358665D01*
X68479853Y-124081426D01*
X68371680Y-123820273D01*
X68214637Y-123585241D01*
X68014759Y-123385363D01*
X67779727Y-123228320D01*
X67725553Y-123205880D01*
X67732359Y-123203061D01*
X67951013Y-123056962D01*
X68136962Y-122871013D01*
X68283061Y-122652359D01*
X68383696Y-122409405D01*
X68435000Y-122151486D01*
X68435000Y-121888514D01*
X68383696Y-121630595D01*
X68283061Y-121387641D01*
X68136962Y-121168987D01*
X67951013Y-120983038D01*
X67732359Y-120836939D01*
X67489405Y-120736304D01*
X67231486Y-120685000D01*
X66968514Y-120685000D01*
X66710595Y-120736304D01*
X66467641Y-120836939D01*
X66248987Y-120983038D01*
X66063038Y-121168987D01*
X65916939Y-121387641D01*
X65816304Y-121630595D01*
X65765000Y-121888514D01*
X65765000Y-122151486D01*
X65816304Y-122409405D01*
X65916939Y-122652359D01*
X66063038Y-122871013D01*
X66248987Y-123056962D01*
X66467641Y-123203061D01*
X66474447Y-123205880D01*
X66420273Y-123228320D01*
X66185241Y-123385363D01*
X65985363Y-123585241D01*
X65828320Y-123820273D01*
X65720147Y-124081426D01*
X65665000Y-124358665D01*
X64660000Y-124358665D01*
X64660000Y-105148275D01*
X65051859Y-105410107D01*
X65531399Y-105608739D01*
X66040475Y-105710000D01*
X66559525Y-105710000D01*
X67068601Y-105608739D01*
X67548141Y-105410107D01*
X67979715Y-105121738D01*
X68339999Y-104761454D01*
X68340000Y-113905103D01*
%TA.AperFunction,Conductor*%
D31*
G36*
X68340000Y-113905103D02*
G01*
X68283061Y-113767641D01*
X68136962Y-113548987D01*
X67951013Y-113363038D01*
X67732359Y-113216939D01*
X67489405Y-113116304D01*
X67231486Y-113065000D01*
X66968514Y-113065000D01*
X66710595Y-113116304D01*
X66467641Y-113216939D01*
X66248987Y-113363038D01*
X66063038Y-113548987D01*
X65916939Y-113767641D01*
X65816304Y-114010595D01*
X65765000Y-114268514D01*
X65765000Y-114531486D01*
X65816304Y-114789405D01*
X65916939Y-115032359D01*
X66063038Y-115251013D01*
X66248987Y-115436962D01*
X66467641Y-115583061D01*
X66710595Y-115683696D01*
X66968514Y-115735000D01*
X67231486Y-115735000D01*
X67489405Y-115683696D01*
X67732359Y-115583061D01*
X67951013Y-115436962D01*
X68136962Y-115251013D01*
X68283061Y-115032359D01*
X68340000Y-114894897D01*
X68340000Y-118582666D01*
X68336323Y-118619999D01*
X68340000Y-118657332D01*
X68350997Y-118768985D01*
X68357975Y-118791988D01*
X68394453Y-118912245D01*
X68465025Y-119044275D01*
X68536200Y-119131001D01*
X68559999Y-119160000D01*
X68588997Y-119183798D01*
X69384592Y-119979393D01*
X69347818Y-120048192D01*
X69265764Y-120318691D01*
X69238057Y-120600000D01*
X69265764Y-120881309D01*
X69347818Y-121151808D01*
X69481068Y-121401101D01*
X69660392Y-121619608D01*
X69878899Y-121798932D01*
X70011858Y-121870000D01*
X69878899Y-121941068D01*
X69660392Y-122120392D01*
X69481068Y-122338899D01*
X69347818Y-122588192D01*
X69265764Y-122858691D01*
X69238057Y-123140000D01*
X69265764Y-123421309D01*
X69347818Y-123691808D01*
X69481068Y-123941101D01*
X69660392Y-124159608D01*
X69878899Y-124338932D01*
X70006741Y-124407265D01*
X69777161Y-124557399D01*
X69575500Y-124755105D01*
X69416285Y-124988354D01*
X69305633Y-125248182D01*
X69288096Y-125330961D01*
X69410085Y-125553000D01*
X70953000Y-125553000D01*
X70953000Y-125533000D01*
X71207000Y-125533000D01*
X71207000Y-125553000D01*
X72749915Y-125553000D01*
X72871904Y-125330961D01*
X72854367Y-125248182D01*
X72743715Y-124988354D01*
X72584500Y-124755105D01*
X72382839Y-124557399D01*
X72153259Y-124407265D01*
X72281101Y-124338932D01*
X72499608Y-124159608D01*
X72678932Y-123941101D01*
X72812182Y-123691808D01*
X72894236Y-123421309D01*
X72921943Y-123140000D01*
X72894236Y-122858691D01*
X72812182Y-122588192D01*
X72775408Y-122519393D01*
X73116013Y-122178789D01*
X73145011Y-122154991D01*
X73239984Y-122039266D01*
X73310556Y-121907237D01*
X73354013Y-121763976D01*
X73365010Y-121652323D01*
X73365010Y-121652313D01*
X73368686Y-121614990D01*
X73365010Y-121577667D01*
X73365010Y-116942333D01*
X73368686Y-116905010D01*
X73365010Y-116867687D01*
X73365010Y-116867677D01*
X73354013Y-116756024D01*
X73310556Y-116612763D01*
X73239984Y-116480733D01*
X73168809Y-116394007D01*
X73145011Y-116365009D01*
X73116014Y-116341212D01*
X72313645Y-115538843D01*
X72335000Y-115431486D01*
X72335000Y-115168514D01*
X72313645Y-115061156D01*
X73286003Y-114088799D01*
X73315000Y-114065002D01*
X73409973Y-113949277D01*
X73480545Y-113817248D01*
X73524002Y-113673987D01*
X73534999Y-113562334D01*
X73534999Y-113562326D01*
X73538675Y-113525001D01*
X73534999Y-113487676D01*
X73534999Y-105198388D01*
X73851859Y-105410107D01*
X74331399Y-105608739D01*
X74840475Y-105710000D01*
X75359525Y-105710000D01*
X75868601Y-105608739D01*
X76348141Y-105410107D01*
X76779715Y-105121738D01*
X77064999Y-104836454D01*
X77065000Y-110106520D01*
X77060718Y-110149999D01*
X77077804Y-110323489D01*
X77128411Y-110490312D01*
X77210589Y-110644058D01*
X77293467Y-110745045D01*
X77293470Y-110745048D01*
X77321183Y-110778816D01*
X77354951Y-110806529D01*
X81049332Y-114500910D01*
X80990000Y-114799193D01*
X80990000Y-115150807D01*
X81058596Y-115495665D01*
X81193153Y-115820515D01*
X81388500Y-116112871D01*
X81637129Y-116361500D01*
X81929485Y-116556847D01*
X82254335Y-116691404D01*
X82599193Y-116760000D01*
X82950807Y-116760000D01*
X83295665Y-116691404D01*
X83529990Y-116594344D01*
X83529990Y-116668431D01*
X83249090Y-116949332D01*
X82950807Y-116890000D01*
X82599193Y-116890000D01*
X82254335Y-116958596D01*
X81929485Y-117093153D01*
X81637129Y-117288500D01*
X81388500Y-117537129D01*
X81193153Y-117829485D01*
X81058596Y-118154335D01*
X80996803Y-118464990D01*
X80476718Y-118464990D01*
X80514236Y-118341309D01*
X80541943Y-118060000D01*
X80514236Y-117778691D01*
X80432182Y-117508192D01*
X80298932Y-117258899D01*
X80119608Y-117040392D01*
X79901101Y-116861068D01*
X79651808Y-116727818D01*
X79460000Y-116669634D01*
X79460000Y-116344321D01*
X79471013Y-116336962D01*
X79656962Y-116151013D01*
X79803061Y-115932359D01*
X79903696Y-115689405D01*
X79955000Y-115431486D01*
X79955000Y-115168514D01*
X79903696Y-114910595D01*
X79803061Y-114667641D01*
X79656962Y-114448987D01*
X79471013Y-114263038D01*
X79252359Y-114116939D01*
X79009405Y-114016304D01*
X78751486Y-113965000D01*
X78488514Y-113965000D01*
X78230595Y-114016304D01*
X77987641Y-114116939D01*
X77768987Y-114263038D01*
X77583038Y-114448987D01*
X77436939Y-114667641D01*
X77336304Y-114910595D01*
X77285000Y-115168514D01*
X77285000Y-115431486D01*
X77336304Y-115689405D01*
X77436939Y-115932359D01*
X77583038Y-116151013D01*
X77768987Y-116336962D01*
X77940001Y-116451229D01*
X77940001Y-116669634D01*
X77748192Y-116727818D01*
X77498899Y-116861068D01*
X77280392Y-117040392D01*
X77101068Y-117258899D01*
X76967818Y-117508192D01*
X76885764Y-117778691D01*
X76858057Y-118060000D01*
X76885764Y-118341309D01*
X76923282Y-118464990D01*
X76913479Y-118464990D01*
X76870010Y-118460709D01*
X76826541Y-118464990D01*
X76826533Y-118464990D01*
X76696520Y-118477795D01*
X76529696Y-118528401D01*
X76463099Y-118563998D01*
X76375951Y-118610579D01*
X76241193Y-118721173D01*
X76213478Y-118754944D01*
X75804956Y-119163466D01*
X75771183Y-119191183D01*
X75660589Y-119325942D01*
X75578411Y-119479688D01*
X75565127Y-119523480D01*
X75532822Y-119629974D01*
X75527805Y-119646511D01*
X75515000Y-119776524D01*
X75515000Y-119776531D01*
X75510719Y-119820000D01*
X75515000Y-119863469D01*
X75515001Y-123336521D01*
X75510719Y-123380000D01*
X75527805Y-123553490D01*
X75578412Y-123720313D01*
X75660590Y-123874059D01*
X75743468Y-123975046D01*
X75743471Y-123975049D01*
X75771184Y-124008817D01*
X75804951Y-124036529D01*
X76951246Y-125182824D01*
X76885764Y-125398691D01*
X76858057Y-125680000D01*
X76885764Y-125961309D01*
X76967818Y-126231808D01*
X77101068Y-126481101D01*
X77280392Y-126699608D01*
X77498899Y-126878932D01*
X77631858Y-126950000D01*
X77498899Y-127021068D01*
X77280392Y-127200392D01*
X77101068Y-127418899D01*
X76967818Y-127668192D01*
X76885764Y-127938691D01*
X76858057Y-128220000D01*
X76885764Y-128501309D01*
X76967818Y-128771808D01*
X77004592Y-128840607D01*
X72878473Y-132966726D01*
X72812182Y-132748192D01*
X72678932Y-132498899D01*
X72499608Y-132280392D01*
X72281101Y-132101068D01*
X72148142Y-132030000D01*
X72281101Y-131958932D01*
X72499608Y-131779608D01*
X72678932Y-131561101D01*
X72812182Y-131311808D01*
X72894236Y-131041309D01*
X72921943Y-130760000D01*
X72894236Y-130478691D01*
X72812182Y-130208192D01*
X72678932Y-129958899D01*
X72499608Y-129740392D01*
X72281101Y-129561068D01*
X72148142Y-129490000D01*
X72281101Y-129418932D01*
X72499608Y-129239608D01*
X72678932Y-129021101D01*
X72812182Y-128771808D01*
X72894236Y-128501309D01*
X72921943Y-128220000D01*
X72894236Y-127938691D01*
X72812182Y-127668192D01*
X72678932Y-127418899D01*
X72499608Y-127200392D01*
X72281101Y-127021068D01*
X72153259Y-126952735D01*
X72382839Y-126802601D01*
X72584500Y-126604895D01*
X72743715Y-126371646D01*
X72854367Y-126111818D01*
X72871904Y-126029039D01*
X72749915Y-125807000D01*
X71207000Y-125807000D01*
X71207000Y-125827000D01*
X70953000Y-125827000D01*
X70953000Y-125807000D01*
X69410085Y-125807000D01*
X69288096Y-126029039D01*
X69305633Y-126111818D01*
X69416285Y-126371646D01*
X69575500Y-126604895D01*
X69777161Y-126802601D01*
X70006741Y-126952735D01*
X69878899Y-127021068D01*
X69660392Y-127200392D01*
X69481068Y-127418899D01*
X69347818Y-127668192D01*
X69265764Y-127938691D01*
X69260773Y-127989366D01*
X69223264Y-127888801D01*
X69185627Y-127806388D01*
X69055708Y-127568459D01*
X69006724Y-127492239D01*
X68844266Y-127275222D01*
X68784937Y-127206752D01*
X68593248Y-127015063D01*
X68524778Y-126955734D01*
X68307761Y-126793276D01*
X68231541Y-126744292D01*
X67993612Y-126614373D01*
X67911199Y-126576736D01*
X67657202Y-126482000D01*
X67570271Y-126456475D01*
X67305377Y-126398851D01*
X67215698Y-126385957D01*
X66945300Y-126366618D01*
X66854700Y-126366618D01*
X66584302Y-126385957D01*
X66494623Y-126398851D01*
X66229729Y-126456475D01*
X66142798Y-126482000D01*
X65888801Y-126576736D01*
X65806388Y-126614373D01*
X65568459Y-126744292D01*
X65492239Y-126793276D01*
X65275222Y-126955734D01*
X65206752Y-127015063D01*
X65015063Y-127206752D01*
X64955734Y-127275222D01*
X64793276Y-127492239D01*
X64744292Y-127568459D01*
X64660000Y-127722828D01*
X64660000Y-124358665D01*
X65665000Y-124358665D01*
X65665000Y-124641335D01*
X65720147Y-124918574D01*
X65828320Y-125179727D01*
X65985363Y-125414759D01*
X66185241Y-125614637D01*
X66420273Y-125771680D01*
X66681426Y-125879853D01*
X66958665Y-125935000D01*
X67241335Y-125935000D01*
X67518574Y-125879853D01*
X67779727Y-125771680D01*
X68014759Y-125614637D01*
X68214637Y-125414759D01*
X68371680Y-125179727D01*
X68479853Y-124918574D01*
X68535000Y-124641335D01*
X68535000Y-124358665D01*
X68479853Y-124081426D01*
X68371680Y-123820273D01*
X68214637Y-123585241D01*
X68014759Y-123385363D01*
X67779727Y-123228320D01*
X67725553Y-123205880D01*
X67732359Y-123203061D01*
X67951013Y-123056962D01*
X68136962Y-122871013D01*
X68283061Y-122652359D01*
X68383696Y-122409405D01*
X68435000Y-122151486D01*
X68435000Y-121888514D01*
X68383696Y-121630595D01*
X68283061Y-121387641D01*
X68136962Y-121168987D01*
X67951013Y-120983038D01*
X67732359Y-120836939D01*
X67489405Y-120736304D01*
X67231486Y-120685000D01*
X66968514Y-120685000D01*
X66710595Y-120736304D01*
X66467641Y-120836939D01*
X66248987Y-120983038D01*
X66063038Y-121168987D01*
X65916939Y-121387641D01*
X65816304Y-121630595D01*
X65765000Y-121888514D01*
X65765000Y-122151486D01*
X65816304Y-122409405D01*
X65916939Y-122652359D01*
X66063038Y-122871013D01*
X66248987Y-123056962D01*
X66467641Y-123203061D01*
X66474447Y-123205880D01*
X66420273Y-123228320D01*
X66185241Y-123385363D01*
X65985363Y-123585241D01*
X65828320Y-123820273D01*
X65720147Y-124081426D01*
X65665000Y-124358665D01*
X64660000Y-124358665D01*
X64660000Y-105148275D01*
X65051859Y-105410107D01*
X65531399Y-105608739D01*
X66040475Y-105710000D01*
X66559525Y-105710000D01*
X67068601Y-105608739D01*
X67548141Y-105410107D01*
X67979715Y-105121738D01*
X68339999Y-104761454D01*
X68340000Y-113905103D01*
G37*
%TD.AperFunction*%
D30*
X72014999Y-113210199D02*
X71238844Y-113986355D01*
X71131486Y-113965000D01*
X70868514Y-113965000D01*
X70610595Y-114016304D01*
X70367641Y-114116939D01*
X70148987Y-114263038D01*
X69963038Y-114448987D01*
X69859999Y-114603197D01*
X69859999Y-105040262D01*
X69901853Y-105068228D01*
X70208504Y-105195246D01*
X70534042Y-105260000D01*
X70865958Y-105260000D01*
X71191496Y-105195246D01*
X71498147Y-105068228D01*
X71774125Y-104883825D01*
X72008825Y-104649125D01*
X72015000Y-104639884D01*
X72014999Y-113210199D01*
%TA.AperFunction,Conductor*%
D31*
G36*
X72014999Y-113210199D02*
G01*
X71238844Y-113986355D01*
X71131486Y-113965000D01*
X70868514Y-113965000D01*
X70610595Y-114016304D01*
X70367641Y-114116939D01*
X70148987Y-114263038D01*
X69963038Y-114448987D01*
X69859999Y-114603197D01*
X69859999Y-105040262D01*
X69901853Y-105068228D01*
X70208504Y-105195246D01*
X70534042Y-105260000D01*
X70865958Y-105260000D01*
X71191496Y-105195246D01*
X71498147Y-105068228D01*
X71774125Y-104883825D01*
X72008825Y-104649125D01*
X72015000Y-104639884D01*
X72014999Y-113210199D01*
G37*
%TD.AperFunction*%
D30*
X93853262Y-104754715D02*
X94220285Y-105121738D01*
X94651859Y-105410107D01*
X95131399Y-105608739D01*
X95632739Y-105708461D01*
X94563997Y-106777204D01*
X94534999Y-106801002D01*
X94511201Y-106830000D01*
X94511200Y-106830001D01*
X94440025Y-106916727D01*
X94369453Y-107048757D01*
X94325997Y-107192018D01*
X94311323Y-107341003D01*
X94315000Y-107378335D01*
X94314999Y-111943200D01*
X91865765Y-114392436D01*
X91855983Y-114368820D01*
X92161010Y-114063793D01*
X92190002Y-114040000D01*
X92213796Y-114011007D01*
X92213800Y-114011003D01*
X92284974Y-113924276D01*
X92284975Y-113924275D01*
X92355547Y-113792246D01*
X92399004Y-113648985D01*
X92410001Y-113537332D01*
X92410001Y-113537323D01*
X92413677Y-113500000D01*
X92410001Y-113462677D01*
X92410001Y-106689802D01*
X93386004Y-105713800D01*
X93415002Y-105690002D01*
X93509975Y-105574277D01*
X93580547Y-105442248D01*
X93624004Y-105298987D01*
X93635001Y-105187334D01*
X93638678Y-105150001D01*
X93635001Y-105112668D01*
X93635001Y-104428065D01*
X93853262Y-104754715D01*
%TA.AperFunction,Conductor*%
D31*
G36*
X93853262Y-104754715D02*
G01*
X94220285Y-105121738D01*
X94651859Y-105410107D01*
X95131399Y-105608739D01*
X95632739Y-105708461D01*
X94563997Y-106777204D01*
X94534999Y-106801002D01*
X94511201Y-106830000D01*
X94511200Y-106830001D01*
X94440025Y-106916727D01*
X94369453Y-107048757D01*
X94325997Y-107192018D01*
X94311323Y-107341003D01*
X94315000Y-107378335D01*
X94314999Y-111943200D01*
X91865765Y-114392436D01*
X91855983Y-114368820D01*
X92161010Y-114063793D01*
X92190002Y-114040000D01*
X92213796Y-114011007D01*
X92213800Y-114011003D01*
X92284974Y-113924276D01*
X92284975Y-113924275D01*
X92355547Y-113792246D01*
X92399004Y-113648985D01*
X92410001Y-113537332D01*
X92410001Y-113537323D01*
X92413677Y-113500000D01*
X92410001Y-113462677D01*
X92410001Y-106689802D01*
X93386004Y-105713800D01*
X93415002Y-105690002D01*
X93509975Y-105574277D01*
X93580547Y-105442248D01*
X93624004Y-105298987D01*
X93635001Y-105187334D01*
X93638678Y-105150001D01*
X93635001Y-105112668D01*
X93635001Y-104428065D01*
X93853262Y-104754715D01*
G37*
%TD.AperFunction*%
D30*
X85420285Y-105121738D02*
X85851859Y-105410107D01*
X86331399Y-105608739D01*
X86840475Y-105710000D01*
X87359525Y-105710000D01*
X87788749Y-105624622D01*
X87790001Y-105637332D01*
X87790000Y-110065629D01*
X87612871Y-109888500D01*
X87320515Y-109693153D01*
X86995665Y-109558596D01*
X86650807Y-109490000D01*
X86299193Y-109490000D01*
X85954335Y-109558596D01*
X85629485Y-109693153D01*
X85337129Y-109888500D01*
X85299990Y-109925639D01*
X85299990Y-105001443D01*
X85420285Y-105121738D01*
%TA.AperFunction,Conductor*%
D31*
G36*
X85420285Y-105121738D02*
G01*
X85851859Y-105410107D01*
X86331399Y-105608739D01*
X86840475Y-105710000D01*
X87359525Y-105710000D01*
X87788749Y-105624622D01*
X87790001Y-105637332D01*
X87790000Y-110065629D01*
X87612871Y-109888500D01*
X87320515Y-109693153D01*
X86995665Y-109558596D01*
X86650807Y-109490000D01*
X86299193Y-109490000D01*
X85954335Y-109558596D01*
X85629485Y-109693153D01*
X85337129Y-109888500D01*
X85299990Y-109925639D01*
X85299990Y-105001443D01*
X85420285Y-105121738D01*
G37*
%TD.AperFunction*%
D30*
X93347148Y-94683948D02*
X93272905Y-94714701D01*
X93021495Y-94882688D01*
X92807688Y-95096495D01*
X92750000Y-95182831D01*
X92692312Y-95096495D01*
X92478505Y-94882688D01*
X92227095Y-94714701D01*
X91947743Y-94598989D01*
X91651184Y-94540000D01*
X91348816Y-94540000D01*
X91052257Y-94598989D01*
X90772905Y-94714701D01*
X90521495Y-94882688D01*
X90307688Y-95096495D01*
X90250000Y-95182831D01*
X90192312Y-95096495D01*
X89978505Y-94882688D01*
X89727095Y-94714701D01*
X89447743Y-94598989D01*
X89151184Y-94540000D01*
X88848816Y-94540000D01*
X88552257Y-94598989D01*
X88272905Y-94714701D01*
X88021495Y-94882688D01*
X87807688Y-95096495D01*
X87639701Y-95347905D01*
X87523989Y-95627257D01*
X87465000Y-95923816D01*
X87465000Y-96226184D01*
X87523989Y-96522743D01*
X87639701Y-96802095D01*
X87807688Y-97053505D01*
X88021495Y-97267312D01*
X88272905Y-97435299D01*
X88552257Y-97551011D01*
X88665002Y-97573437D01*
X88665001Y-100951613D01*
X88348141Y-100739893D01*
X87868601Y-100541261D01*
X87359525Y-100440000D01*
X86840475Y-100440000D01*
X86331399Y-100541261D01*
X85851859Y-100739893D01*
X85420285Y-101028262D01*
X85299990Y-101148557D01*
X85299990Y-91383640D01*
X85324805Y-91396904D01*
X85588140Y-91476786D01*
X85793375Y-91497000D01*
X87406625Y-91497000D01*
X87611860Y-91476786D01*
X87875195Y-91396904D01*
X88117887Y-91267183D01*
X88330608Y-91092608D01*
X88505183Y-90879887D01*
X88515813Y-90860000D01*
X89523201Y-90860000D01*
X93347148Y-94683948D01*
%TA.AperFunction,Conductor*%
D31*
G36*
X93347148Y-94683948D02*
G01*
X93272905Y-94714701D01*
X93021495Y-94882688D01*
X92807688Y-95096495D01*
X92750000Y-95182831D01*
X92692312Y-95096495D01*
X92478505Y-94882688D01*
X92227095Y-94714701D01*
X91947743Y-94598989D01*
X91651184Y-94540000D01*
X91348816Y-94540000D01*
X91052257Y-94598989D01*
X90772905Y-94714701D01*
X90521495Y-94882688D01*
X90307688Y-95096495D01*
X90250000Y-95182831D01*
X90192312Y-95096495D01*
X89978505Y-94882688D01*
X89727095Y-94714701D01*
X89447743Y-94598989D01*
X89151184Y-94540000D01*
X88848816Y-94540000D01*
X88552257Y-94598989D01*
X88272905Y-94714701D01*
X88021495Y-94882688D01*
X87807688Y-95096495D01*
X87639701Y-95347905D01*
X87523989Y-95627257D01*
X87465000Y-95923816D01*
X87465000Y-96226184D01*
X87523989Y-96522743D01*
X87639701Y-96802095D01*
X87807688Y-97053505D01*
X88021495Y-97267312D01*
X88272905Y-97435299D01*
X88552257Y-97551011D01*
X88665002Y-97573437D01*
X88665001Y-100951613D01*
X88348141Y-100739893D01*
X87868601Y-100541261D01*
X87359525Y-100440000D01*
X86840475Y-100440000D01*
X86331399Y-100541261D01*
X85851859Y-100739893D01*
X85420285Y-101028262D01*
X85299990Y-101148557D01*
X85299990Y-91383640D01*
X85324805Y-91396904D01*
X85588140Y-91476786D01*
X85793375Y-91497000D01*
X87406625Y-91497000D01*
X87611860Y-91476786D01*
X87875195Y-91396904D01*
X88117887Y-91267183D01*
X88330608Y-91092608D01*
X88505183Y-90879887D01*
X88515813Y-90860000D01*
X89523201Y-90860000D01*
X93347148Y-94683948D01*
G37*
%TD.AperFunction*%
D30*
X118340000Y-93959392D02*
X118240537Y-93814216D01*
X118205189Y-93767415D01*
X117910141Y-93412150D01*
X117870626Y-93368810D01*
X117544059Y-93042283D01*
X117500715Y-93002773D01*
X117145415Y-92707769D01*
X117098610Y-92672428D01*
X116717607Y-92411462D01*
X116667740Y-92380589D01*
X116264285Y-92155890D01*
X116238336Y-92142214D01*
X109366470Y-88720788D01*
X109172755Y-88606957D01*
X109013927Y-88481161D01*
X108874002Y-88334626D01*
X108755669Y-88170169D01*
X108661189Y-87990936D01*
X108643906Y-87943070D01*
X109207780Y-87943070D01*
X109222738Y-88017276D01*
X109329878Y-88270535D01*
X109484368Y-88498026D01*
X109680271Y-88691006D01*
X109910058Y-88842059D01*
X110164899Y-88945381D01*
X110435000Y-88997000D01*
X111173000Y-88997000D01*
X111173000Y-87727000D01*
X111427000Y-87727000D01*
X111427000Y-88997000D01*
X112165000Y-88997000D01*
X112435101Y-88945381D01*
X112689942Y-88842059D01*
X112919729Y-88691006D01*
X113115632Y-88498026D01*
X113270122Y-88270535D01*
X113377262Y-88017276D01*
X113392220Y-87943070D01*
X113269720Y-87727000D01*
X111427000Y-87727000D01*
X111173000Y-87727000D01*
X109330280Y-87727000D01*
X109207780Y-87943070D01*
X108643906Y-87943070D01*
X108592378Y-87800366D01*
X108550559Y-87602129D01*
X108533771Y-87360275D01*
X108528003Y-87256930D01*
X109207780Y-87256930D01*
X109330280Y-87473000D01*
X111173000Y-87473000D01*
X111173000Y-86203000D01*
X111427000Y-86203000D01*
X111427000Y-87473000D01*
X113269720Y-87473000D01*
X113392220Y-87256930D01*
X113377262Y-87182724D01*
X113270122Y-86929465D01*
X113115632Y-86701974D01*
X112919729Y-86508994D01*
X112689942Y-86357941D01*
X112435101Y-86254619D01*
X112165000Y-86203000D01*
X111427000Y-86203000D01*
X111173000Y-86203000D01*
X110435000Y-86203000D01*
X110164899Y-86254619D01*
X109910058Y-86357941D01*
X109680271Y-86508994D01*
X109484368Y-86701974D01*
X109329878Y-86929465D01*
X109222738Y-87182724D01*
X109207780Y-87256930D01*
X108528003Y-87256930D01*
X108514386Y-87012969D01*
X108506510Y-86942634D01*
X108447873Y-86595358D01*
X108432219Y-86526335D01*
X108335300Y-86187742D01*
X108312062Y-86120893D01*
X108178066Y-85795188D01*
X108147533Y-85731336D01*
X107978123Y-85422566D01*
X107940675Y-85362513D01*
X107737957Y-85074512D01*
X107694057Y-85018995D01*
X107460548Y-84755343D01*
X107436347Y-84729507D01*
X101759583Y-78997980D01*
X110551626Y-78997980D01*
X110671514Y-79282836D01*
X110995210Y-79443699D01*
X111344069Y-79538322D01*
X111704684Y-79563067D01*
X112063198Y-79516985D01*
X112405833Y-79401846D01*
X112628486Y-79282836D01*
X112748374Y-78997980D01*
X111650000Y-77899605D01*
X110551626Y-78997980D01*
X101759583Y-78997980D01*
X100760910Y-77989673D01*
X100569966Y-77774684D01*
X109806933Y-77774684D01*
X109853015Y-78133198D01*
X109968154Y-78475833D01*
X110087164Y-78698486D01*
X110372020Y-78818374D01*
X111470395Y-77720000D01*
X111829605Y-77720000D01*
X112927980Y-78818374D01*
X113212836Y-78698486D01*
X113373699Y-78374790D01*
X113468322Y-78025931D01*
X113493067Y-77665316D01*
X113446985Y-77306802D01*
X113331846Y-76964167D01*
X113212836Y-76741514D01*
X112927980Y-76621626D01*
X111829605Y-77720000D01*
X111470395Y-77720000D01*
X110372020Y-76621626D01*
X110087164Y-76741514D01*
X109926301Y-77065210D01*
X109831678Y-77414069D01*
X109806933Y-77774684D01*
X100569966Y-77774684D01*
X100564555Y-77768592D01*
X100403369Y-77541620D01*
X100267762Y-77298491D01*
X100159337Y-77042081D01*
X100079379Y-76775431D01*
X100028825Y-76501665D01*
X100024411Y-76442020D01*
X110551626Y-76442020D01*
X111650000Y-77540395D01*
X112748374Y-76442020D01*
X112628486Y-76157164D01*
X112304790Y-75996301D01*
X111955931Y-75901678D01*
X111595316Y-75876933D01*
X111236802Y-75923015D01*
X110894167Y-76038154D01*
X110671514Y-76157164D01*
X110551626Y-76442020D01*
X100024411Y-76442020D01*
X100005728Y-76189580D01*
X100005363Y-76184881D01*
X99981558Y-75892713D01*
X99970377Y-75815104D01*
X99910745Y-75528097D01*
X99890084Y-75452455D01*
X99795533Y-75174985D01*
X99765707Y-75102467D01*
X99637680Y-74838767D01*
X99599144Y-74770477D01*
X99439592Y-74524566D01*
X99392931Y-74461545D01*
X99204286Y-74237174D01*
X99150216Y-74180387D01*
X98935357Y-73980977D01*
X98874700Y-73931286D01*
X98636902Y-73759877D01*
X98604388Y-73737935D01*
X95395059Y-71713401D01*
X95198191Y-71571813D01*
X95142005Y-71520000D01*
X109811928Y-71520000D01*
X109811928Y-73920000D01*
X109824188Y-74044482D01*
X109860498Y-74164180D01*
X109919463Y-74274494D01*
X109998815Y-74371185D01*
X110095506Y-74450537D01*
X110205820Y-74509502D01*
X110325518Y-74545812D01*
X110450000Y-74558072D01*
X112850000Y-74558072D01*
X112974482Y-74545812D01*
X113094180Y-74509502D01*
X113204494Y-74450537D01*
X113301185Y-74371185D01*
X113380537Y-74274494D01*
X113439502Y-74164180D01*
X113475812Y-74044482D01*
X113488072Y-73920000D01*
X113488072Y-71520000D01*
X113475812Y-71395518D01*
X113439502Y-71275820D01*
X113380537Y-71165506D01*
X113301185Y-71068815D01*
X113204494Y-70989463D01*
X113094180Y-70930498D01*
X112974482Y-70894188D01*
X112850000Y-70881928D01*
X110450000Y-70881928D01*
X110325518Y-70894188D01*
X110205820Y-70930498D01*
X110095506Y-70989463D01*
X109998815Y-71068815D01*
X109919463Y-71165506D01*
X109860498Y-71275820D01*
X109824188Y-71395518D01*
X109811928Y-71520000D01*
X95142005Y-71520000D01*
X95034136Y-71420527D01*
X94889614Y-71250483D01*
X94766755Y-71064183D01*
X94667369Y-70864377D01*
X94592919Y-70654004D01*
X94536723Y-70401172D01*
X94446134Y-69975781D01*
X94429117Y-69912233D01*
X94294114Y-69495757D01*
X94270613Y-69434308D01*
X94093243Y-69034035D01*
X94063510Y-68975349D01*
X93845678Y-68595576D01*
X93810034Y-68540282D01*
X93554079Y-68185085D01*
X93534156Y-68158895D01*
X92418928Y-66769150D01*
X92401403Y-66748248D01*
X92324128Y-66660000D01*
X118340000Y-66660000D01*
X118340000Y-93959392D01*
%TA.AperFunction,Conductor*%
D31*
G36*
X118340000Y-93959392D02*
G01*
X118240537Y-93814216D01*
X118205189Y-93767415D01*
X117910141Y-93412150D01*
X117870626Y-93368810D01*
X117544059Y-93042283D01*
X117500715Y-93002773D01*
X117145415Y-92707769D01*
X117098610Y-92672428D01*
X116717607Y-92411462D01*
X116667740Y-92380589D01*
X116264285Y-92155890D01*
X116238336Y-92142214D01*
X109366470Y-88720788D01*
X109172755Y-88606957D01*
X109013927Y-88481161D01*
X108874002Y-88334626D01*
X108755669Y-88170169D01*
X108661189Y-87990936D01*
X108643906Y-87943070D01*
X109207780Y-87943070D01*
X109222738Y-88017276D01*
X109329878Y-88270535D01*
X109484368Y-88498026D01*
X109680271Y-88691006D01*
X109910058Y-88842059D01*
X110164899Y-88945381D01*
X110435000Y-88997000D01*
X111173000Y-88997000D01*
X111173000Y-87727000D01*
X111427000Y-87727000D01*
X111427000Y-88997000D01*
X112165000Y-88997000D01*
X112435101Y-88945381D01*
X112689942Y-88842059D01*
X112919729Y-88691006D01*
X113115632Y-88498026D01*
X113270122Y-88270535D01*
X113377262Y-88017276D01*
X113392220Y-87943070D01*
X113269720Y-87727000D01*
X111427000Y-87727000D01*
X111173000Y-87727000D01*
X109330280Y-87727000D01*
X109207780Y-87943070D01*
X108643906Y-87943070D01*
X108592378Y-87800366D01*
X108550559Y-87602129D01*
X108533771Y-87360275D01*
X108528003Y-87256930D01*
X109207780Y-87256930D01*
X109330280Y-87473000D01*
X111173000Y-87473000D01*
X111173000Y-86203000D01*
X111427000Y-86203000D01*
X111427000Y-87473000D01*
X113269720Y-87473000D01*
X113392220Y-87256930D01*
X113377262Y-87182724D01*
X113270122Y-86929465D01*
X113115632Y-86701974D01*
X112919729Y-86508994D01*
X112689942Y-86357941D01*
X112435101Y-86254619D01*
X112165000Y-86203000D01*
X111427000Y-86203000D01*
X111173000Y-86203000D01*
X110435000Y-86203000D01*
X110164899Y-86254619D01*
X109910058Y-86357941D01*
X109680271Y-86508994D01*
X109484368Y-86701974D01*
X109329878Y-86929465D01*
X109222738Y-87182724D01*
X109207780Y-87256930D01*
X108528003Y-87256930D01*
X108514386Y-87012969D01*
X108506510Y-86942634D01*
X108447873Y-86595358D01*
X108432219Y-86526335D01*
X108335300Y-86187742D01*
X108312062Y-86120893D01*
X108178066Y-85795188D01*
X108147533Y-85731336D01*
X107978123Y-85422566D01*
X107940675Y-85362513D01*
X107737957Y-85074512D01*
X107694057Y-85018995D01*
X107460548Y-84755343D01*
X107436347Y-84729507D01*
X101759583Y-78997980D01*
X110551626Y-78997980D01*
X110671514Y-79282836D01*
X110995210Y-79443699D01*
X111344069Y-79538322D01*
X111704684Y-79563067D01*
X112063198Y-79516985D01*
X112405833Y-79401846D01*
X112628486Y-79282836D01*
X112748374Y-78997980D01*
X111650000Y-77899605D01*
X110551626Y-78997980D01*
X101759583Y-78997980D01*
X100760910Y-77989673D01*
X100569966Y-77774684D01*
X109806933Y-77774684D01*
X109853015Y-78133198D01*
X109968154Y-78475833D01*
X110087164Y-78698486D01*
X110372020Y-78818374D01*
X111470395Y-77720000D01*
X111829605Y-77720000D01*
X112927980Y-78818374D01*
X113212836Y-78698486D01*
X113373699Y-78374790D01*
X113468322Y-78025931D01*
X113493067Y-77665316D01*
X113446985Y-77306802D01*
X113331846Y-76964167D01*
X113212836Y-76741514D01*
X112927980Y-76621626D01*
X111829605Y-77720000D01*
X111470395Y-77720000D01*
X110372020Y-76621626D01*
X110087164Y-76741514D01*
X109926301Y-77065210D01*
X109831678Y-77414069D01*
X109806933Y-77774684D01*
X100569966Y-77774684D01*
X100564555Y-77768592D01*
X100403369Y-77541620D01*
X100267762Y-77298491D01*
X100159337Y-77042081D01*
X100079379Y-76775431D01*
X100028825Y-76501665D01*
X100024411Y-76442020D01*
X110551626Y-76442020D01*
X111650000Y-77540395D01*
X112748374Y-76442020D01*
X112628486Y-76157164D01*
X112304790Y-75996301D01*
X111955931Y-75901678D01*
X111595316Y-75876933D01*
X111236802Y-75923015D01*
X110894167Y-76038154D01*
X110671514Y-76157164D01*
X110551626Y-76442020D01*
X100024411Y-76442020D01*
X100005728Y-76189580D01*
X100005363Y-76184881D01*
X99981558Y-75892713D01*
X99970377Y-75815104D01*
X99910745Y-75528097D01*
X99890084Y-75452455D01*
X99795533Y-75174985D01*
X99765707Y-75102467D01*
X99637680Y-74838767D01*
X99599144Y-74770477D01*
X99439592Y-74524566D01*
X99392931Y-74461545D01*
X99204286Y-74237174D01*
X99150216Y-74180387D01*
X98935357Y-73980977D01*
X98874700Y-73931286D01*
X98636902Y-73759877D01*
X98604388Y-73737935D01*
X95395059Y-71713401D01*
X95198191Y-71571813D01*
X95142005Y-71520000D01*
X109811928Y-71520000D01*
X109811928Y-73920000D01*
X109824188Y-74044482D01*
X109860498Y-74164180D01*
X109919463Y-74274494D01*
X109998815Y-74371185D01*
X110095506Y-74450537D01*
X110205820Y-74509502D01*
X110325518Y-74545812D01*
X110450000Y-74558072D01*
X112850000Y-74558072D01*
X112974482Y-74545812D01*
X113094180Y-74509502D01*
X113204494Y-74450537D01*
X113301185Y-74371185D01*
X113380537Y-74274494D01*
X113439502Y-74164180D01*
X113475812Y-74044482D01*
X113488072Y-73920000D01*
X113488072Y-71520000D01*
X113475812Y-71395518D01*
X113439502Y-71275820D01*
X113380537Y-71165506D01*
X113301185Y-71068815D01*
X113204494Y-70989463D01*
X113094180Y-70930498D01*
X112974482Y-70894188D01*
X112850000Y-70881928D01*
X110450000Y-70881928D01*
X110325518Y-70894188D01*
X110205820Y-70930498D01*
X110095506Y-70989463D01*
X109998815Y-71068815D01*
X109919463Y-71165506D01*
X109860498Y-71275820D01*
X109824188Y-71395518D01*
X109811928Y-71520000D01*
X95142005Y-71520000D01*
X95034136Y-71420527D01*
X94889614Y-71250483D01*
X94766755Y-71064183D01*
X94667369Y-70864377D01*
X94592919Y-70654004D01*
X94536723Y-70401172D01*
X94446134Y-69975781D01*
X94429117Y-69912233D01*
X94294114Y-69495757D01*
X94270613Y-69434308D01*
X94093243Y-69034035D01*
X94063510Y-68975349D01*
X93845678Y-68595576D01*
X93810034Y-68540282D01*
X93554079Y-68185085D01*
X93534156Y-68158895D01*
X92418928Y-66769150D01*
X92401403Y-66748248D01*
X92324128Y-66660000D01*
X118340000Y-66660000D01*
X118340000Y-93959392D01*
G37*
%TD.AperFunction*%
%TD*%
D30*
%TO.N,GNDREF*%
X87362075Y-66741683D02*
X87478729Y-66858337D01*
X87244963Y-66917797D01*
X87134066Y-67156242D01*
X87071817Y-67411740D01*
X87060610Y-67674473D01*
X87100875Y-67934344D01*
X87191065Y-68181366D01*
X87244963Y-68282203D01*
X87478731Y-68341664D01*
X88220395Y-67600000D01*
X88206253Y-67585858D01*
X88385858Y-67406253D01*
X88400000Y-67420395D01*
X88414143Y-67406253D01*
X88593748Y-67585858D01*
X88579605Y-67600000D01*
X89321269Y-68341664D01*
X89555037Y-68282203D01*
X89665934Y-68043758D01*
X89728183Y-67788260D01*
X89739390Y-67525527D01*
X89699125Y-67265656D01*
X89608935Y-67018634D01*
X89555037Y-66917797D01*
X89321271Y-66858337D01*
X89437925Y-66741683D01*
X89356242Y-66660000D01*
X91266629Y-66660000D01*
X91548799Y-66931252D01*
X91826334Y-67248195D01*
X92937787Y-68633236D01*
X93187971Y-68980424D01*
X93399246Y-69348766D01*
X93571278Y-69736994D01*
X93702217Y-70140932D01*
X93792035Y-70562702D01*
X93792275Y-70563805D01*
X93857446Y-70857016D01*
X93861697Y-70871831D01*
X93961905Y-71154988D01*
X93967919Y-71169178D01*
X94101689Y-71438111D01*
X94109378Y-71451469D01*
X94274740Y-71702218D01*
X94283990Y-71714546D01*
X94478509Y-71943417D01*
X94489184Y-71954533D01*
X94709994Y-72158157D01*
X94721938Y-72167899D01*
X94965788Y-72343275D01*
X94972181Y-72347584D01*
X98194504Y-74380316D01*
X98422751Y-74544840D01*
X98626098Y-74733566D01*
X98804629Y-74945908D01*
X98955630Y-75178640D01*
X99076794Y-75428203D01*
X99166278Y-75690803D01*
X99222711Y-75962416D01*
X99245841Y-76246292D01*
X99271454Y-76592371D01*
X99273219Y-76606059D01*
X99336321Y-76947779D01*
X99339561Y-76961195D01*
X99439371Y-77294050D01*
X99444048Y-77307035D01*
X99579388Y-77627093D01*
X99585446Y-77639493D01*
X99754716Y-77942976D01*
X99762084Y-77954647D01*
X99963287Y-78237970D01*
X99971878Y-78248772D01*
X100202637Y-78508588D01*
X100207359Y-78513622D01*
X106892458Y-85263212D01*
X107118919Y-85518907D01*
X107313481Y-85795320D01*
X107476068Y-86091654D01*
X107604670Y-86404247D01*
X107697691Y-86729222D01*
X107753965Y-87062503D01*
X107773197Y-87407077D01*
X107773305Y-87408795D01*
X107793440Y-87698862D01*
X107795870Y-87716281D01*
X107855887Y-88000783D01*
X107860700Y-88017700D01*
X107959449Y-88291183D01*
X107966554Y-88307274D01*
X108102141Y-88564490D01*
X108111401Y-88579444D01*
X108281225Y-88815461D01*
X108292462Y-88828992D01*
X108493266Y-89039282D01*
X108506264Y-89051131D01*
X108734196Y-89231660D01*
X108748707Y-89241599D01*
X108999395Y-89388907D01*
X109007132Y-89393100D01*
X115896078Y-92823031D01*
X116291853Y-93043452D01*
X116663161Y-93297778D01*
X117009429Y-93585283D01*
X117327692Y-93903506D01*
X117615234Y-94249734D01*
X117869617Y-94621030D01*
X118088641Y-95014183D01*
X118270472Y-95425899D01*
X118340000Y-95633281D01*
X118340000Y-101001726D01*
X117948141Y-100739893D01*
X117468601Y-100541261D01*
X116959525Y-100440000D01*
X116440475Y-100440000D01*
X115931399Y-100541261D01*
X115451859Y-100739893D01*
X115020285Y-101028262D01*
X114653262Y-101395285D01*
X114364893Y-101826859D01*
X114166261Y-102306399D01*
X114065000Y-102815475D01*
X114065000Y-103334525D01*
X114166261Y-103843601D01*
X114364893Y-104323141D01*
X114653262Y-104754715D01*
X115020285Y-105121738D01*
X115451859Y-105410107D01*
X115931399Y-105608739D01*
X116440475Y-105710000D01*
X116959525Y-105710000D01*
X117468601Y-105608739D01*
X117948141Y-105410107D01*
X118340001Y-105148274D01*
X118340001Y-128982333D01*
X118317016Y-129037837D01*
X118160386Y-129321286D01*
X117972998Y-129585421D01*
X117757216Y-129826909D01*
X117515754Y-130042715D01*
X117251638Y-130230131D01*
X116968205Y-130386792D01*
X116669014Y-130510730D01*
X116357817Y-130600390D01*
X116038549Y-130654640D01*
X115711646Y-130673000D01*
X114601824Y-130673000D01*
X114682203Y-130630037D01*
X114741664Y-130396269D01*
X114000000Y-129654605D01*
X113258336Y-130396269D01*
X113317797Y-130630037D01*
X113434140Y-130684146D01*
X113314932Y-130691863D01*
X113298662Y-130693978D01*
X113016149Y-130749460D01*
X113000287Y-130753656D01*
X112727286Y-130845098D01*
X112712097Y-130851303D01*
X112453163Y-130977177D01*
X112438901Y-130985289D01*
X112198355Y-131143496D01*
X112185258Y-131153378D01*
X111967116Y-131341275D01*
X111955265Y-131352917D01*
X111764046Y-131567086D01*
X111753701Y-131580344D01*
X111592456Y-131817900D01*
X111583953Y-131832410D01*
X111455511Y-132089190D01*
X111449000Y-132104696D01*
X111355612Y-132376194D01*
X111351207Y-132392424D01*
X111294511Y-132673882D01*
X111292289Y-132690552D01*
X111273279Y-132977034D01*
X111273000Y-132985443D01*
X111273000Y-136279468D01*
X111253575Y-136715550D01*
X111195830Y-137145378D01*
X111100098Y-137568363D01*
X110967131Y-137981177D01*
X110797995Y-138380515D01*
X110594019Y-138763239D01*
X110356817Y-139126319D01*
X110088281Y-139466861D01*
X109788579Y-139784243D01*
X109562981Y-140002791D01*
X109250659Y-140280556D01*
X108917989Y-140529102D01*
X108565357Y-140748426D01*
X108195343Y-140936923D01*
X107810615Y-141093237D01*
X107413980Y-141216223D01*
X107008314Y-141304993D01*
X106596566Y-141358901D01*
X106179008Y-141377677D01*
X70014041Y-141461393D01*
X69585914Y-141443666D01*
X69163713Y-141388993D01*
X68747889Y-141297676D01*
X68341624Y-141170414D01*
X67948014Y-141008175D01*
X67570081Y-140812207D01*
X67210681Y-140583991D01*
X66872579Y-140325281D01*
X66558339Y-140038037D01*
X66270385Y-139724480D01*
X66010893Y-139386979D01*
X65781843Y-139028104D01*
X65584994Y-138650613D01*
X65421851Y-138257396D01*
X65293647Y-137851422D01*
X65228647Y-137558665D01*
X65640000Y-137558665D01*
X65640000Y-137841335D01*
X65695147Y-138118574D01*
X65803320Y-138379727D01*
X65960363Y-138614759D01*
X66160241Y-138814637D01*
X66395273Y-138971680D01*
X66656426Y-139079853D01*
X66933665Y-139135000D01*
X67216335Y-139135000D01*
X67493574Y-139079853D01*
X67754727Y-138971680D01*
X67989759Y-138814637D01*
X68189637Y-138614759D01*
X68346680Y-138379727D01*
X68454853Y-138118574D01*
X68510000Y-137841335D01*
X68510000Y-137558665D01*
X68454853Y-137281426D01*
X68346680Y-137020273D01*
X68189637Y-136785241D01*
X67989759Y-136585363D01*
X67754727Y-136428320D01*
X67493574Y-136320147D01*
X67216335Y-136265000D01*
X66933665Y-136265000D01*
X66656426Y-136320147D01*
X66395273Y-136428320D01*
X66160241Y-136585363D01*
X65960363Y-136785241D01*
X65803320Y-137020273D01*
X65695147Y-137281426D01*
X65640000Y-137558665D01*
X65228647Y-137558665D01*
X65201369Y-137435809D01*
X65145720Y-137013743D01*
X65127000Y-136585632D01*
X65127000Y-132558665D01*
X65640000Y-132558665D01*
X65640000Y-132841335D01*
X65695147Y-133118574D01*
X65803320Y-133379727D01*
X65960363Y-133614759D01*
X66160241Y-133814637D01*
X66395273Y-133971680D01*
X66656426Y-134079853D01*
X66933665Y-134135000D01*
X67216335Y-134135000D01*
X67493574Y-134079853D01*
X67754727Y-133971680D01*
X67989759Y-133814637D01*
X68189637Y-133614759D01*
X68346680Y-133379727D01*
X68454853Y-133118574D01*
X68510000Y-132841335D01*
X68510000Y-132558665D01*
X68454853Y-132281426D01*
X68346680Y-132020273D01*
X68189637Y-131785241D01*
X67989759Y-131585363D01*
X67754727Y-131428320D01*
X67493574Y-131320147D01*
X67216335Y-131265000D01*
X66933665Y-131265000D01*
X66656426Y-131320147D01*
X66395273Y-131428320D01*
X66160241Y-131585363D01*
X65960363Y-131785241D01*
X65803320Y-132020273D01*
X65695147Y-132281426D01*
X65640000Y-132558665D01*
X65127000Y-132558665D01*
X65127000Y-130492702D01*
X66286903Y-130492702D01*
X66358486Y-130736671D01*
X66613996Y-130857571D01*
X66888184Y-130926300D01*
X67170512Y-130940217D01*
X67450130Y-130898787D01*
X67716292Y-130803603D01*
X67841514Y-130736671D01*
X67913097Y-130492702D01*
X67100000Y-129679605D01*
X66286903Y-130492702D01*
X65127000Y-130492702D01*
X65127000Y-129570512D01*
X65659783Y-129570512D01*
X65701213Y-129850130D01*
X65796397Y-130116292D01*
X65863329Y-130241514D01*
X66107298Y-130313097D01*
X66920395Y-129500000D01*
X67279605Y-129500000D01*
X68092702Y-130313097D01*
X68336671Y-130241514D01*
X68457571Y-129986004D01*
X68526300Y-129711816D01*
X68540217Y-129429488D01*
X68498787Y-129149870D01*
X68403603Y-128883708D01*
X68336671Y-128758486D01*
X68092702Y-128686903D01*
X67279605Y-129500000D01*
X66920395Y-129500000D01*
X66107298Y-128686903D01*
X65863329Y-128758486D01*
X65742429Y-129013996D01*
X65673700Y-129288184D01*
X65659783Y-129570512D01*
X65127000Y-129570512D01*
X65127000Y-128904530D01*
X65145367Y-128647728D01*
X65175915Y-128507298D01*
X66286903Y-128507298D01*
X67100000Y-129320395D01*
X67913097Y-128507298D01*
X67841514Y-128263329D01*
X67586004Y-128142429D01*
X67311816Y-128073700D01*
X67029488Y-128059783D01*
X66749870Y-128101213D01*
X66483708Y-128196397D01*
X66358486Y-128263329D01*
X66286903Y-128507298D01*
X65175915Y-128507298D01*
X65199130Y-128400579D01*
X65287519Y-128163601D01*
X65408730Y-127941618D01*
X65560298Y-127739149D01*
X65739149Y-127560298D01*
X65941618Y-127408730D01*
X66163601Y-127287519D01*
X66400579Y-127199130D01*
X66647728Y-127145367D01*
X66900000Y-127127324D01*
X67152272Y-127145367D01*
X67399421Y-127199130D01*
X67636399Y-127287519D01*
X67858382Y-127408730D01*
X68060851Y-127560298D01*
X68239702Y-127739149D01*
X68391270Y-127941618D01*
X68512481Y-128163601D01*
X68600870Y-128400579D01*
X68654633Y-128647728D01*
X68673000Y-128904530D01*
X68673000Y-132128932D01*
X68673121Y-132134472D01*
X68692148Y-132570251D01*
X68693113Y-132581288D01*
X68750047Y-133013750D01*
X68751971Y-133024661D01*
X68846381Y-133450515D01*
X68849249Y-133461217D01*
X68980415Y-133877223D01*
X68984204Y-133887634D01*
X69151128Y-134290624D01*
X69155811Y-134300665D01*
X69357223Y-134687574D01*
X69362762Y-134697169D01*
X69597129Y-135065051D01*
X69603484Y-135074127D01*
X69869022Y-135420183D01*
X69876144Y-135428670D01*
X70170832Y-135750266D01*
X70174663Y-135754269D01*
X71445731Y-137025337D01*
X71449734Y-137029168D01*
X71771330Y-137323856D01*
X71779817Y-137330978D01*
X72125873Y-137596516D01*
X72134949Y-137602871D01*
X72190792Y-137638447D01*
X72031426Y-137670147D01*
X71770273Y-137778320D01*
X71535241Y-137935363D01*
X71335363Y-138135241D01*
X71178320Y-138370273D01*
X71070147Y-138631426D01*
X71015000Y-138908665D01*
X71015000Y-139191335D01*
X71070147Y-139468574D01*
X71178320Y-139729727D01*
X71335363Y-139964759D01*
X71535241Y-140164637D01*
X71770273Y-140321680D01*
X72031426Y-140429853D01*
X72308665Y-140485000D01*
X72591335Y-140485000D01*
X72868574Y-140429853D01*
X73129727Y-140321680D01*
X73364759Y-140164637D01*
X73564637Y-139964759D01*
X73721680Y-139729727D01*
X73829853Y-139468574D01*
X73885000Y-139191335D01*
X73885000Y-138908665D01*
X73847467Y-138719978D01*
X73884972Y-138674278D01*
X73884973Y-138674277D01*
X73955545Y-138542248D01*
X73996174Y-138408309D01*
X74175339Y-138448029D01*
X74186250Y-138449953D01*
X74618712Y-138506887D01*
X74629749Y-138507852D01*
X75065528Y-138526879D01*
X75071068Y-138527000D01*
X76113402Y-138527000D01*
X76070147Y-138631426D01*
X76015000Y-138908665D01*
X76015000Y-139191335D01*
X76070147Y-139468574D01*
X76178320Y-139729727D01*
X76335363Y-139964759D01*
X76535241Y-140164637D01*
X76770273Y-140321680D01*
X77031426Y-140429853D01*
X77308665Y-140485000D01*
X77591335Y-140485000D01*
X77868574Y-140429853D01*
X78129727Y-140321680D01*
X78364759Y-140164637D01*
X78564637Y-139964759D01*
X78721680Y-139729727D01*
X78829853Y-139468574D01*
X78885000Y-139191335D01*
X78885000Y-138908665D01*
X78848688Y-138726113D01*
X79047801Y-138527000D01*
X80465000Y-138527000D01*
X80465000Y-138667581D01*
X80461807Y-138700000D01*
X80474550Y-138829383D01*
X80512290Y-138953793D01*
X80573575Y-139068450D01*
X80656052Y-139168948D01*
X80756550Y-139251425D01*
X80871207Y-139312710D01*
X80995617Y-139350450D01*
X81125000Y-139363193D01*
X81157419Y-139360000D01*
X101217581Y-139360000D01*
X101250000Y-139363193D01*
X101282419Y-139360000D01*
X101379383Y-139350450D01*
X101503793Y-139312710D01*
X101618450Y-139251425D01*
X101718948Y-139168948D01*
X101801425Y-139068450D01*
X101862710Y-138953793D01*
X101900450Y-138829383D01*
X101913193Y-138700000D01*
X101910000Y-138667581D01*
X101910000Y-138527000D01*
X106610051Y-138527000D01*
X106618357Y-138526728D01*
X106930308Y-138506282D01*
X106946779Y-138504114D01*
X107253392Y-138443124D01*
X107269438Y-138438824D01*
X107565468Y-138338336D01*
X107580816Y-138331979D01*
X107861196Y-138193710D01*
X107875582Y-138185404D01*
X108135517Y-138011722D01*
X108148697Y-138001609D01*
X108383737Y-137795484D01*
X108395661Y-137783535D01*
X108600529Y-137548928D01*
X108610911Y-137535278D01*
X108782303Y-137275208D01*
X108790751Y-137260284D01*
X108925542Y-136979495D01*
X108931903Y-136963569D01*
X109027637Y-136667180D01*
X109031794Y-136650542D01*
X109086723Y-136343957D01*
X109088601Y-136326911D01*
X109101725Y-136015721D01*
X109101797Y-136007142D01*
X108937604Y-129549473D01*
X112660610Y-129549473D01*
X112700875Y-129809344D01*
X112791065Y-130056366D01*
X112844963Y-130157203D01*
X113078731Y-130216664D01*
X113820395Y-129475000D01*
X114179605Y-129475000D01*
X114921269Y-130216664D01*
X115155037Y-130157203D01*
X115265934Y-129918758D01*
X115328183Y-129663260D01*
X115339390Y-129400527D01*
X115299125Y-129140656D01*
X115208935Y-128893634D01*
X115155037Y-128792797D01*
X114921269Y-128733336D01*
X114179605Y-129475000D01*
X113820395Y-129475000D01*
X113078731Y-128733336D01*
X112844963Y-128792797D01*
X112734066Y-129031242D01*
X112671817Y-129286740D01*
X112660610Y-129549473D01*
X108937604Y-129549473D01*
X108898990Y-128030812D01*
X109621473Y-127308329D01*
X112727284Y-127308329D01*
X112759953Y-127416044D01*
X112870208Y-127653392D01*
X113024649Y-127864670D01*
X113217340Y-128041759D01*
X113440877Y-128177853D01*
X113550480Y-128217927D01*
X113418634Y-128266065D01*
X113317797Y-128319963D01*
X113258336Y-128553731D01*
X114000000Y-129295395D01*
X114741664Y-128553731D01*
X114682203Y-128319963D01*
X114474566Y-128223394D01*
X114599123Y-128177853D01*
X114822660Y-128041759D01*
X115015351Y-127864670D01*
X115169792Y-127653392D01*
X115280047Y-127416044D01*
X115312716Y-127308329D01*
X115189374Y-127102000D01*
X114147000Y-127102000D01*
X114147000Y-127122000D01*
X113893000Y-127122000D01*
X113893000Y-127102000D01*
X112850626Y-127102000D01*
X112727284Y-127308329D01*
X109621473Y-127308329D01*
X110811003Y-126118799D01*
X110840001Y-126095001D01*
X110934974Y-125979276D01*
X111005546Y-125847247D01*
X111049003Y-125703986D01*
X111060000Y-125592333D01*
X111060000Y-125592324D01*
X111063676Y-125555001D01*
X111060000Y-125517678D01*
X111060000Y-125175000D01*
X112661928Y-125175000D01*
X112674188Y-125299482D01*
X112710498Y-125419180D01*
X112769463Y-125529494D01*
X112848815Y-125626185D01*
X112945506Y-125705537D01*
X113055820Y-125764502D01*
X113175518Y-125800812D01*
X113300000Y-125813072D01*
X113374387Y-125812628D01*
X113217340Y-125908241D01*
X113024649Y-126085330D01*
X112870208Y-126296608D01*
X112759953Y-126533956D01*
X112727284Y-126641671D01*
X112850626Y-126848000D01*
X113893000Y-126848000D01*
X113893000Y-125804799D01*
X114147000Y-125804799D01*
X114147000Y-126848000D01*
X115189374Y-126848000D01*
X115312716Y-126641671D01*
X115280047Y-126533956D01*
X115169792Y-126296608D01*
X115015351Y-126085330D01*
X114822660Y-125908241D01*
X114664028Y-125811662D01*
X114900000Y-125813072D01*
X115024482Y-125800812D01*
X115144180Y-125764502D01*
X115254494Y-125705537D01*
X115351185Y-125626185D01*
X115430537Y-125529494D01*
X115489502Y-125419180D01*
X115525812Y-125299482D01*
X115538072Y-125175000D01*
X115535000Y-124660750D01*
X115376250Y-124502000D01*
X114227000Y-124502000D01*
X114227000Y-125651250D01*
X114293535Y-125717785D01*
X114147000Y-125804799D01*
X113893000Y-125804799D01*
X113846853Y-125777397D01*
X113973000Y-125651250D01*
X113973000Y-124502000D01*
X112823750Y-124502000D01*
X112665000Y-124660750D01*
X112661928Y-125175000D01*
X111060000Y-125175000D01*
X111060000Y-123575000D01*
X112661928Y-123575000D01*
X112665000Y-124089250D01*
X112823750Y-124248000D01*
X113973000Y-124248000D01*
X113973000Y-123098750D01*
X114227000Y-123098750D01*
X114227000Y-124248000D01*
X115376250Y-124248000D01*
X115535000Y-124089250D01*
X115538072Y-123575000D01*
X115525812Y-123450518D01*
X115489502Y-123330820D01*
X115430537Y-123220506D01*
X115351185Y-123123815D01*
X115254494Y-123044463D01*
X115144180Y-122985498D01*
X115024482Y-122949188D01*
X114950866Y-122941938D01*
X114975131Y-122927385D01*
X115183519Y-122738414D01*
X115351037Y-122512420D01*
X115471246Y-122258087D01*
X115511904Y-122124039D01*
X115389915Y-121902000D01*
X114247000Y-121902000D01*
X114247000Y-123045624D01*
X114268424Y-123057326D01*
X114227000Y-123098750D01*
X113973000Y-123098750D01*
X113945707Y-123071457D01*
X113993000Y-123045624D01*
X113993000Y-121902000D01*
X112850085Y-121902000D01*
X112728096Y-122124039D01*
X112768754Y-122258087D01*
X112888963Y-122512420D01*
X113056481Y-122738414D01*
X113264869Y-122927385D01*
X113283492Y-122938554D01*
X113175518Y-122949188D01*
X113055820Y-122985498D01*
X112945506Y-123044463D01*
X112848815Y-123123815D01*
X112769463Y-123220506D01*
X112710498Y-123330820D01*
X112674188Y-123450518D01*
X112661928Y-123575000D01*
X111060000Y-123575000D01*
X111060000Y-115575000D01*
X112661928Y-115575000D01*
X112661928Y-117175000D01*
X112674188Y-117299482D01*
X112710498Y-117419180D01*
X112769463Y-117529494D01*
X112848815Y-117626185D01*
X112945506Y-117705537D01*
X113055820Y-117764502D01*
X113175518Y-117800812D01*
X113300000Y-117813072D01*
X113340001Y-117813072D01*
X113340001Y-117923771D01*
X113168987Y-118038038D01*
X112983038Y-118223987D01*
X112836939Y-118442641D01*
X112736304Y-118685595D01*
X112685000Y-118943514D01*
X112685000Y-119206486D01*
X112736304Y-119464405D01*
X112836939Y-119707359D01*
X112983038Y-119926013D01*
X113168987Y-120111962D01*
X113387641Y-120258061D01*
X113630595Y-120358696D01*
X113764630Y-120385358D01*
X113506119Y-120477930D01*
X113264869Y-120622615D01*
X113056481Y-120811586D01*
X112888963Y-121037580D01*
X112768754Y-121291913D01*
X112728096Y-121425961D01*
X112850085Y-121648000D01*
X113993000Y-121648000D01*
X113993000Y-121628000D01*
X114247000Y-121628000D01*
X114247000Y-121648000D01*
X115389915Y-121648000D01*
X115511904Y-121425961D01*
X115471246Y-121291913D01*
X115351037Y-121037580D01*
X115183519Y-120811586D01*
X114975131Y-120622615D01*
X114733881Y-120477930D01*
X114469040Y-120383091D01*
X114247002Y-120504375D01*
X114247002Y-120391000D01*
X114409405Y-120358696D01*
X114652359Y-120258061D01*
X114871013Y-120111962D01*
X115056962Y-119926013D01*
X115203061Y-119707359D01*
X115303696Y-119464405D01*
X115355000Y-119206486D01*
X115355000Y-118943514D01*
X115303696Y-118685595D01*
X115203061Y-118442641D01*
X115056962Y-118223987D01*
X114871013Y-118038038D01*
X114860000Y-118030679D01*
X114860000Y-117813072D01*
X114900000Y-117813072D01*
X115024482Y-117800812D01*
X115144180Y-117764502D01*
X115254494Y-117705537D01*
X115351185Y-117626185D01*
X115430537Y-117529494D01*
X115489502Y-117419180D01*
X115525812Y-117299482D01*
X115538072Y-117175000D01*
X115538072Y-115575000D01*
X115525812Y-115450518D01*
X115489502Y-115330820D01*
X115430537Y-115220506D01*
X115351185Y-115123815D01*
X115254494Y-115044463D01*
X115144180Y-114985498D01*
X115024482Y-114949188D01*
X114955763Y-114942420D01*
X115034759Y-114889637D01*
X115234637Y-114689759D01*
X115391680Y-114454727D01*
X115499853Y-114193574D01*
X115555000Y-113916335D01*
X115555000Y-113633665D01*
X115499853Y-113356426D01*
X115391680Y-113095273D01*
X115234637Y-112860241D01*
X115034759Y-112660363D01*
X114799727Y-112503320D01*
X114538574Y-112395147D01*
X114261335Y-112340000D01*
X113978665Y-112340000D01*
X113701426Y-112395147D01*
X113440273Y-112503320D01*
X113205241Y-112660363D01*
X113005363Y-112860241D01*
X112848320Y-113095273D01*
X112740147Y-113356426D01*
X112685000Y-113633665D01*
X112685000Y-113916335D01*
X112740147Y-114193574D01*
X112848320Y-114454727D01*
X113005363Y-114689759D01*
X113205241Y-114889637D01*
X113279098Y-114938987D01*
X113175518Y-114949188D01*
X113055820Y-114985498D01*
X112945506Y-115044463D01*
X112848815Y-115123815D01*
X112769463Y-115220506D01*
X112710498Y-115330820D01*
X112674188Y-115450518D01*
X112661928Y-115575000D01*
X111060000Y-115575000D01*
X111060000Y-104717950D01*
X111225875Y-104883825D01*
X111501853Y-105068228D01*
X111808504Y-105195246D01*
X112134042Y-105260000D01*
X112465958Y-105260000D01*
X112791496Y-105195246D01*
X113098147Y-105068228D01*
X113374125Y-104883825D01*
X113608825Y-104649125D01*
X113793228Y-104373147D01*
X113920246Y-104066496D01*
X113985000Y-103740958D01*
X113985000Y-103409042D01*
X113920246Y-103083504D01*
X113793228Y-102776853D01*
X113608825Y-102500875D01*
X113374125Y-102266175D01*
X113098147Y-102081772D01*
X112791496Y-101954754D01*
X112465958Y-101890000D01*
X112134042Y-101890000D01*
X111808504Y-101954754D01*
X111501853Y-102081772D01*
X111225875Y-102266175D01*
X111060000Y-102432050D01*
X111060000Y-96982135D01*
X111107688Y-97053505D01*
X111321495Y-97267312D01*
X111572905Y-97435299D01*
X111852257Y-97551011D01*
X112148816Y-97610000D01*
X112451184Y-97610000D01*
X112747743Y-97551011D01*
X113027095Y-97435299D01*
X113278505Y-97267312D01*
X113492312Y-97053505D01*
X113550000Y-96967169D01*
X113607688Y-97053505D01*
X113821495Y-97267312D01*
X114072905Y-97435299D01*
X114352257Y-97551011D01*
X114648816Y-97610000D01*
X114951184Y-97610000D01*
X115247743Y-97551011D01*
X115527095Y-97435299D01*
X115778505Y-97267312D01*
X115992312Y-97053505D01*
X116160299Y-96802095D01*
X116276011Y-96522743D01*
X116335000Y-96226184D01*
X116335000Y-95923816D01*
X116276011Y-95627257D01*
X116160299Y-95347905D01*
X115992312Y-95096495D01*
X115778505Y-94882688D01*
X115527095Y-94714701D01*
X115247743Y-94598989D01*
X114951184Y-94540000D01*
X114648816Y-94540000D01*
X114352257Y-94598989D01*
X114072905Y-94714701D01*
X113821495Y-94882688D01*
X113607688Y-95096495D01*
X113550000Y-95182831D01*
X113492312Y-95096495D01*
X113278505Y-94882688D01*
X113027095Y-94714701D01*
X112747743Y-94598989D01*
X112451184Y-94540000D01*
X112148816Y-94540000D01*
X111852257Y-94598989D01*
X111572905Y-94714701D01*
X111321495Y-94882688D01*
X111107688Y-95096495D01*
X111050000Y-95182831D01*
X110992312Y-95096495D01*
X110778505Y-94882688D01*
X110527095Y-94714701D01*
X110247743Y-94598989D01*
X109951184Y-94540000D01*
X109648816Y-94540000D01*
X109352257Y-94598989D01*
X109072905Y-94714701D01*
X108821495Y-94882688D01*
X108607688Y-95096495D01*
X108439701Y-95347905D01*
X108323989Y-95627257D01*
X108265000Y-95923816D01*
X108265000Y-96226184D01*
X108323989Y-96522743D01*
X108439701Y-96802095D01*
X108607688Y-97053505D01*
X108821495Y-97267312D01*
X109072905Y-97435299D01*
X109352257Y-97551011D01*
X109540000Y-97588355D01*
X109540000Y-101001725D01*
X109148141Y-100739893D01*
X108668601Y-100541261D01*
X108159525Y-100440000D01*
X107640475Y-100440000D01*
X107131399Y-100541261D01*
X106651859Y-100739893D01*
X106220285Y-101028262D01*
X105853262Y-101395285D01*
X105564893Y-101826859D01*
X105366261Y-102306399D01*
X105265000Y-102815475D01*
X105265000Y-103334525D01*
X105366261Y-103843601D01*
X105564893Y-104323141D01*
X105853262Y-104754715D01*
X106220285Y-105121738D01*
X106651859Y-105410107D01*
X107131399Y-105608739D01*
X107640475Y-105710000D01*
X108159525Y-105710000D01*
X108668601Y-105608739D01*
X109148141Y-105410107D01*
X109540000Y-105148275D01*
X109540001Y-125240197D01*
X108845689Y-125934509D01*
X108762825Y-122675502D01*
X108762354Y-122667338D01*
X108736249Y-122377479D01*
X108733738Y-122361328D01*
X108670620Y-122077223D01*
X108666056Y-122061527D01*
X108566970Y-121787881D01*
X108560427Y-121772902D01*
X108427015Y-121514250D01*
X108418602Y-121500235D01*
X108253073Y-121260861D01*
X108242931Y-121248043D01*
X108048029Y-121031911D01*
X108036324Y-121020501D01*
X107933916Y-120932798D01*
X107925812Y-120850518D01*
X107889502Y-120730820D01*
X107830537Y-120620506D01*
X107751185Y-120523815D01*
X107654494Y-120444463D01*
X107544180Y-120385498D01*
X107424482Y-120349188D01*
X107300000Y-120336928D01*
X106836223Y-120336928D01*
X106981366Y-120283935D01*
X107082203Y-120230037D01*
X107141664Y-119996269D01*
X106400000Y-119254605D01*
X105658336Y-119996269D01*
X105717797Y-120230037D01*
X105947629Y-120336928D01*
X105700000Y-120336928D01*
X105586199Y-120348136D01*
X105110999Y-120348218D01*
X104834466Y-120327902D01*
X104568475Y-120268324D01*
X104314070Y-120170418D01*
X104076767Y-120036311D01*
X103861653Y-119868875D01*
X103666934Y-119664979D01*
X103465748Y-119454275D01*
X103451926Y-119441778D01*
X103222065Y-119262774D01*
X103206563Y-119252435D01*
X103024546Y-119149473D01*
X105060610Y-119149473D01*
X105100875Y-119409344D01*
X105191065Y-119656366D01*
X105244963Y-119757203D01*
X105478731Y-119816664D01*
X106220395Y-119075000D01*
X106579605Y-119075000D01*
X107321269Y-119816664D01*
X107555037Y-119757203D01*
X107665934Y-119518758D01*
X107728183Y-119263260D01*
X107739390Y-119000527D01*
X107699125Y-118740656D01*
X107608935Y-118493634D01*
X107555037Y-118392797D01*
X107321269Y-118333336D01*
X106579605Y-119075000D01*
X106220395Y-119075000D01*
X105478731Y-118333336D01*
X105244963Y-118392797D01*
X105134066Y-118631242D01*
X105071817Y-118886740D01*
X105060610Y-119149473D01*
X103024546Y-119149473D01*
X102952984Y-119108993D01*
X102936136Y-119101033D01*
X102664296Y-118996240D01*
X102646465Y-118990831D01*
X102362218Y-118926944D01*
X102343787Y-118924203D01*
X102053251Y-118902596D01*
X102043934Y-118902246D01*
X98306010Y-118899234D01*
X98085426Y-118881340D01*
X97875480Y-118829691D01*
X97676467Y-118745198D01*
X97493490Y-118630028D01*
X97331239Y-118487132D01*
X97313491Y-118465560D01*
X97694045Y-118465560D01*
X97755932Y-118701368D01*
X97997790Y-118814266D01*
X98257027Y-118877811D01*
X98523680Y-118889561D01*
X98787501Y-118849063D01*
X99038353Y-118757875D01*
X99144068Y-118701368D01*
X99205955Y-118465560D01*
X98450000Y-117709605D01*
X97694045Y-118465560D01*
X97313491Y-118465560D01*
X97193872Y-118320175D01*
X97084910Y-118133435D01*
X97007147Y-117931699D01*
X96962577Y-117720140D01*
X96957058Y-117603680D01*
X97090439Y-117603680D01*
X97130937Y-117867501D01*
X97222125Y-118118353D01*
X97278632Y-118224068D01*
X97514440Y-118285955D01*
X98270395Y-117530000D01*
X98629605Y-117530000D01*
X99385560Y-118285955D01*
X99621368Y-118224068D01*
X99734266Y-117982210D01*
X99797811Y-117722973D01*
X99809561Y-117456320D01*
X99769063Y-117192499D01*
X99677875Y-116941647D01*
X99621368Y-116835932D01*
X99385560Y-116774045D01*
X98629605Y-117530000D01*
X98270395Y-117530000D01*
X97514440Y-116774045D01*
X97278632Y-116835932D01*
X97165734Y-117077790D01*
X97102189Y-117337027D01*
X97090439Y-117603680D01*
X96957058Y-117603680D01*
X96952099Y-117499070D01*
X96955458Y-117396613D01*
X96982941Y-117167147D01*
X97047896Y-116951108D01*
X97149041Y-116749459D01*
X97263924Y-116594440D01*
X97694045Y-116594440D01*
X98450000Y-117350395D01*
X99205955Y-116594440D01*
X99144068Y-116358632D01*
X98902210Y-116245734D01*
X98642973Y-116182189D01*
X98376320Y-116170439D01*
X98112499Y-116210937D01*
X97861647Y-116302125D01*
X97755932Y-116358632D01*
X97694045Y-116594440D01*
X97263924Y-116594440D01*
X97283363Y-116568211D01*
X97446853Y-116412771D01*
X97634649Y-116287763D01*
X97841141Y-116196922D01*
X98060185Y-116142949D01*
X98290743Y-116127077D01*
X99141222Y-116142130D01*
X99679895Y-116181406D01*
X100210956Y-116279667D01*
X105774939Y-117629752D01*
X105800273Y-117646680D01*
X106061426Y-117754853D01*
X106122686Y-117767039D01*
X106065656Y-117775875D01*
X105818634Y-117866065D01*
X105717797Y-117919963D01*
X105658336Y-118153731D01*
X106400000Y-118895395D01*
X107141664Y-118153731D01*
X107082203Y-117919963D01*
X106843758Y-117809066D01*
X106760129Y-117788691D01*
X107092905Y-117801900D01*
X107097942Y-117802000D01*
X107550000Y-117802000D01*
X107562448Y-117801388D01*
X107767293Y-117781213D01*
X107791711Y-117776356D01*
X107988684Y-117716605D01*
X108011686Y-117707078D01*
X108193217Y-117610047D01*
X108213917Y-117596215D01*
X108373030Y-117465634D01*
X108390634Y-117448030D01*
X108521215Y-117288917D01*
X108535047Y-117268217D01*
X108632078Y-117086686D01*
X108641605Y-117063684D01*
X108701356Y-116866711D01*
X108706213Y-116842293D01*
X108726388Y-116637448D01*
X108727000Y-116625000D01*
X108727000Y-110659681D01*
X108726886Y-110654290D01*
X108708865Y-110230162D01*
X108707950Y-110219418D01*
X108654017Y-109798347D01*
X108652194Y-109787720D01*
X108562738Y-109372742D01*
X108560021Y-109362307D01*
X108435687Y-108956413D01*
X108432094Y-108946247D01*
X108273777Y-108552362D01*
X108269334Y-108542537D01*
X108078177Y-108163501D01*
X108072918Y-108154088D01*
X107850298Y-107792634D01*
X107844258Y-107783701D01*
X107591779Y-107442433D01*
X107585004Y-107434045D01*
X107304487Y-107115424D01*
X107300839Y-107111454D01*
X106318193Y-106086543D01*
X106042483Y-105773326D01*
X105796010Y-105439994D01*
X105578752Y-105086902D01*
X105392304Y-104716643D01*
X105237994Y-104331857D01*
X105116953Y-103935355D01*
X105030053Y-103530010D01*
X104977918Y-103118722D01*
X104960822Y-102701820D01*
X104973238Y-94776560D01*
X104973119Y-94770875D01*
X104953786Y-94323701D01*
X104952788Y-94312377D01*
X104893542Y-93868723D01*
X104891534Y-93857532D01*
X104792850Y-93420954D01*
X104789849Y-93409988D01*
X104652517Y-92983985D01*
X104648548Y-92973332D01*
X104473670Y-92561317D01*
X104468765Y-92551061D01*
X104257742Y-92156336D01*
X104251938Y-92146560D01*
X104006461Y-91772288D01*
X103999807Y-91763070D01*
X103721842Y-91412250D01*
X103714390Y-91403664D01*
X103406166Y-91079108D01*
X103397976Y-91071223D01*
X103061962Y-90775532D01*
X103057610Y-90771873D01*
X102509945Y-90331817D01*
X102180890Y-90042294D01*
X101880957Y-89726618D01*
X101610395Y-89385415D01*
X101371377Y-89021429D01*
X101165810Y-88637561D01*
X100995332Y-88236871D01*
X100861302Y-87822554D01*
X100764796Y-87397935D01*
X100706583Y-86966395D01*
X100687000Y-86528547D01*
X100687000Y-85267118D01*
X100686881Y-85261617D01*
X100679875Y-85100000D01*
X101658241Y-85100000D01*
X101685214Y-85373860D01*
X101765096Y-85637195D01*
X101894817Y-85879887D01*
X102069392Y-86092608D01*
X102282113Y-86267183D01*
X102524805Y-86396904D01*
X102788140Y-86476786D01*
X102993375Y-86497000D01*
X104606625Y-86497000D01*
X104811860Y-86476786D01*
X105075195Y-86396904D01*
X105317887Y-86267183D01*
X105530608Y-86092608D01*
X105705183Y-85879887D01*
X105834904Y-85637195D01*
X105914786Y-85373860D01*
X105941759Y-85100000D01*
X105914786Y-84826140D01*
X105834904Y-84562805D01*
X105705183Y-84320113D01*
X105530608Y-84107392D01*
X105317887Y-83932817D01*
X105075195Y-83803096D01*
X104811860Y-83723214D01*
X104606625Y-83703000D01*
X102993375Y-83703000D01*
X102788140Y-83723214D01*
X102524805Y-83803096D01*
X102282113Y-83932817D01*
X102069392Y-84107392D01*
X101894817Y-84320113D01*
X101765096Y-84562805D01*
X101685214Y-84826140D01*
X101658241Y-85100000D01*
X100679875Y-85100000D01*
X100668119Y-84828869D01*
X100667167Y-84817908D01*
X100611021Y-84388408D01*
X100609123Y-84377571D01*
X100516014Y-83954542D01*
X100513186Y-83943910D01*
X100383815Y-83530527D01*
X100380077Y-83520179D01*
X100215412Y-83119544D01*
X100210793Y-83109558D01*
X100012072Y-82724679D01*
X100006606Y-82715131D01*
X99775319Y-82348894D01*
X99769047Y-82339855D01*
X99506930Y-81995011D01*
X99499899Y-81986548D01*
X99208920Y-81665684D01*
X99205136Y-81661690D01*
X92957981Y-75345733D01*
X92953693Y-75341596D01*
X92608624Y-75024002D01*
X92599491Y-75016355D01*
X92226184Y-74732489D01*
X92216374Y-74725732D01*
X91818113Y-74478090D01*
X91807714Y-74472281D01*
X91388003Y-74263042D01*
X91382610Y-74260510D01*
X89360919Y-73368432D01*
X89005014Y-73193879D01*
X88666600Y-72992487D01*
X88345545Y-72764416D01*
X88043953Y-72511164D01*
X87761984Y-72232593D01*
X87759564Y-72230000D01*
X89181928Y-72230000D01*
X89194188Y-72354482D01*
X89230498Y-72474180D01*
X89289463Y-72584494D01*
X89368815Y-72681185D01*
X89465506Y-72760537D01*
X89575820Y-72819502D01*
X89695518Y-72855812D01*
X89820000Y-72868072D01*
X90334250Y-72865000D01*
X90493000Y-72706250D01*
X90493000Y-71557000D01*
X90747000Y-71557000D01*
X90747000Y-72706250D01*
X90905750Y-72865000D01*
X91420000Y-72868072D01*
X91544482Y-72855812D01*
X91664180Y-72819502D01*
X91774494Y-72760537D01*
X91871185Y-72681185D01*
X91950537Y-72584494D01*
X92009502Y-72474180D01*
X92045812Y-72354482D01*
X92058072Y-72230000D01*
X92055000Y-71715750D01*
X91896250Y-71557000D01*
X90747000Y-71557000D01*
X90493000Y-71557000D01*
X89343750Y-71557000D01*
X89185000Y-71715750D01*
X89181928Y-72230000D01*
X87759564Y-72230000D01*
X86851606Y-71257409D01*
X86555228Y-70908639D01*
X86294363Y-70536207D01*
X86133273Y-70253329D01*
X87087284Y-70253329D01*
X87119953Y-70361044D01*
X87230208Y-70598392D01*
X87384649Y-70809670D01*
X87577340Y-70986759D01*
X87800877Y-71122853D01*
X88046670Y-71212722D01*
X88253000Y-71090201D01*
X88253000Y-70047000D01*
X88507000Y-70047000D01*
X88507000Y-71090201D01*
X88713330Y-71212722D01*
X88959123Y-71122853D01*
X89182660Y-70986759D01*
X89184052Y-70985480D01*
X89185000Y-71144250D01*
X89343750Y-71303000D01*
X90493000Y-71303000D01*
X90493000Y-70153750D01*
X90747000Y-70153750D01*
X90747000Y-71303000D01*
X91896250Y-71303000D01*
X92055000Y-71144250D01*
X92058072Y-70630000D01*
X92045812Y-70505518D01*
X92009502Y-70385820D01*
X91950537Y-70275506D01*
X91871185Y-70178815D01*
X91774494Y-70099463D01*
X91664180Y-70040498D01*
X91544482Y-70004188D01*
X91420000Y-69991928D01*
X90905750Y-69995000D01*
X90747000Y-70153750D01*
X90493000Y-70153750D01*
X90334250Y-69995000D01*
X89820000Y-69991928D01*
X89695518Y-70004188D01*
X89575820Y-70040498D01*
X89552832Y-70052785D01*
X89549374Y-70047000D01*
X88507000Y-70047000D01*
X88253000Y-70047000D01*
X87210626Y-70047000D01*
X87087284Y-70253329D01*
X86133273Y-70253329D01*
X86069343Y-70141068D01*
X85882134Y-69726670D01*
X85834030Y-69586671D01*
X87087284Y-69586671D01*
X87210626Y-69793000D01*
X88253000Y-69793000D01*
X88253000Y-69773000D01*
X88507000Y-69773000D01*
X88507000Y-69793000D01*
X89549374Y-69793000D01*
X89672716Y-69586671D01*
X89640047Y-69478956D01*
X89529792Y-69241608D01*
X89375351Y-69030330D01*
X89182660Y-68853241D01*
X89049803Y-68772355D01*
X89082203Y-68755037D01*
X89141664Y-68521269D01*
X88400000Y-67779605D01*
X87658336Y-68521269D01*
X87717797Y-68755037D01*
X87729614Y-68760533D01*
X87577340Y-68853241D01*
X87384649Y-69030330D01*
X87230208Y-69241608D01*
X87119953Y-69478956D01*
X87087284Y-69586671D01*
X85834030Y-69586671D01*
X85734372Y-69296641D01*
X85627341Y-68854716D01*
X85561963Y-68404707D01*
X85538668Y-67947639D01*
X85537017Y-67558718D01*
X85555279Y-67268551D01*
X85611363Y-66987627D01*
X85704534Y-66716725D01*
X85733024Y-66660000D01*
X87443758Y-66660000D01*
X87362075Y-66741683D01*
%TA.AperFunction,Conductor*%
D31*
G36*
X87362075Y-66741683D02*
G01*
X87478729Y-66858337D01*
X87244963Y-66917797D01*
X87134066Y-67156242D01*
X87071817Y-67411740D01*
X87060610Y-67674473D01*
X87100875Y-67934344D01*
X87191065Y-68181366D01*
X87244963Y-68282203D01*
X87478731Y-68341664D01*
X88220395Y-67600000D01*
X88206253Y-67585858D01*
X88385858Y-67406253D01*
X88400000Y-67420395D01*
X88414143Y-67406253D01*
X88593748Y-67585858D01*
X88579605Y-67600000D01*
X89321269Y-68341664D01*
X89555037Y-68282203D01*
X89665934Y-68043758D01*
X89728183Y-67788260D01*
X89739390Y-67525527D01*
X89699125Y-67265656D01*
X89608935Y-67018634D01*
X89555037Y-66917797D01*
X89321271Y-66858337D01*
X89437925Y-66741683D01*
X89356242Y-66660000D01*
X91266629Y-66660000D01*
X91548799Y-66931252D01*
X91826334Y-67248195D01*
X92937787Y-68633236D01*
X93187971Y-68980424D01*
X93399246Y-69348766D01*
X93571278Y-69736994D01*
X93702217Y-70140932D01*
X93792035Y-70562702D01*
X93792275Y-70563805D01*
X93857446Y-70857016D01*
X93861697Y-70871831D01*
X93961905Y-71154988D01*
X93967919Y-71169178D01*
X94101689Y-71438111D01*
X94109378Y-71451469D01*
X94274740Y-71702218D01*
X94283990Y-71714546D01*
X94478509Y-71943417D01*
X94489184Y-71954533D01*
X94709994Y-72158157D01*
X94721938Y-72167899D01*
X94965788Y-72343275D01*
X94972181Y-72347584D01*
X98194504Y-74380316D01*
X98422751Y-74544840D01*
X98626098Y-74733566D01*
X98804629Y-74945908D01*
X98955630Y-75178640D01*
X99076794Y-75428203D01*
X99166278Y-75690803D01*
X99222711Y-75962416D01*
X99245841Y-76246292D01*
X99271454Y-76592371D01*
X99273219Y-76606059D01*
X99336321Y-76947779D01*
X99339561Y-76961195D01*
X99439371Y-77294050D01*
X99444048Y-77307035D01*
X99579388Y-77627093D01*
X99585446Y-77639493D01*
X99754716Y-77942976D01*
X99762084Y-77954647D01*
X99963287Y-78237970D01*
X99971878Y-78248772D01*
X100202637Y-78508588D01*
X100207359Y-78513622D01*
X106892458Y-85263212D01*
X107118919Y-85518907D01*
X107313481Y-85795320D01*
X107476068Y-86091654D01*
X107604670Y-86404247D01*
X107697691Y-86729222D01*
X107753965Y-87062503D01*
X107773197Y-87407077D01*
X107773305Y-87408795D01*
X107793440Y-87698862D01*
X107795870Y-87716281D01*
X107855887Y-88000783D01*
X107860700Y-88017700D01*
X107959449Y-88291183D01*
X107966554Y-88307274D01*
X108102141Y-88564490D01*
X108111401Y-88579444D01*
X108281225Y-88815461D01*
X108292462Y-88828992D01*
X108493266Y-89039282D01*
X108506264Y-89051131D01*
X108734196Y-89231660D01*
X108748707Y-89241599D01*
X108999395Y-89388907D01*
X109007132Y-89393100D01*
X115896078Y-92823031D01*
X116291853Y-93043452D01*
X116663161Y-93297778D01*
X117009429Y-93585283D01*
X117327692Y-93903506D01*
X117615234Y-94249734D01*
X117869617Y-94621030D01*
X118088641Y-95014183D01*
X118270472Y-95425899D01*
X118340000Y-95633281D01*
X118340000Y-101001726D01*
X117948141Y-100739893D01*
X117468601Y-100541261D01*
X116959525Y-100440000D01*
X116440475Y-100440000D01*
X115931399Y-100541261D01*
X115451859Y-100739893D01*
X115020285Y-101028262D01*
X114653262Y-101395285D01*
X114364893Y-101826859D01*
X114166261Y-102306399D01*
X114065000Y-102815475D01*
X114065000Y-103334525D01*
X114166261Y-103843601D01*
X114364893Y-104323141D01*
X114653262Y-104754715D01*
X115020285Y-105121738D01*
X115451859Y-105410107D01*
X115931399Y-105608739D01*
X116440475Y-105710000D01*
X116959525Y-105710000D01*
X117468601Y-105608739D01*
X117948141Y-105410107D01*
X118340001Y-105148274D01*
X118340001Y-128982333D01*
X118317016Y-129037837D01*
X118160386Y-129321286D01*
X117972998Y-129585421D01*
X117757216Y-129826909D01*
X117515754Y-130042715D01*
X117251638Y-130230131D01*
X116968205Y-130386792D01*
X116669014Y-130510730D01*
X116357817Y-130600390D01*
X116038549Y-130654640D01*
X115711646Y-130673000D01*
X114601824Y-130673000D01*
X114682203Y-130630037D01*
X114741664Y-130396269D01*
X114000000Y-129654605D01*
X113258336Y-130396269D01*
X113317797Y-130630037D01*
X113434140Y-130684146D01*
X113314932Y-130691863D01*
X113298662Y-130693978D01*
X113016149Y-130749460D01*
X113000287Y-130753656D01*
X112727286Y-130845098D01*
X112712097Y-130851303D01*
X112453163Y-130977177D01*
X112438901Y-130985289D01*
X112198355Y-131143496D01*
X112185258Y-131153378D01*
X111967116Y-131341275D01*
X111955265Y-131352917D01*
X111764046Y-131567086D01*
X111753701Y-131580344D01*
X111592456Y-131817900D01*
X111583953Y-131832410D01*
X111455511Y-132089190D01*
X111449000Y-132104696D01*
X111355612Y-132376194D01*
X111351207Y-132392424D01*
X111294511Y-132673882D01*
X111292289Y-132690552D01*
X111273279Y-132977034D01*
X111273000Y-132985443D01*
X111273000Y-136279468D01*
X111253575Y-136715550D01*
X111195830Y-137145378D01*
X111100098Y-137568363D01*
X110967131Y-137981177D01*
X110797995Y-138380515D01*
X110594019Y-138763239D01*
X110356817Y-139126319D01*
X110088281Y-139466861D01*
X109788579Y-139784243D01*
X109562981Y-140002791D01*
X109250659Y-140280556D01*
X108917989Y-140529102D01*
X108565357Y-140748426D01*
X108195343Y-140936923D01*
X107810615Y-141093237D01*
X107413980Y-141216223D01*
X107008314Y-141304993D01*
X106596566Y-141358901D01*
X106179008Y-141377677D01*
X70014041Y-141461393D01*
X69585914Y-141443666D01*
X69163713Y-141388993D01*
X68747889Y-141297676D01*
X68341624Y-141170414D01*
X67948014Y-141008175D01*
X67570081Y-140812207D01*
X67210681Y-140583991D01*
X66872579Y-140325281D01*
X66558339Y-140038037D01*
X66270385Y-139724480D01*
X66010893Y-139386979D01*
X65781843Y-139028104D01*
X65584994Y-138650613D01*
X65421851Y-138257396D01*
X65293647Y-137851422D01*
X65228647Y-137558665D01*
X65640000Y-137558665D01*
X65640000Y-137841335D01*
X65695147Y-138118574D01*
X65803320Y-138379727D01*
X65960363Y-138614759D01*
X66160241Y-138814637D01*
X66395273Y-138971680D01*
X66656426Y-139079853D01*
X66933665Y-139135000D01*
X67216335Y-139135000D01*
X67493574Y-139079853D01*
X67754727Y-138971680D01*
X67989759Y-138814637D01*
X68189637Y-138614759D01*
X68346680Y-138379727D01*
X68454853Y-138118574D01*
X68510000Y-137841335D01*
X68510000Y-137558665D01*
X68454853Y-137281426D01*
X68346680Y-137020273D01*
X68189637Y-136785241D01*
X67989759Y-136585363D01*
X67754727Y-136428320D01*
X67493574Y-136320147D01*
X67216335Y-136265000D01*
X66933665Y-136265000D01*
X66656426Y-136320147D01*
X66395273Y-136428320D01*
X66160241Y-136585363D01*
X65960363Y-136785241D01*
X65803320Y-137020273D01*
X65695147Y-137281426D01*
X65640000Y-137558665D01*
X65228647Y-137558665D01*
X65201369Y-137435809D01*
X65145720Y-137013743D01*
X65127000Y-136585632D01*
X65127000Y-132558665D01*
X65640000Y-132558665D01*
X65640000Y-132841335D01*
X65695147Y-133118574D01*
X65803320Y-133379727D01*
X65960363Y-133614759D01*
X66160241Y-133814637D01*
X66395273Y-133971680D01*
X66656426Y-134079853D01*
X66933665Y-134135000D01*
X67216335Y-134135000D01*
X67493574Y-134079853D01*
X67754727Y-133971680D01*
X67989759Y-133814637D01*
X68189637Y-133614759D01*
X68346680Y-133379727D01*
X68454853Y-133118574D01*
X68510000Y-132841335D01*
X68510000Y-132558665D01*
X68454853Y-132281426D01*
X68346680Y-132020273D01*
X68189637Y-131785241D01*
X67989759Y-131585363D01*
X67754727Y-131428320D01*
X67493574Y-131320147D01*
X67216335Y-131265000D01*
X66933665Y-131265000D01*
X66656426Y-131320147D01*
X66395273Y-131428320D01*
X66160241Y-131585363D01*
X65960363Y-131785241D01*
X65803320Y-132020273D01*
X65695147Y-132281426D01*
X65640000Y-132558665D01*
X65127000Y-132558665D01*
X65127000Y-130492702D01*
X66286903Y-130492702D01*
X66358486Y-130736671D01*
X66613996Y-130857571D01*
X66888184Y-130926300D01*
X67170512Y-130940217D01*
X67450130Y-130898787D01*
X67716292Y-130803603D01*
X67841514Y-130736671D01*
X67913097Y-130492702D01*
X67100000Y-129679605D01*
X66286903Y-130492702D01*
X65127000Y-130492702D01*
X65127000Y-129570512D01*
X65659783Y-129570512D01*
X65701213Y-129850130D01*
X65796397Y-130116292D01*
X65863329Y-130241514D01*
X66107298Y-130313097D01*
X66920395Y-129500000D01*
X67279605Y-129500000D01*
X68092702Y-130313097D01*
X68336671Y-130241514D01*
X68457571Y-129986004D01*
X68526300Y-129711816D01*
X68540217Y-129429488D01*
X68498787Y-129149870D01*
X68403603Y-128883708D01*
X68336671Y-128758486D01*
X68092702Y-128686903D01*
X67279605Y-129500000D01*
X66920395Y-129500000D01*
X66107298Y-128686903D01*
X65863329Y-128758486D01*
X65742429Y-129013996D01*
X65673700Y-129288184D01*
X65659783Y-129570512D01*
X65127000Y-129570512D01*
X65127000Y-128904530D01*
X65145367Y-128647728D01*
X65175915Y-128507298D01*
X66286903Y-128507298D01*
X67100000Y-129320395D01*
X67913097Y-128507298D01*
X67841514Y-128263329D01*
X67586004Y-128142429D01*
X67311816Y-128073700D01*
X67029488Y-128059783D01*
X66749870Y-128101213D01*
X66483708Y-128196397D01*
X66358486Y-128263329D01*
X66286903Y-128507298D01*
X65175915Y-128507298D01*
X65199130Y-128400579D01*
X65287519Y-128163601D01*
X65408730Y-127941618D01*
X65560298Y-127739149D01*
X65739149Y-127560298D01*
X65941618Y-127408730D01*
X66163601Y-127287519D01*
X66400579Y-127199130D01*
X66647728Y-127145367D01*
X66900000Y-127127324D01*
X67152272Y-127145367D01*
X67399421Y-127199130D01*
X67636399Y-127287519D01*
X67858382Y-127408730D01*
X68060851Y-127560298D01*
X68239702Y-127739149D01*
X68391270Y-127941618D01*
X68512481Y-128163601D01*
X68600870Y-128400579D01*
X68654633Y-128647728D01*
X68673000Y-128904530D01*
X68673000Y-132128932D01*
X68673121Y-132134472D01*
X68692148Y-132570251D01*
X68693113Y-132581288D01*
X68750047Y-133013750D01*
X68751971Y-133024661D01*
X68846381Y-133450515D01*
X68849249Y-133461217D01*
X68980415Y-133877223D01*
X68984204Y-133887634D01*
X69151128Y-134290624D01*
X69155811Y-134300665D01*
X69357223Y-134687574D01*
X69362762Y-134697169D01*
X69597129Y-135065051D01*
X69603484Y-135074127D01*
X69869022Y-135420183D01*
X69876144Y-135428670D01*
X70170832Y-135750266D01*
X70174663Y-135754269D01*
X71445731Y-137025337D01*
X71449734Y-137029168D01*
X71771330Y-137323856D01*
X71779817Y-137330978D01*
X72125873Y-137596516D01*
X72134949Y-137602871D01*
X72190792Y-137638447D01*
X72031426Y-137670147D01*
X71770273Y-137778320D01*
X71535241Y-137935363D01*
X71335363Y-138135241D01*
X71178320Y-138370273D01*
X71070147Y-138631426D01*
X71015000Y-138908665D01*
X71015000Y-139191335D01*
X71070147Y-139468574D01*
X71178320Y-139729727D01*
X71335363Y-139964759D01*
X71535241Y-140164637D01*
X71770273Y-140321680D01*
X72031426Y-140429853D01*
X72308665Y-140485000D01*
X72591335Y-140485000D01*
X72868574Y-140429853D01*
X73129727Y-140321680D01*
X73364759Y-140164637D01*
X73564637Y-139964759D01*
X73721680Y-139729727D01*
X73829853Y-139468574D01*
X73885000Y-139191335D01*
X73885000Y-138908665D01*
X73847467Y-138719978D01*
X73884972Y-138674278D01*
X73884973Y-138674277D01*
X73955545Y-138542248D01*
X73996174Y-138408309D01*
X74175339Y-138448029D01*
X74186250Y-138449953D01*
X74618712Y-138506887D01*
X74629749Y-138507852D01*
X75065528Y-138526879D01*
X75071068Y-138527000D01*
X76113402Y-138527000D01*
X76070147Y-138631426D01*
X76015000Y-138908665D01*
X76015000Y-139191335D01*
X76070147Y-139468574D01*
X76178320Y-139729727D01*
X76335363Y-139964759D01*
X76535241Y-140164637D01*
X76770273Y-140321680D01*
X77031426Y-140429853D01*
X77308665Y-140485000D01*
X77591335Y-140485000D01*
X77868574Y-140429853D01*
X78129727Y-140321680D01*
X78364759Y-140164637D01*
X78564637Y-139964759D01*
X78721680Y-139729727D01*
X78829853Y-139468574D01*
X78885000Y-139191335D01*
X78885000Y-138908665D01*
X78848688Y-138726113D01*
X79047801Y-138527000D01*
X80465000Y-138527000D01*
X80465000Y-138667581D01*
X80461807Y-138700000D01*
X80474550Y-138829383D01*
X80512290Y-138953793D01*
X80573575Y-139068450D01*
X80656052Y-139168948D01*
X80756550Y-139251425D01*
X80871207Y-139312710D01*
X80995617Y-139350450D01*
X81125000Y-139363193D01*
X81157419Y-139360000D01*
X101217581Y-139360000D01*
X101250000Y-139363193D01*
X101282419Y-139360000D01*
X101379383Y-139350450D01*
X101503793Y-139312710D01*
X101618450Y-139251425D01*
X101718948Y-139168948D01*
X101801425Y-139068450D01*
X101862710Y-138953793D01*
X101900450Y-138829383D01*
X101913193Y-138700000D01*
X101910000Y-138667581D01*
X101910000Y-138527000D01*
X106610051Y-138527000D01*
X106618357Y-138526728D01*
X106930308Y-138506282D01*
X106946779Y-138504114D01*
X107253392Y-138443124D01*
X107269438Y-138438824D01*
X107565468Y-138338336D01*
X107580816Y-138331979D01*
X107861196Y-138193710D01*
X107875582Y-138185404D01*
X108135517Y-138011722D01*
X108148697Y-138001609D01*
X108383737Y-137795484D01*
X108395661Y-137783535D01*
X108600529Y-137548928D01*
X108610911Y-137535278D01*
X108782303Y-137275208D01*
X108790751Y-137260284D01*
X108925542Y-136979495D01*
X108931903Y-136963569D01*
X109027637Y-136667180D01*
X109031794Y-136650542D01*
X109086723Y-136343957D01*
X109088601Y-136326911D01*
X109101725Y-136015721D01*
X109101797Y-136007142D01*
X108937604Y-129549473D01*
X112660610Y-129549473D01*
X112700875Y-129809344D01*
X112791065Y-130056366D01*
X112844963Y-130157203D01*
X113078731Y-130216664D01*
X113820395Y-129475000D01*
X114179605Y-129475000D01*
X114921269Y-130216664D01*
X115155037Y-130157203D01*
X115265934Y-129918758D01*
X115328183Y-129663260D01*
X115339390Y-129400527D01*
X115299125Y-129140656D01*
X115208935Y-128893634D01*
X115155037Y-128792797D01*
X114921269Y-128733336D01*
X114179605Y-129475000D01*
X113820395Y-129475000D01*
X113078731Y-128733336D01*
X112844963Y-128792797D01*
X112734066Y-129031242D01*
X112671817Y-129286740D01*
X112660610Y-129549473D01*
X108937604Y-129549473D01*
X108898990Y-128030812D01*
X109621473Y-127308329D01*
X112727284Y-127308329D01*
X112759953Y-127416044D01*
X112870208Y-127653392D01*
X113024649Y-127864670D01*
X113217340Y-128041759D01*
X113440877Y-128177853D01*
X113550480Y-128217927D01*
X113418634Y-128266065D01*
X113317797Y-128319963D01*
X113258336Y-128553731D01*
X114000000Y-129295395D01*
X114741664Y-128553731D01*
X114682203Y-128319963D01*
X114474566Y-128223394D01*
X114599123Y-128177853D01*
X114822660Y-128041759D01*
X115015351Y-127864670D01*
X115169792Y-127653392D01*
X115280047Y-127416044D01*
X115312716Y-127308329D01*
X115189374Y-127102000D01*
X114147000Y-127102000D01*
X114147000Y-127122000D01*
X113893000Y-127122000D01*
X113893000Y-127102000D01*
X112850626Y-127102000D01*
X112727284Y-127308329D01*
X109621473Y-127308329D01*
X110811003Y-126118799D01*
X110840001Y-126095001D01*
X110934974Y-125979276D01*
X111005546Y-125847247D01*
X111049003Y-125703986D01*
X111060000Y-125592333D01*
X111060000Y-125592324D01*
X111063676Y-125555001D01*
X111060000Y-125517678D01*
X111060000Y-125175000D01*
X112661928Y-125175000D01*
X112674188Y-125299482D01*
X112710498Y-125419180D01*
X112769463Y-125529494D01*
X112848815Y-125626185D01*
X112945506Y-125705537D01*
X113055820Y-125764502D01*
X113175518Y-125800812D01*
X113300000Y-125813072D01*
X113374387Y-125812628D01*
X113217340Y-125908241D01*
X113024649Y-126085330D01*
X112870208Y-126296608D01*
X112759953Y-126533956D01*
X112727284Y-126641671D01*
X112850626Y-126848000D01*
X113893000Y-126848000D01*
X113893000Y-125804799D01*
X114147000Y-125804799D01*
X114147000Y-126848000D01*
X115189374Y-126848000D01*
X115312716Y-126641671D01*
X115280047Y-126533956D01*
X115169792Y-126296608D01*
X115015351Y-126085330D01*
X114822660Y-125908241D01*
X114664028Y-125811662D01*
X114900000Y-125813072D01*
X115024482Y-125800812D01*
X115144180Y-125764502D01*
X115254494Y-125705537D01*
X115351185Y-125626185D01*
X115430537Y-125529494D01*
X115489502Y-125419180D01*
X115525812Y-125299482D01*
X115538072Y-125175000D01*
X115535000Y-124660750D01*
X115376250Y-124502000D01*
X114227000Y-124502000D01*
X114227000Y-125651250D01*
X114293535Y-125717785D01*
X114147000Y-125804799D01*
X113893000Y-125804799D01*
X113846853Y-125777397D01*
X113973000Y-125651250D01*
X113973000Y-124502000D01*
X112823750Y-124502000D01*
X112665000Y-124660750D01*
X112661928Y-125175000D01*
X111060000Y-125175000D01*
X111060000Y-123575000D01*
X112661928Y-123575000D01*
X112665000Y-124089250D01*
X112823750Y-124248000D01*
X113973000Y-124248000D01*
X113973000Y-123098750D01*
X114227000Y-123098750D01*
X114227000Y-124248000D01*
X115376250Y-124248000D01*
X115535000Y-124089250D01*
X115538072Y-123575000D01*
X115525812Y-123450518D01*
X115489502Y-123330820D01*
X115430537Y-123220506D01*
X115351185Y-123123815D01*
X115254494Y-123044463D01*
X115144180Y-122985498D01*
X115024482Y-122949188D01*
X114950866Y-122941938D01*
X114975131Y-122927385D01*
X115183519Y-122738414D01*
X115351037Y-122512420D01*
X115471246Y-122258087D01*
X115511904Y-122124039D01*
X115389915Y-121902000D01*
X114247000Y-121902000D01*
X114247000Y-123045624D01*
X114268424Y-123057326D01*
X114227000Y-123098750D01*
X113973000Y-123098750D01*
X113945707Y-123071457D01*
X113993000Y-123045624D01*
X113993000Y-121902000D01*
X112850085Y-121902000D01*
X112728096Y-122124039D01*
X112768754Y-122258087D01*
X112888963Y-122512420D01*
X113056481Y-122738414D01*
X113264869Y-122927385D01*
X113283492Y-122938554D01*
X113175518Y-122949188D01*
X113055820Y-122985498D01*
X112945506Y-123044463D01*
X112848815Y-123123815D01*
X112769463Y-123220506D01*
X112710498Y-123330820D01*
X112674188Y-123450518D01*
X112661928Y-123575000D01*
X111060000Y-123575000D01*
X111060000Y-115575000D01*
X112661928Y-115575000D01*
X112661928Y-117175000D01*
X112674188Y-117299482D01*
X112710498Y-117419180D01*
X112769463Y-117529494D01*
X112848815Y-117626185D01*
X112945506Y-117705537D01*
X113055820Y-117764502D01*
X113175518Y-117800812D01*
X113300000Y-117813072D01*
X113340001Y-117813072D01*
X113340001Y-117923771D01*
X113168987Y-118038038D01*
X112983038Y-118223987D01*
X112836939Y-118442641D01*
X112736304Y-118685595D01*
X112685000Y-118943514D01*
X112685000Y-119206486D01*
X112736304Y-119464405D01*
X112836939Y-119707359D01*
X112983038Y-119926013D01*
X113168987Y-120111962D01*
X113387641Y-120258061D01*
X113630595Y-120358696D01*
X113764630Y-120385358D01*
X113506119Y-120477930D01*
X113264869Y-120622615D01*
X113056481Y-120811586D01*
X112888963Y-121037580D01*
X112768754Y-121291913D01*
X112728096Y-121425961D01*
X112850085Y-121648000D01*
X113993000Y-121648000D01*
X113993000Y-121628000D01*
X114247000Y-121628000D01*
X114247000Y-121648000D01*
X115389915Y-121648000D01*
X115511904Y-121425961D01*
X115471246Y-121291913D01*
X115351037Y-121037580D01*
X115183519Y-120811586D01*
X114975131Y-120622615D01*
X114733881Y-120477930D01*
X114469040Y-120383091D01*
X114247002Y-120504375D01*
X114247002Y-120391000D01*
X114409405Y-120358696D01*
X114652359Y-120258061D01*
X114871013Y-120111962D01*
X115056962Y-119926013D01*
X115203061Y-119707359D01*
X115303696Y-119464405D01*
X115355000Y-119206486D01*
X115355000Y-118943514D01*
X115303696Y-118685595D01*
X115203061Y-118442641D01*
X115056962Y-118223987D01*
X114871013Y-118038038D01*
X114860000Y-118030679D01*
X114860000Y-117813072D01*
X114900000Y-117813072D01*
X115024482Y-117800812D01*
X115144180Y-117764502D01*
X115254494Y-117705537D01*
X115351185Y-117626185D01*
X115430537Y-117529494D01*
X115489502Y-117419180D01*
X115525812Y-117299482D01*
X115538072Y-117175000D01*
X115538072Y-115575000D01*
X115525812Y-115450518D01*
X115489502Y-115330820D01*
X115430537Y-115220506D01*
X115351185Y-115123815D01*
X115254494Y-115044463D01*
X115144180Y-114985498D01*
X115024482Y-114949188D01*
X114955763Y-114942420D01*
X115034759Y-114889637D01*
X115234637Y-114689759D01*
X115391680Y-114454727D01*
X115499853Y-114193574D01*
X115555000Y-113916335D01*
X115555000Y-113633665D01*
X115499853Y-113356426D01*
X115391680Y-113095273D01*
X115234637Y-112860241D01*
X115034759Y-112660363D01*
X114799727Y-112503320D01*
X114538574Y-112395147D01*
X114261335Y-112340000D01*
X113978665Y-112340000D01*
X113701426Y-112395147D01*
X113440273Y-112503320D01*
X113205241Y-112660363D01*
X113005363Y-112860241D01*
X112848320Y-113095273D01*
X112740147Y-113356426D01*
X112685000Y-113633665D01*
X112685000Y-113916335D01*
X112740147Y-114193574D01*
X112848320Y-114454727D01*
X113005363Y-114689759D01*
X113205241Y-114889637D01*
X113279098Y-114938987D01*
X113175518Y-114949188D01*
X113055820Y-114985498D01*
X112945506Y-115044463D01*
X112848815Y-115123815D01*
X112769463Y-115220506D01*
X112710498Y-115330820D01*
X112674188Y-115450518D01*
X112661928Y-115575000D01*
X111060000Y-115575000D01*
X111060000Y-104717950D01*
X111225875Y-104883825D01*
X111501853Y-105068228D01*
X111808504Y-105195246D01*
X112134042Y-105260000D01*
X112465958Y-105260000D01*
X112791496Y-105195246D01*
X113098147Y-105068228D01*
X113374125Y-104883825D01*
X113608825Y-104649125D01*
X113793228Y-104373147D01*
X113920246Y-104066496D01*
X113985000Y-103740958D01*
X113985000Y-103409042D01*
X113920246Y-103083504D01*
X113793228Y-102776853D01*
X113608825Y-102500875D01*
X113374125Y-102266175D01*
X113098147Y-102081772D01*
X112791496Y-101954754D01*
X112465958Y-101890000D01*
X112134042Y-101890000D01*
X111808504Y-101954754D01*
X111501853Y-102081772D01*
X111225875Y-102266175D01*
X111060000Y-102432050D01*
X111060000Y-96982135D01*
X111107688Y-97053505D01*
X111321495Y-97267312D01*
X111572905Y-97435299D01*
X111852257Y-97551011D01*
X112148816Y-97610000D01*
X112451184Y-97610000D01*
X112747743Y-97551011D01*
X113027095Y-97435299D01*
X113278505Y-97267312D01*
X113492312Y-97053505D01*
X113550000Y-96967169D01*
X113607688Y-97053505D01*
X113821495Y-97267312D01*
X114072905Y-97435299D01*
X114352257Y-97551011D01*
X114648816Y-97610000D01*
X114951184Y-97610000D01*
X115247743Y-97551011D01*
X115527095Y-97435299D01*
X115778505Y-97267312D01*
X115992312Y-97053505D01*
X116160299Y-96802095D01*
X116276011Y-96522743D01*
X116335000Y-96226184D01*
X116335000Y-95923816D01*
X116276011Y-95627257D01*
X116160299Y-95347905D01*
X115992312Y-95096495D01*
X115778505Y-94882688D01*
X115527095Y-94714701D01*
X115247743Y-94598989D01*
X114951184Y-94540000D01*
X114648816Y-94540000D01*
X114352257Y-94598989D01*
X114072905Y-94714701D01*
X113821495Y-94882688D01*
X113607688Y-95096495D01*
X113550000Y-95182831D01*
X113492312Y-95096495D01*
X113278505Y-94882688D01*
X113027095Y-94714701D01*
X112747743Y-94598989D01*
X112451184Y-94540000D01*
X112148816Y-94540000D01*
X111852257Y-94598989D01*
X111572905Y-94714701D01*
X111321495Y-94882688D01*
X111107688Y-95096495D01*
X111050000Y-95182831D01*
X110992312Y-95096495D01*
X110778505Y-94882688D01*
X110527095Y-94714701D01*
X110247743Y-94598989D01*
X109951184Y-94540000D01*
X109648816Y-94540000D01*
X109352257Y-94598989D01*
X109072905Y-94714701D01*
X108821495Y-94882688D01*
X108607688Y-95096495D01*
X108439701Y-95347905D01*
X108323989Y-95627257D01*
X108265000Y-95923816D01*
X108265000Y-96226184D01*
X108323989Y-96522743D01*
X108439701Y-96802095D01*
X108607688Y-97053505D01*
X108821495Y-97267312D01*
X109072905Y-97435299D01*
X109352257Y-97551011D01*
X109540000Y-97588355D01*
X109540000Y-101001725D01*
X109148141Y-100739893D01*
X108668601Y-100541261D01*
X108159525Y-100440000D01*
X107640475Y-100440000D01*
X107131399Y-100541261D01*
X106651859Y-100739893D01*
X106220285Y-101028262D01*
X105853262Y-101395285D01*
X105564893Y-101826859D01*
X105366261Y-102306399D01*
X105265000Y-102815475D01*
X105265000Y-103334525D01*
X105366261Y-103843601D01*
X105564893Y-104323141D01*
X105853262Y-104754715D01*
X106220285Y-105121738D01*
X106651859Y-105410107D01*
X107131399Y-105608739D01*
X107640475Y-105710000D01*
X108159525Y-105710000D01*
X108668601Y-105608739D01*
X109148141Y-105410107D01*
X109540000Y-105148275D01*
X109540001Y-125240197D01*
X108845689Y-125934509D01*
X108762825Y-122675502D01*
X108762354Y-122667338D01*
X108736249Y-122377479D01*
X108733738Y-122361328D01*
X108670620Y-122077223D01*
X108666056Y-122061527D01*
X108566970Y-121787881D01*
X108560427Y-121772902D01*
X108427015Y-121514250D01*
X108418602Y-121500235D01*
X108253073Y-121260861D01*
X108242931Y-121248043D01*
X108048029Y-121031911D01*
X108036324Y-121020501D01*
X107933916Y-120932798D01*
X107925812Y-120850518D01*
X107889502Y-120730820D01*
X107830537Y-120620506D01*
X107751185Y-120523815D01*
X107654494Y-120444463D01*
X107544180Y-120385498D01*
X107424482Y-120349188D01*
X107300000Y-120336928D01*
X106836223Y-120336928D01*
X106981366Y-120283935D01*
X107082203Y-120230037D01*
X107141664Y-119996269D01*
X106400000Y-119254605D01*
X105658336Y-119996269D01*
X105717797Y-120230037D01*
X105947629Y-120336928D01*
X105700000Y-120336928D01*
X105586199Y-120348136D01*
X105110999Y-120348218D01*
X104834466Y-120327902D01*
X104568475Y-120268324D01*
X104314070Y-120170418D01*
X104076767Y-120036311D01*
X103861653Y-119868875D01*
X103666934Y-119664979D01*
X103465748Y-119454275D01*
X103451926Y-119441778D01*
X103222065Y-119262774D01*
X103206563Y-119252435D01*
X103024546Y-119149473D01*
X105060610Y-119149473D01*
X105100875Y-119409344D01*
X105191065Y-119656366D01*
X105244963Y-119757203D01*
X105478731Y-119816664D01*
X106220395Y-119075000D01*
X106579605Y-119075000D01*
X107321269Y-119816664D01*
X107555037Y-119757203D01*
X107665934Y-119518758D01*
X107728183Y-119263260D01*
X107739390Y-119000527D01*
X107699125Y-118740656D01*
X107608935Y-118493634D01*
X107555037Y-118392797D01*
X107321269Y-118333336D01*
X106579605Y-119075000D01*
X106220395Y-119075000D01*
X105478731Y-118333336D01*
X105244963Y-118392797D01*
X105134066Y-118631242D01*
X105071817Y-118886740D01*
X105060610Y-119149473D01*
X103024546Y-119149473D01*
X102952984Y-119108993D01*
X102936136Y-119101033D01*
X102664296Y-118996240D01*
X102646465Y-118990831D01*
X102362218Y-118926944D01*
X102343787Y-118924203D01*
X102053251Y-118902596D01*
X102043934Y-118902246D01*
X98306010Y-118899234D01*
X98085426Y-118881340D01*
X97875480Y-118829691D01*
X97676467Y-118745198D01*
X97493490Y-118630028D01*
X97331239Y-118487132D01*
X97313491Y-118465560D01*
X97694045Y-118465560D01*
X97755932Y-118701368D01*
X97997790Y-118814266D01*
X98257027Y-118877811D01*
X98523680Y-118889561D01*
X98787501Y-118849063D01*
X99038353Y-118757875D01*
X99144068Y-118701368D01*
X99205955Y-118465560D01*
X98450000Y-117709605D01*
X97694045Y-118465560D01*
X97313491Y-118465560D01*
X97193872Y-118320175D01*
X97084910Y-118133435D01*
X97007147Y-117931699D01*
X96962577Y-117720140D01*
X96957058Y-117603680D01*
X97090439Y-117603680D01*
X97130937Y-117867501D01*
X97222125Y-118118353D01*
X97278632Y-118224068D01*
X97514440Y-118285955D01*
X98270395Y-117530000D01*
X98629605Y-117530000D01*
X99385560Y-118285955D01*
X99621368Y-118224068D01*
X99734266Y-117982210D01*
X99797811Y-117722973D01*
X99809561Y-117456320D01*
X99769063Y-117192499D01*
X99677875Y-116941647D01*
X99621368Y-116835932D01*
X99385560Y-116774045D01*
X98629605Y-117530000D01*
X98270395Y-117530000D01*
X97514440Y-116774045D01*
X97278632Y-116835932D01*
X97165734Y-117077790D01*
X97102189Y-117337027D01*
X97090439Y-117603680D01*
X96957058Y-117603680D01*
X96952099Y-117499070D01*
X96955458Y-117396613D01*
X96982941Y-117167147D01*
X97047896Y-116951108D01*
X97149041Y-116749459D01*
X97263924Y-116594440D01*
X97694045Y-116594440D01*
X98450000Y-117350395D01*
X99205955Y-116594440D01*
X99144068Y-116358632D01*
X98902210Y-116245734D01*
X98642973Y-116182189D01*
X98376320Y-116170439D01*
X98112499Y-116210937D01*
X97861647Y-116302125D01*
X97755932Y-116358632D01*
X97694045Y-116594440D01*
X97263924Y-116594440D01*
X97283363Y-116568211D01*
X97446853Y-116412771D01*
X97634649Y-116287763D01*
X97841141Y-116196922D01*
X98060185Y-116142949D01*
X98290743Y-116127077D01*
X99141222Y-116142130D01*
X99679895Y-116181406D01*
X100210956Y-116279667D01*
X105774939Y-117629752D01*
X105800273Y-117646680D01*
X106061426Y-117754853D01*
X106122686Y-117767039D01*
X106065656Y-117775875D01*
X105818634Y-117866065D01*
X105717797Y-117919963D01*
X105658336Y-118153731D01*
X106400000Y-118895395D01*
X107141664Y-118153731D01*
X107082203Y-117919963D01*
X106843758Y-117809066D01*
X106760129Y-117788691D01*
X107092905Y-117801900D01*
X107097942Y-117802000D01*
X107550000Y-117802000D01*
X107562448Y-117801388D01*
X107767293Y-117781213D01*
X107791711Y-117776356D01*
X107988684Y-117716605D01*
X108011686Y-117707078D01*
X108193217Y-117610047D01*
X108213917Y-117596215D01*
X108373030Y-117465634D01*
X108390634Y-117448030D01*
X108521215Y-117288917D01*
X108535047Y-117268217D01*
X108632078Y-117086686D01*
X108641605Y-117063684D01*
X108701356Y-116866711D01*
X108706213Y-116842293D01*
X108726388Y-116637448D01*
X108727000Y-116625000D01*
X108727000Y-110659681D01*
X108726886Y-110654290D01*
X108708865Y-110230162D01*
X108707950Y-110219418D01*
X108654017Y-109798347D01*
X108652194Y-109787720D01*
X108562738Y-109372742D01*
X108560021Y-109362307D01*
X108435687Y-108956413D01*
X108432094Y-108946247D01*
X108273777Y-108552362D01*
X108269334Y-108542537D01*
X108078177Y-108163501D01*
X108072918Y-108154088D01*
X107850298Y-107792634D01*
X107844258Y-107783701D01*
X107591779Y-107442433D01*
X107585004Y-107434045D01*
X107304487Y-107115424D01*
X107300839Y-107111454D01*
X106318193Y-106086543D01*
X106042483Y-105773326D01*
X105796010Y-105439994D01*
X105578752Y-105086902D01*
X105392304Y-104716643D01*
X105237994Y-104331857D01*
X105116953Y-103935355D01*
X105030053Y-103530010D01*
X104977918Y-103118722D01*
X104960822Y-102701820D01*
X104973238Y-94776560D01*
X104973119Y-94770875D01*
X104953786Y-94323701D01*
X104952788Y-94312377D01*
X104893542Y-93868723D01*
X104891534Y-93857532D01*
X104792850Y-93420954D01*
X104789849Y-93409988D01*
X104652517Y-92983985D01*
X104648548Y-92973332D01*
X104473670Y-92561317D01*
X104468765Y-92551061D01*
X104257742Y-92156336D01*
X104251938Y-92146560D01*
X104006461Y-91772288D01*
X103999807Y-91763070D01*
X103721842Y-91412250D01*
X103714390Y-91403664D01*
X103406166Y-91079108D01*
X103397976Y-91071223D01*
X103061962Y-90775532D01*
X103057610Y-90771873D01*
X102509945Y-90331817D01*
X102180890Y-90042294D01*
X101880957Y-89726618D01*
X101610395Y-89385415D01*
X101371377Y-89021429D01*
X101165810Y-88637561D01*
X100995332Y-88236871D01*
X100861302Y-87822554D01*
X100764796Y-87397935D01*
X100706583Y-86966395D01*
X100687000Y-86528547D01*
X100687000Y-85267118D01*
X100686881Y-85261617D01*
X100679875Y-85100000D01*
X101658241Y-85100000D01*
X101685214Y-85373860D01*
X101765096Y-85637195D01*
X101894817Y-85879887D01*
X102069392Y-86092608D01*
X102282113Y-86267183D01*
X102524805Y-86396904D01*
X102788140Y-86476786D01*
X102993375Y-86497000D01*
X104606625Y-86497000D01*
X104811860Y-86476786D01*
X105075195Y-86396904D01*
X105317887Y-86267183D01*
X105530608Y-86092608D01*
X105705183Y-85879887D01*
X105834904Y-85637195D01*
X105914786Y-85373860D01*
X105941759Y-85100000D01*
X105914786Y-84826140D01*
X105834904Y-84562805D01*
X105705183Y-84320113D01*
X105530608Y-84107392D01*
X105317887Y-83932817D01*
X105075195Y-83803096D01*
X104811860Y-83723214D01*
X104606625Y-83703000D01*
X102993375Y-83703000D01*
X102788140Y-83723214D01*
X102524805Y-83803096D01*
X102282113Y-83932817D01*
X102069392Y-84107392D01*
X101894817Y-84320113D01*
X101765096Y-84562805D01*
X101685214Y-84826140D01*
X101658241Y-85100000D01*
X100679875Y-85100000D01*
X100668119Y-84828869D01*
X100667167Y-84817908D01*
X100611021Y-84388408D01*
X100609123Y-84377571D01*
X100516014Y-83954542D01*
X100513186Y-83943910D01*
X100383815Y-83530527D01*
X100380077Y-83520179D01*
X100215412Y-83119544D01*
X100210793Y-83109558D01*
X100012072Y-82724679D01*
X100006606Y-82715131D01*
X99775319Y-82348894D01*
X99769047Y-82339855D01*
X99506930Y-81995011D01*
X99499899Y-81986548D01*
X99208920Y-81665684D01*
X99205136Y-81661690D01*
X92957981Y-75345733D01*
X92953693Y-75341596D01*
X92608624Y-75024002D01*
X92599491Y-75016355D01*
X92226184Y-74732489D01*
X92216374Y-74725732D01*
X91818113Y-74478090D01*
X91807714Y-74472281D01*
X91388003Y-74263042D01*
X91382610Y-74260510D01*
X89360919Y-73368432D01*
X89005014Y-73193879D01*
X88666600Y-72992487D01*
X88345545Y-72764416D01*
X88043953Y-72511164D01*
X87761984Y-72232593D01*
X87759564Y-72230000D01*
X89181928Y-72230000D01*
X89194188Y-72354482D01*
X89230498Y-72474180D01*
X89289463Y-72584494D01*
X89368815Y-72681185D01*
X89465506Y-72760537D01*
X89575820Y-72819502D01*
X89695518Y-72855812D01*
X89820000Y-72868072D01*
X90334250Y-72865000D01*
X90493000Y-72706250D01*
X90493000Y-71557000D01*
X90747000Y-71557000D01*
X90747000Y-72706250D01*
X90905750Y-72865000D01*
X91420000Y-72868072D01*
X91544482Y-72855812D01*
X91664180Y-72819502D01*
X91774494Y-72760537D01*
X91871185Y-72681185D01*
X91950537Y-72584494D01*
X92009502Y-72474180D01*
X92045812Y-72354482D01*
X92058072Y-72230000D01*
X92055000Y-71715750D01*
X91896250Y-71557000D01*
X90747000Y-71557000D01*
X90493000Y-71557000D01*
X89343750Y-71557000D01*
X89185000Y-71715750D01*
X89181928Y-72230000D01*
X87759564Y-72230000D01*
X86851606Y-71257409D01*
X86555228Y-70908639D01*
X86294363Y-70536207D01*
X86133273Y-70253329D01*
X87087284Y-70253329D01*
X87119953Y-70361044D01*
X87230208Y-70598392D01*
X87384649Y-70809670D01*
X87577340Y-70986759D01*
X87800877Y-71122853D01*
X88046670Y-71212722D01*
X88253000Y-71090201D01*
X88253000Y-70047000D01*
X88507000Y-70047000D01*
X88507000Y-71090201D01*
X88713330Y-71212722D01*
X88959123Y-71122853D01*
X89182660Y-70986759D01*
X89184052Y-70985480D01*
X89185000Y-71144250D01*
X89343750Y-71303000D01*
X90493000Y-71303000D01*
X90493000Y-70153750D01*
X90747000Y-70153750D01*
X90747000Y-71303000D01*
X91896250Y-71303000D01*
X92055000Y-71144250D01*
X92058072Y-70630000D01*
X92045812Y-70505518D01*
X92009502Y-70385820D01*
X91950537Y-70275506D01*
X91871185Y-70178815D01*
X91774494Y-70099463D01*
X91664180Y-70040498D01*
X91544482Y-70004188D01*
X91420000Y-69991928D01*
X90905750Y-69995000D01*
X90747000Y-70153750D01*
X90493000Y-70153750D01*
X90334250Y-69995000D01*
X89820000Y-69991928D01*
X89695518Y-70004188D01*
X89575820Y-70040498D01*
X89552832Y-70052785D01*
X89549374Y-70047000D01*
X88507000Y-70047000D01*
X88253000Y-70047000D01*
X87210626Y-70047000D01*
X87087284Y-70253329D01*
X86133273Y-70253329D01*
X86069343Y-70141068D01*
X85882134Y-69726670D01*
X85834030Y-69586671D01*
X87087284Y-69586671D01*
X87210626Y-69793000D01*
X88253000Y-69793000D01*
X88253000Y-69773000D01*
X88507000Y-69773000D01*
X88507000Y-69793000D01*
X89549374Y-69793000D01*
X89672716Y-69586671D01*
X89640047Y-69478956D01*
X89529792Y-69241608D01*
X89375351Y-69030330D01*
X89182660Y-68853241D01*
X89049803Y-68772355D01*
X89082203Y-68755037D01*
X89141664Y-68521269D01*
X88400000Y-67779605D01*
X87658336Y-68521269D01*
X87717797Y-68755037D01*
X87729614Y-68760533D01*
X87577340Y-68853241D01*
X87384649Y-69030330D01*
X87230208Y-69241608D01*
X87119953Y-69478956D01*
X87087284Y-69586671D01*
X85834030Y-69586671D01*
X85734372Y-69296641D01*
X85627341Y-68854716D01*
X85561963Y-68404707D01*
X85538668Y-67947639D01*
X85537017Y-67558718D01*
X85555279Y-67268551D01*
X85611363Y-66987627D01*
X85704534Y-66716725D01*
X85733024Y-66660000D01*
X87443758Y-66660000D01*
X87362075Y-66741683D01*
G37*
%TD.AperFunction*%
%TD*%
M02*
