%TF.GenerationSoftware,KiCad,Pcbnew,5.1.8-5.1.8*%
%TF.CreationDate,2021-11-25T16:42:30+01:00*%
%TF.ProjectId,diodedistortion,64696f64-6564-4697-9374-6f7274696f6e,rev?*%
%TF.SameCoordinates,Original*%
%TF.FileFunction,Legend,Top*%
%TF.FilePolarity,Positive*%
%FSLAX46Y46*%
G04 Gerber Fmt 4.6, Leading zero omitted, Abs format (unit mm)*
G04 Created by KiCad (PCBNEW 5.1.8-5.1.8) date 2021-11-25 16:42:30*
%MOMM*%
%LPD*%
G01*
G04 APERTURE LIST*
%ADD10C,0.126000*%
%ADD11C,0.150000*%
%ADD12C,0.100000*%
%ADD13C,0.165375*%
%ADD14C,0.500000*%
%ADD15C,0.120000*%
%ADD16C,0.203200*%
%ADD17C,0.127000*%
G04 APERTURE END LIST*
D10*
X102027073Y-96855017D02*
X102109170Y-96976081D01*
X102135000Y-97535000D02*
X102135000Y-97923170D01*
X101397519Y-98071746D02*
X101367450Y-97923170D01*
X101483844Y-96855027D02*
X101605798Y-96773536D01*
X101601576Y-98274296D02*
X101479616Y-98192810D01*
X102104935Y-98071736D02*
X102022845Y-98192800D01*
X101755455Y-96743690D02*
X101905113Y-96773531D01*
X101900891Y-98274291D02*
X101751234Y-98304137D01*
X102139239Y-97124657D02*
X102139239Y-97512827D01*
X102135000Y-97923170D02*
X102104935Y-98071736D01*
X101605798Y-96773536D02*
X101755455Y-96743690D01*
X101401754Y-96976091D02*
X101483844Y-96855027D01*
X101367450Y-97923170D02*
X101367450Y-97535000D01*
X102022845Y-98192800D02*
X101900891Y-98274291D01*
X101905113Y-96773531D02*
X102027073Y-96855017D01*
X101371689Y-97124657D02*
X101401754Y-96976091D01*
X101751234Y-98304137D02*
X101601576Y-98274296D01*
X101371689Y-97512827D02*
X101371689Y-97124657D01*
X102109170Y-96976081D02*
X102139239Y-97124657D01*
X101479616Y-98192810D02*
X101397519Y-98071746D01*
X99704640Y-98140384D02*
X99583576Y-98222481D01*
X99704630Y-97597155D02*
X99786121Y-97719109D01*
X99815967Y-97868766D02*
X99786126Y-98018424D01*
X99435000Y-98252550D02*
X99046830Y-98252550D01*
X99786121Y-97719109D02*
X99815967Y-97868766D01*
X99583566Y-97515065D02*
X99704630Y-97597155D01*
X99786126Y-98018424D02*
X99704640Y-98140384D01*
X99435000Y-97485000D02*
X99583566Y-97515065D01*
X99046830Y-97485000D02*
X99435000Y-97485000D01*
X99583576Y-98222481D02*
X99435000Y-98252550D01*
X97370705Y-98320081D02*
X97221064Y-98348258D01*
X101946155Y-95201665D02*
X101803525Y-95663063D01*
X97261317Y-100035000D02*
X97035485Y-99617908D01*
X101703462Y-99156510D02*
X101560832Y-99617908D01*
X97560627Y-100398063D02*
X97261317Y-100035000D01*
X102834366Y-94122200D02*
X103251458Y-93896368D01*
X106663836Y-96159041D02*
X106614132Y-95663063D01*
X102171987Y-94784573D02*
X101946155Y-95201665D01*
X98755017Y-96817927D02*
X98876081Y-96735830D01*
X96843151Y-98660531D02*
X96843151Y-96159041D01*
X106967677Y-97495241D02*
X107116304Y-97525307D01*
X103433305Y-97703541D02*
X103462964Y-97853197D01*
X97604830Y-97967291D02*
X97574759Y-98116413D01*
X103251458Y-93896368D02*
X103712856Y-93753738D01*
X103712856Y-93753738D02*
X104208835Y-93704033D01*
X103230562Y-96731167D02*
X103351626Y-96813257D01*
X104208835Y-93704033D02*
X104704813Y-93753738D01*
X103230562Y-97438568D02*
X103081997Y-97468633D01*
X99794137Y-101065835D02*
X99298159Y-101115539D01*
X104704813Y-93753738D02*
X105166211Y-93896368D01*
X105415357Y-98174826D02*
X105333866Y-98052872D01*
X103081997Y-97469431D02*
X103230624Y-97499497D01*
X105166211Y-93896368D02*
X105583303Y-94122200D01*
X96860000Y-96647771D02*
X97221064Y-96640631D01*
X105415357Y-97412826D02*
X105333866Y-97290872D01*
X105583303Y-94122200D02*
X105946366Y-94421510D01*
X98755027Y-97361156D02*
X98673536Y-97239202D01*
X102834360Y-94122200D02*
X102471297Y-94421510D01*
X103081997Y-96701101D02*
X103230562Y-96731167D01*
X106245670Y-94784573D02*
X105946360Y-94421510D01*
X102784817Y-97469431D02*
X103081997Y-97469431D01*
X103351626Y-97356478D02*
X103230562Y-97438568D01*
X107237306Y-96839067D02*
X107318797Y-96961021D01*
X101753167Y-98660531D02*
X101703462Y-99156510D01*
X102471303Y-94421510D02*
X102834366Y-94122200D01*
X105536411Y-96787500D02*
X105684987Y-96757431D01*
X105536411Y-97549500D02*
X105684987Y-97519431D01*
X107348644Y-97110677D02*
X107318798Y-97260331D01*
X107348644Y-97879007D02*
X107347797Y-98262773D01*
X96892855Y-99156510D02*
X96843151Y-98660531D01*
X107237473Y-97607397D02*
X107318986Y-97729351D01*
X106614132Y-95663063D02*
X106471502Y-95201665D01*
X103251452Y-93896368D02*
X102834360Y-94122200D01*
X103712850Y-93753738D02*
X103251452Y-93896368D01*
X96843151Y-98660531D02*
X96843154Y-96159041D01*
X105684987Y-98286981D02*
X105536421Y-98256916D01*
X102700157Y-96710000D02*
X102700157Y-98316091D01*
X99298159Y-101115539D02*
X98802180Y-101065835D01*
X98802180Y-101065835D02*
X98340782Y-100923205D01*
X105415347Y-96869597D02*
X105536411Y-96787500D01*
X101035690Y-100398063D02*
X100672627Y-100697373D01*
X97221064Y-98348258D02*
X96837298Y-98341091D01*
X97574758Y-96872481D02*
X97604830Y-97021601D01*
X101803525Y-95663063D02*
X101753821Y-96159041D01*
X101335000Y-100035000D02*
X101035690Y-100398063D01*
X106664167Y-97495241D02*
X106967677Y-97495241D01*
X102471297Y-94421510D02*
X102171987Y-94784573D01*
X101753827Y-96685000D02*
X101753827Y-96159041D01*
X106471502Y-95201665D02*
X106245670Y-94784573D01*
X105536421Y-97494916D02*
X105415357Y-97412826D01*
X102693827Y-96701101D02*
X103081997Y-96701101D01*
X105166205Y-93896368D02*
X104704807Y-93753738D01*
X101753827Y-96159041D02*
X101803531Y-95663063D01*
X101803531Y-95663063D02*
X101946161Y-95201665D01*
X101946161Y-95201665D02*
X102171993Y-94784573D01*
X107116304Y-97525307D02*
X107237473Y-97607397D01*
X98643690Y-97089545D02*
X98673531Y-96939887D01*
X98340782Y-100923205D02*
X97923690Y-100697373D01*
X100255535Y-100923205D02*
X99794137Y-101065835D01*
X102171993Y-94784573D02*
X102471303Y-94421510D01*
X103351626Y-96813257D02*
X103433117Y-96935211D01*
X104208829Y-93704033D02*
X103712850Y-93753738D01*
X105684987Y-97519431D02*
X106073157Y-97519431D01*
X103081997Y-97468633D02*
X102693827Y-97468622D01*
X103956477Y-96757431D02*
X104972487Y-96757431D01*
X97035485Y-99617908D02*
X96892855Y-99156510D01*
X107116242Y-96756977D02*
X107237306Y-96839067D01*
X105333866Y-97290872D02*
X105304020Y-97141215D01*
X99975487Y-96732431D02*
X100991497Y-96732431D01*
X100672627Y-100697373D02*
X100255535Y-100923205D01*
X105333861Y-96991557D02*
X105415347Y-96869597D01*
X105536421Y-98256916D02*
X105415357Y-98174826D01*
X101560832Y-99617908D02*
X101335000Y-100035000D01*
X99794137Y-101065835D02*
X99298159Y-101115539D01*
X101753821Y-96159041D02*
X101753167Y-96159041D01*
X97604830Y-97021601D02*
X97604830Y-97560000D01*
X99024657Y-96705761D02*
X99412827Y-96705761D01*
X103351793Y-97581587D02*
X103433305Y-97703541D01*
X107318797Y-96961021D02*
X107348644Y-97110677D01*
X107318986Y-97729351D02*
X107348644Y-97879007D01*
X107318798Y-97260331D02*
X107237305Y-97382281D01*
X99298159Y-101115539D02*
X98802180Y-101065835D01*
X98802180Y-101065835D02*
X98340782Y-100923205D01*
X104704807Y-93753738D02*
X104208829Y-93704033D01*
X96892855Y-99156510D02*
X96843151Y-98660531D01*
X97492660Y-98238404D02*
X97370705Y-98320081D01*
X103462964Y-97853197D02*
X103462157Y-98310000D01*
X105415347Y-97631597D02*
X105536411Y-97549500D01*
X98340782Y-100923205D02*
X97923690Y-100697373D01*
X97923690Y-100697373D02*
X97560627Y-100398063D01*
X97560627Y-100398063D02*
X97261317Y-100035000D01*
X106967677Y-97494431D02*
X106660000Y-97494431D01*
X106967677Y-96726911D02*
X107116242Y-96756977D01*
X103230624Y-97499497D02*
X103351793Y-97581587D01*
X101035690Y-100398063D02*
X100672627Y-100697373D01*
X97574759Y-98116413D02*
X97492660Y-98238404D01*
X98673536Y-97239202D02*
X98643690Y-97089545D01*
X105684987Y-97524981D02*
X105536421Y-97494916D01*
X98876091Y-97443246D02*
X98755027Y-97361156D01*
X103433117Y-96935211D02*
X103462964Y-97084867D01*
X106073157Y-97524981D02*
X105684987Y-97524981D01*
X107116240Y-97464367D02*
X106967677Y-97494431D01*
X97261317Y-100035000D02*
X97035485Y-99617908D01*
X100255535Y-100923205D02*
X99794137Y-101065835D01*
X107237305Y-97382281D02*
X107116240Y-97464367D01*
X106245676Y-94784573D02*
X106471508Y-95201665D01*
X97221064Y-96640631D02*
X97370704Y-96668808D01*
X98673531Y-96939887D02*
X98755017Y-96817927D01*
X97923690Y-100697373D02*
X97560627Y-100398063D01*
X97492660Y-96750488D02*
X97574758Y-96872481D01*
X105946360Y-94421510D02*
X105583297Y-94122200D01*
X106685000Y-96726911D02*
X106967677Y-96726911D01*
X106471508Y-95201665D02*
X106614138Y-95663063D01*
X106614138Y-95663063D02*
X106663843Y-96159041D01*
X106663836Y-98660531D02*
X106663836Y-96159041D01*
X105304020Y-97903215D02*
X105333861Y-97753557D01*
X105684987Y-96757431D02*
X106073157Y-96757431D01*
X105583297Y-94122200D02*
X105166205Y-93896368D01*
X99024657Y-97473311D02*
X98876091Y-97443246D01*
X106073157Y-98286981D02*
X105684987Y-98286981D01*
X105333866Y-98052872D02*
X105304020Y-97903215D01*
X105333861Y-97753557D02*
X105415347Y-97631597D01*
X103462964Y-97084867D02*
X103433117Y-97234524D01*
X106663843Y-96159041D02*
X106663836Y-98660531D01*
X100672627Y-100697373D02*
X100255535Y-100923205D01*
X105304020Y-97141215D02*
X105333861Y-96991557D01*
X103433117Y-97234524D02*
X103351626Y-97356478D01*
X98112829Y-96647771D02*
X98112829Y-98341091D01*
X105946366Y-94421510D02*
X106245676Y-94784573D01*
X98876081Y-96735830D02*
X99024657Y-96705761D01*
X97035485Y-99617908D02*
X96892855Y-99156510D01*
X97370704Y-96668808D02*
X97492660Y-96750488D01*
X97604830Y-97579122D02*
X97604830Y-97967291D01*
X104464497Y-96760000D02*
X104464497Y-98366091D01*
X101753167Y-98341091D02*
X101753167Y-98660531D01*
X100483507Y-96735000D02*
X100483507Y-98341091D01*
X101753167Y-98660531D02*
X101703462Y-99156510D01*
X101703462Y-99156510D02*
X101560832Y-99617908D01*
X101560832Y-99617908D02*
X101335000Y-100035000D01*
X101335000Y-100035000D02*
X101035690Y-100398063D01*
D11*
X65298095Y-74661428D02*
X66060000Y-74661428D01*
X68060000Y-74661428D02*
X68821904Y-74661428D01*
X68440952Y-75042380D02*
X68440952Y-74280476D01*
X81101428Y-81190952D02*
X81101428Y-80429047D01*
X81101428Y-75190952D02*
X81101428Y-74429047D01*
X81482380Y-74810000D02*
X80720476Y-74810000D01*
D12*
G36*
X107438051Y-140278856D02*
G01*
X107373791Y-140424512D01*
X107250000Y-140400000D01*
X107270618Y-140246201D01*
X107438051Y-140278856D01*
G37*
X107438051Y-140278856D02*
X107373791Y-140424512D01*
X107250000Y-140400000D01*
X107270618Y-140246201D01*
X107438051Y-140278856D01*
G36*
X106689338Y-139378838D02*
G01*
X106524310Y-139559879D01*
X106508245Y-139559879D01*
X106350000Y-139400000D01*
X106508245Y-139229927D01*
X106689338Y-139378838D01*
G37*
X106689338Y-139378838D02*
X106524310Y-139559879D01*
X106508245Y-139559879D01*
X106350000Y-139400000D01*
X106508245Y-139229927D01*
X106689338Y-139378838D01*
D11*
X110654761Y-139490476D02*
X110559523Y-139442857D01*
X110369047Y-139442857D01*
X110273809Y-139490476D01*
X110178571Y-139585714D01*
X110130952Y-139680952D01*
X110130952Y-139871428D01*
X110178571Y-139966666D01*
X110273809Y-140061904D01*
X110369047Y-140109523D01*
X110559523Y-140109523D01*
X110654761Y-140061904D01*
X110464285Y-139109523D02*
X110226190Y-139157142D01*
X109988095Y-139300000D01*
X109845238Y-139538095D01*
X109797619Y-139776190D01*
X109845238Y-140014285D01*
X109988095Y-140252380D01*
X110226190Y-140395238D01*
X110464285Y-140442857D01*
X110702380Y-140395238D01*
X110940476Y-140252380D01*
X111083333Y-140014285D01*
X111130952Y-139776190D01*
X111083333Y-139538095D01*
X110940476Y-139300000D01*
X110702380Y-139157142D01*
X110464285Y-139109523D01*
X112273809Y-139347619D02*
X112321428Y-139300000D01*
X112416666Y-139252380D01*
X112654761Y-139252380D01*
X112750000Y-139300000D01*
X112797619Y-139347619D01*
X112845238Y-139442857D01*
X112845238Y-139538095D01*
X112797619Y-139680952D01*
X112226190Y-140252380D01*
X112845238Y-140252380D01*
X113464285Y-139252380D02*
X113559523Y-139252380D01*
X113654761Y-139300000D01*
X113702380Y-139347619D01*
X113750000Y-139442857D01*
X113797619Y-139633333D01*
X113797619Y-139871428D01*
X113750000Y-140061904D01*
X113702380Y-140157142D01*
X113654761Y-140204761D01*
X113559523Y-140252380D01*
X113464285Y-140252380D01*
X113369047Y-140204761D01*
X113321428Y-140157142D01*
X113273809Y-140061904D01*
X113226190Y-139871428D01*
X113226190Y-139633333D01*
X113273809Y-139442857D01*
X113321428Y-139347619D01*
X113369047Y-139300000D01*
X113464285Y-139252380D01*
X114178571Y-139347619D02*
X114226190Y-139300000D01*
X114321428Y-139252380D01*
X114559523Y-139252380D01*
X114654761Y-139300000D01*
X114702380Y-139347619D01*
X114750000Y-139442857D01*
X114750000Y-139538095D01*
X114702380Y-139680952D01*
X114130952Y-140252380D01*
X114750000Y-140252380D01*
X115702380Y-140252380D02*
X115130952Y-140252380D01*
X115416666Y-140252380D02*
X115416666Y-139252380D01*
X115321428Y-139395238D01*
X115226190Y-139490476D01*
X115130952Y-139538095D01*
X108083333Y-141902380D02*
X108083333Y-140902380D01*
X108416666Y-141616666D01*
X108750000Y-140902380D01*
X108750000Y-141902380D01*
X109654761Y-141902380D02*
X109654761Y-141378571D01*
X109607142Y-141283333D01*
X109511904Y-141235714D01*
X109321428Y-141235714D01*
X109226190Y-141283333D01*
X109654761Y-141854761D02*
X109559523Y-141902380D01*
X109321428Y-141902380D01*
X109226190Y-141854761D01*
X109178571Y-141759523D01*
X109178571Y-141664285D01*
X109226190Y-141569047D01*
X109321428Y-141521428D01*
X109559523Y-141521428D01*
X109654761Y-141473809D01*
X110130952Y-141902380D02*
X110130952Y-141235714D01*
X110130952Y-141426190D02*
X110178571Y-141330952D01*
X110226190Y-141283333D01*
X110321428Y-141235714D01*
X110416666Y-141235714D01*
X111178571Y-141854761D02*
X111083333Y-141902380D01*
X110892857Y-141902380D01*
X110797619Y-141854761D01*
X110750000Y-141807142D01*
X110702380Y-141711904D01*
X110702380Y-141426190D01*
X110750000Y-141330952D01*
X110797619Y-141283333D01*
X110892857Y-141235714D01*
X111083333Y-141235714D01*
X111178571Y-141283333D01*
X111750000Y-141902380D02*
X111654761Y-141854761D01*
X111607142Y-141807142D01*
X111559523Y-141711904D01*
X111559523Y-141426190D01*
X111607142Y-141330952D01*
X111654761Y-141283333D01*
X111750000Y-141235714D01*
X111892857Y-141235714D01*
X111988095Y-141283333D01*
X112035714Y-141330952D01*
X112083333Y-141426190D01*
X112083333Y-141711904D01*
X112035714Y-141807142D01*
X111988095Y-141854761D01*
X111892857Y-141902380D01*
X111750000Y-141902380D01*
X113273809Y-141902380D02*
X113273809Y-140902380D01*
X113607142Y-141616666D01*
X113940476Y-140902380D01*
X113940476Y-141902380D01*
X114845238Y-141902380D02*
X114845238Y-141378571D01*
X114797619Y-141283333D01*
X114702380Y-141235714D01*
X114511904Y-141235714D01*
X114416666Y-141283333D01*
X114845238Y-141854761D02*
X114750000Y-141902380D01*
X114511904Y-141902380D01*
X114416666Y-141854761D01*
X114369047Y-141759523D01*
X114369047Y-141664285D01*
X114416666Y-141569047D01*
X114511904Y-141521428D01*
X114750000Y-141521428D01*
X114845238Y-141473809D01*
X115321428Y-141902380D02*
X115321428Y-141235714D01*
X115321428Y-141426190D02*
X115369047Y-141330952D01*
X115416666Y-141283333D01*
X115511904Y-141235714D01*
X115607142Y-141235714D01*
X115797619Y-141235714D02*
X116178571Y-141235714D01*
X115940476Y-140902380D02*
X115940476Y-141759523D01*
X115988095Y-141854761D01*
X116083333Y-141902380D01*
X116178571Y-141902380D01*
X116511904Y-141902380D02*
X116511904Y-141235714D01*
X116511904Y-140902380D02*
X116464285Y-140950000D01*
X116511904Y-140997619D01*
X116559523Y-140950000D01*
X116511904Y-140902380D01*
X116511904Y-140997619D01*
X116988095Y-141235714D02*
X116988095Y-141902380D01*
X116988095Y-141330952D02*
X117035714Y-141283333D01*
X117130952Y-141235714D01*
X117273809Y-141235714D01*
X117369047Y-141283333D01*
X117416666Y-141378571D01*
X117416666Y-141902380D01*
D13*
X107270618Y-140391584D02*
X107248579Y-140358887D01*
X106359334Y-139378838D02*
X106372265Y-139330643D01*
X106205126Y-141651560D02*
X106107715Y-141675941D01*
X106524310Y-139559879D02*
X106508245Y-139559879D01*
X107373791Y-139985696D02*
X107415823Y-139998747D01*
X107281507Y-140744321D02*
X107255582Y-140781911D01*
X107486971Y-140046774D02*
X107514313Y-140079923D01*
X105468953Y-140794049D02*
X105507349Y-140660804D01*
X106907350Y-139577592D02*
X106907350Y-139577592D01*
X107486971Y-140363433D02*
X107453822Y-140390775D01*
X107339950Y-140429058D02*
X107328673Y-140429058D01*
X107041960Y-140711792D02*
X107221352Y-140738619D01*
X107416001Y-140391584D02*
X107383357Y-140413634D01*
X107415823Y-139998747D02*
X107453822Y-140019432D01*
X107453822Y-140019432D02*
X107486971Y-140046774D01*
X106624910Y-141437252D02*
X106516561Y-141508745D01*
X107241449Y-140411460D02*
X107203460Y-140390775D01*
X107383357Y-140413634D02*
X107353337Y-140421719D01*
X106748873Y-139875582D02*
X106687805Y-139908741D01*
X107353337Y-140216129D02*
X107383357Y-140224161D01*
X106860236Y-140685353D02*
X106424162Y-141557450D01*
X105574682Y-141541159D02*
X105526717Y-141480547D01*
X106689338Y-139394892D02*
X106689338Y-139410905D01*
X107764685Y-139892844D02*
X107726402Y-140222796D01*
X107333335Y-140216129D02*
X107343373Y-140216129D01*
X106273259Y-140378543D02*
X106435900Y-140495208D01*
X106689338Y-139410905D02*
X106676350Y-139459110D01*
X105882812Y-139917561D02*
X105911523Y-139875131D01*
X107303326Y-140413634D02*
X107270618Y-140391584D01*
X106676350Y-139459110D02*
X106640975Y-139511568D01*
X107438051Y-140358887D02*
X107416001Y-140391584D01*
X106845935Y-139778510D02*
X106802014Y-139831713D01*
X107383357Y-140224161D02*
X107416001Y-140246201D01*
X106640975Y-139511568D02*
X106588507Y-139546880D01*
X107204951Y-139689522D02*
X107764685Y-139892844D01*
X107514313Y-140079923D02*
X107534998Y-140117912D01*
X107328673Y-139981191D02*
X107339950Y-139981191D01*
X105487525Y-141410194D02*
X105457674Y-141330327D01*
X107317343Y-139981191D02*
X107328673Y-139981191D01*
X106588507Y-139546880D02*
X106540312Y-139559879D01*
X106540312Y-139559879D02*
X106524310Y-139559879D01*
X107328673Y-140429058D02*
X107317343Y-140429058D01*
X107170312Y-140363433D02*
X107142970Y-140330285D01*
X106907350Y-139559480D02*
X106907350Y-139577592D01*
X105892896Y-139960632D02*
X105905598Y-139901664D01*
X105842766Y-141682093D02*
X105765463Y-141662441D01*
X107552596Y-140205135D02*
X107552596Y-140216402D01*
X107260874Y-140756049D02*
X107224943Y-140778782D01*
X106182284Y-141020888D02*
X106084586Y-140970071D01*
X107048785Y-138988332D02*
X107204951Y-139689522D01*
X107453822Y-140390775D02*
X107415823Y-140411460D01*
X107109233Y-140250254D02*
X107104729Y-140216402D01*
X106967336Y-140916237D02*
X106822016Y-140976056D01*
X106620301Y-139225422D02*
X106687805Y-139246338D01*
X106687805Y-139246338D02*
X106748873Y-139279487D01*
X107283491Y-139985696D02*
X107317343Y-139981191D01*
X105624812Y-140369817D02*
X105705077Y-140212485D01*
X107446136Y-140328857D02*
X107438051Y-140358887D01*
X107514313Y-140330285D02*
X107486971Y-140363433D01*
X105911523Y-139875131D02*
X105911523Y-139875131D01*
X106748873Y-139279487D02*
X106802014Y-139323408D01*
X106618642Y-140588679D02*
X106820819Y-140660405D01*
X107317343Y-140429058D02*
X107283491Y-140424512D01*
X107104729Y-140216402D02*
X107104729Y-140205135D01*
X106306128Y-141615728D02*
X106205126Y-141651560D01*
X106802014Y-139323408D02*
X106845935Y-139376570D01*
X107446136Y-140308865D02*
X107446136Y-140318892D01*
X107065154Y-141026869D02*
X106955209Y-141148549D01*
X106845935Y-139376570D02*
X106879094Y-139437627D01*
X106879094Y-139437627D02*
X106900000Y-139505132D01*
X105430045Y-141035128D02*
X105443375Y-140918862D01*
X105428393Y-141142567D02*
X105430045Y-141035128D01*
X106900000Y-139505132D02*
X106907350Y-139559480D01*
X106565953Y-139218135D02*
X106620301Y-139225422D01*
X107241449Y-139998747D02*
X107283491Y-139985696D01*
X106955209Y-141148549D02*
X106844738Y-141257354D01*
X106249788Y-139376570D02*
X106293709Y-139323408D01*
X106844738Y-141257354D02*
X106734457Y-141353513D01*
X107534998Y-140117912D02*
X107548049Y-140159954D01*
X106516561Y-141508745D02*
X106410148Y-141568160D01*
X107203460Y-140019432D02*
X107241449Y-139998747D01*
X107373791Y-140424512D02*
X107339950Y-140429058D01*
X106293709Y-139323408D02*
X106346860Y-139279487D01*
X106802014Y-139831713D02*
X106748873Y-139875582D01*
X106107715Y-141675941D02*
X106014461Y-141689044D01*
X106131242Y-140237255D02*
X106273259Y-140378543D01*
X106410148Y-141568160D02*
X106306128Y-141615728D01*
X105526717Y-141480547D02*
X105487525Y-141410194D01*
X107170312Y-140046774D02*
X107203460Y-140019432D01*
X106346860Y-139279487D02*
X106407926Y-139246338D01*
X107142970Y-140079923D02*
X107170312Y-140046774D01*
X106820819Y-140660405D02*
X107041960Y-140711792D01*
X105911523Y-139875131D02*
X105932601Y-139925310D01*
X106407926Y-139246338D02*
X106475432Y-139225422D01*
X107415823Y-140411460D02*
X107373791Y-140424512D01*
X106475432Y-139225422D02*
X106529780Y-139218135D01*
X106529780Y-139218135D02*
X106547893Y-139218135D01*
X106547893Y-139218135D02*
X106565953Y-139218135D01*
X106216634Y-139437627D02*
X106249788Y-139376570D01*
X105443375Y-140918862D02*
X105468953Y-140794049D01*
X107104729Y-140205135D02*
X107104729Y-140205135D01*
X106249788Y-139778510D02*
X106216634Y-139717452D01*
X107122285Y-140117912D02*
X107142970Y-140079923D01*
X106216634Y-139717452D02*
X106195728Y-139650000D01*
X107109233Y-140159954D02*
X107122285Y-140117912D01*
X106412369Y-140508596D02*
X105817245Y-141675315D01*
X106195728Y-139650000D02*
X106188437Y-139595652D01*
X107104729Y-140193806D02*
X107109233Y-140159954D01*
X105848234Y-140346980D02*
X105864242Y-140139563D01*
X107221352Y-140738619D02*
X107281507Y-140744321D01*
X106188437Y-139595652D02*
X106188437Y-139577592D01*
X106679993Y-141020602D02*
X106543168Y-141048630D01*
X106084586Y-140970071D02*
X106001245Y-140896361D01*
X107104729Y-140205135D02*
X107104729Y-140193806D01*
X106014461Y-141689044D02*
X105925937Y-141691037D01*
X106879094Y-139717452D02*
X106845935Y-139778510D01*
X106734457Y-141353513D02*
X106624910Y-141437252D01*
X106689338Y-139394892D02*
X106689338Y-139394892D01*
X105932601Y-139925310D02*
X106010474Y-140069906D01*
X105457674Y-141330327D02*
X105437793Y-141241005D01*
X107552596Y-140216402D02*
X107548049Y-140250254D01*
X107174113Y-140892203D02*
X107065154Y-141026869D01*
X107283491Y-140424512D02*
X107241449Y-140411460D01*
X106188437Y-139577592D02*
X106188437Y-139559480D01*
X106689338Y-139378838D02*
X106689338Y-139394892D01*
X105765463Y-141662441D02*
X105694653Y-141632304D01*
X106188437Y-139559480D02*
X106195728Y-139505132D01*
X106195728Y-139505132D02*
X106216634Y-139437627D01*
X105630851Y-141591802D02*
X105574682Y-141541159D01*
X105559074Y-140519306D02*
X105624812Y-140369817D01*
X105705077Y-140212485D02*
X105800440Y-140047499D01*
X106676350Y-139330643D02*
X106689338Y-139378838D01*
X106293709Y-139831713D02*
X106249788Y-139778510D01*
X106640975Y-139278227D02*
X106676350Y-139330643D01*
X105925937Y-141691037D02*
X105842766Y-141682093D01*
X105694653Y-141632304D02*
X105630851Y-141591802D01*
X107122285Y-140292296D02*
X107109233Y-140250254D01*
X106620301Y-139929636D02*
X106565953Y-139936986D01*
X106292456Y-141050055D02*
X106182284Y-141020888D01*
X106565953Y-139936986D02*
X106547893Y-139936986D01*
X106547893Y-139936986D02*
X106529780Y-139936986D01*
X106413396Y-141058883D02*
X106292456Y-141050055D01*
X107270618Y-140246201D02*
X107303326Y-140224161D01*
X106822016Y-140976056D02*
X106679993Y-141020602D01*
X107552596Y-140193806D02*
X107552596Y-140205135D01*
X107240546Y-140328857D02*
X107240546Y-140318892D01*
X106588507Y-139242863D02*
X106640975Y-139278227D01*
X105855754Y-140525049D02*
X105848234Y-140346980D01*
X107416001Y-140246201D02*
X107438051Y-140278856D01*
X107333335Y-140421719D02*
X107303326Y-140413634D01*
X107203460Y-140390775D02*
X107170312Y-140363433D01*
X106529780Y-139936986D02*
X106475432Y-139929636D01*
X106540312Y-139229927D02*
X106588507Y-139242863D01*
X107114252Y-140842464D02*
X106967336Y-140916237D01*
X106524310Y-139229927D02*
X106540312Y-139229927D01*
X107224943Y-140778782D02*
X107114252Y-140842464D01*
X106475432Y-139929636D02*
X106407926Y-139908741D01*
X107303326Y-140224161D02*
X107333335Y-140216129D01*
X105934139Y-140798490D02*
X105885034Y-140675157D01*
X106435900Y-140495208D02*
X106618642Y-140588679D01*
X107353337Y-140421719D02*
X107343373Y-140421719D01*
X106407926Y-139908741D02*
X106346860Y-139875582D01*
X106508245Y-139229927D02*
X106524310Y-139229927D01*
X107248579Y-140358887D02*
X107240546Y-140328857D01*
X106543168Y-141048630D02*
X106413396Y-141058883D01*
X106346860Y-139875582D02*
X106293709Y-139831713D01*
X105507349Y-140660804D02*
X105559074Y-140519306D01*
X106687805Y-139908741D02*
X106620301Y-139929636D01*
X106460050Y-139242863D02*
X106508245Y-139229927D01*
X107548049Y-140159954D02*
X107552596Y-140193806D01*
X106521401Y-138982410D02*
X107048785Y-138988332D01*
X105864242Y-140139563D02*
X105892896Y-139960632D01*
X105800440Y-140047499D02*
X105882812Y-139917561D01*
X107142970Y-140330285D02*
X107122285Y-140292296D01*
X106407641Y-139278227D02*
X106460050Y-139242863D01*
X107255582Y-140781911D02*
X107174113Y-140892203D01*
X107446136Y-140318892D02*
X107446136Y-140328857D01*
X106372265Y-139330643D02*
X106407641Y-139278227D01*
X106508245Y-139559879D02*
X106460050Y-139546880D01*
X107248579Y-140278856D02*
X107270618Y-140246201D01*
X107240546Y-140318892D02*
X107240546Y-140308865D01*
X107240546Y-140318892D02*
X107240546Y-140318892D01*
X106010474Y-140069906D02*
X106131242Y-140237255D01*
X106076497Y-140184513D02*
X105481372Y-141351234D01*
X107438051Y-140278856D02*
X107446136Y-140308865D01*
X105437793Y-141241005D02*
X105428393Y-141142567D01*
X107343373Y-140216129D02*
X107353337Y-140216129D01*
X106001245Y-140896361D02*
X105934139Y-140798490D01*
X107240546Y-140308865D02*
X107248579Y-140278856D01*
X107548049Y-140250254D02*
X107534998Y-140292296D01*
X107343373Y-140421719D02*
X107333335Y-140421719D01*
X106460050Y-139546880D02*
X106407641Y-139511568D01*
X107339950Y-139981191D02*
X107373791Y-139985696D01*
X106407641Y-139511568D02*
X106372265Y-139459110D01*
X105885034Y-140675157D02*
X105855754Y-140525049D01*
X106372265Y-139459110D02*
X106359334Y-139410905D01*
X106359334Y-139410905D02*
X106359334Y-139394892D01*
X107534998Y-140292296D02*
X107514313Y-140330285D01*
X106359334Y-139394892D02*
X106359334Y-139378838D01*
X106907350Y-139577592D02*
X106907350Y-139595652D01*
X106907350Y-139595652D02*
X106900000Y-139650000D01*
X106900000Y-139650000D02*
X106879094Y-139717452D01*
D11*
X97004761Y-108827380D02*
X97338095Y-109827380D01*
X97671428Y-108827380D01*
X98147619Y-109827380D02*
X98052380Y-109779761D01*
X98004761Y-109732142D01*
X97957142Y-109636904D01*
X97957142Y-109351190D01*
X98004761Y-109255952D01*
X98052380Y-109208333D01*
X98147619Y-109160714D01*
X98290476Y-109160714D01*
X98385714Y-109208333D01*
X98433333Y-109255952D01*
X98480952Y-109351190D01*
X98480952Y-109636904D01*
X98433333Y-109732142D01*
X98385714Y-109779761D01*
X98290476Y-109827380D01*
X98147619Y-109827380D01*
X99052380Y-109827380D02*
X98957142Y-109779761D01*
X98909523Y-109684523D01*
X98909523Y-108827380D01*
X99861904Y-109160714D02*
X99861904Y-109827380D01*
X99433333Y-109160714D02*
X99433333Y-109684523D01*
X99480952Y-109779761D01*
X99576190Y-109827380D01*
X99719047Y-109827380D01*
X99814285Y-109779761D01*
X99861904Y-109732142D01*
X100338095Y-109827380D02*
X100338095Y-109160714D01*
X100338095Y-109255952D02*
X100385714Y-109208333D01*
X100480952Y-109160714D01*
X100623809Y-109160714D01*
X100719047Y-109208333D01*
X100766666Y-109303571D01*
X100766666Y-109827380D01*
X100766666Y-109303571D02*
X100814285Y-109208333D01*
X100909523Y-109160714D01*
X101052380Y-109160714D01*
X101147619Y-109208333D01*
X101195238Y-109303571D01*
X101195238Y-109827380D01*
X102052380Y-109779761D02*
X101957142Y-109827380D01*
X101766666Y-109827380D01*
X101671428Y-109779761D01*
X101623809Y-109684523D01*
X101623809Y-109303571D01*
X101671428Y-109208333D01*
X101766666Y-109160714D01*
X101957142Y-109160714D01*
X102052380Y-109208333D01*
X102100000Y-109303571D01*
X102100000Y-109398809D01*
X101623809Y-109494047D01*
X68476190Y-92852380D02*
X68666666Y-92852380D01*
X68761904Y-92900000D01*
X68857142Y-92995238D01*
X68904761Y-93185714D01*
X68904761Y-93519047D01*
X68857142Y-93709523D01*
X68761904Y-93804761D01*
X68666666Y-93852380D01*
X68476190Y-93852380D01*
X68380952Y-93804761D01*
X68285714Y-93709523D01*
X68238095Y-93519047D01*
X68238095Y-93185714D01*
X68285714Y-92995238D01*
X68380952Y-92900000D01*
X68476190Y-92852380D01*
X69761904Y-93185714D02*
X69761904Y-93852380D01*
X69333333Y-93185714D02*
X69333333Y-93709523D01*
X69380952Y-93804761D01*
X69476190Y-93852380D01*
X69619047Y-93852380D01*
X69714285Y-93804761D01*
X69761904Y-93757142D01*
X70095238Y-93185714D02*
X70476190Y-93185714D01*
X70238095Y-92852380D02*
X70238095Y-93709523D01*
X70285714Y-93804761D01*
X70380952Y-93852380D01*
X70476190Y-93852380D01*
X70809523Y-93185714D02*
X70809523Y-94185714D01*
X70809523Y-93233333D02*
X70904761Y-93185714D01*
X71095238Y-93185714D01*
X71190476Y-93233333D01*
X71238095Y-93280952D01*
X71285714Y-93376190D01*
X71285714Y-93661904D01*
X71238095Y-93757142D01*
X71190476Y-93804761D01*
X71095238Y-93852380D01*
X70904761Y-93852380D01*
X70809523Y-93804761D01*
X72142857Y-93185714D02*
X72142857Y-93852380D01*
X71714285Y-93185714D02*
X71714285Y-93709523D01*
X71761904Y-93804761D01*
X71857142Y-93852380D01*
X72000000Y-93852380D01*
X72095238Y-93804761D01*
X72142857Y-93757142D01*
X72476190Y-93185714D02*
X72857142Y-93185714D01*
X72619047Y-92852380D02*
X72619047Y-93709523D01*
X72666666Y-93804761D01*
X72761904Y-93852380D01*
X72857142Y-93852380D01*
X111057142Y-93852380D02*
X111057142Y-92852380D01*
X111533333Y-93185714D02*
X111533333Y-93852380D01*
X111533333Y-93280952D02*
X111580952Y-93233333D01*
X111676190Y-93185714D01*
X111819047Y-93185714D01*
X111914285Y-93233333D01*
X111961904Y-93328571D01*
X111961904Y-93852380D01*
X112438095Y-93185714D02*
X112438095Y-94185714D01*
X112438095Y-93233333D02*
X112533333Y-93185714D01*
X112723809Y-93185714D01*
X112819047Y-93233333D01*
X112866666Y-93280952D01*
X112914285Y-93376190D01*
X112914285Y-93661904D01*
X112866666Y-93757142D01*
X112819047Y-93804761D01*
X112723809Y-93852380D01*
X112533333Y-93852380D01*
X112438095Y-93804761D01*
X113771428Y-93185714D02*
X113771428Y-93852380D01*
X113342857Y-93185714D02*
X113342857Y-93709523D01*
X113390476Y-93804761D01*
X113485714Y-93852380D01*
X113628571Y-93852380D01*
X113723809Y-93804761D01*
X113771428Y-93757142D01*
X114104761Y-93185714D02*
X114485714Y-93185714D01*
X114247619Y-92852380D02*
X114247619Y-93709523D01*
X114295238Y-93804761D01*
X114390476Y-93852380D01*
X114485714Y-93852380D01*
%TO.C,REF\u002A\u002A*%
X80355000Y-77135000D02*
G75*
G03*
X81780000Y-77060000I750000J-675000D01*
G01*
X81105000Y-77810000D02*
X81105000Y-75810000D01*
X81105000Y-79810000D02*
X81105000Y-78910000D01*
X82030000Y-80810000D02*
G75*
G03*
X82030000Y-80810000I-925000J0D01*
G01*
X82030000Y-74810000D02*
G75*
G03*
X82030000Y-74810000I-925000J0D01*
G01*
D14*
X81280000Y-77810000D02*
G75*
G03*
X81280000Y-77810000I-175000J0D01*
G01*
D15*
%TO.C,R12*%
X108240000Y-135680000D02*
X108240000Y-137520000D01*
X108240000Y-137520000D02*
X112080000Y-137520000D01*
X112080000Y-137520000D02*
X112080000Y-135680000D01*
X112080000Y-135680000D02*
X108240000Y-135680000D01*
X107290000Y-136600000D02*
X108240000Y-136600000D01*
X113030000Y-136600000D02*
X112080000Y-136600000D01*
%TO.C,R11*%
X68020000Y-116290000D02*
X66180000Y-116290000D01*
X66180000Y-116290000D02*
X66180000Y-120130000D01*
X66180000Y-120130000D02*
X68020000Y-120130000D01*
X68020000Y-120130000D02*
X68020000Y-116290000D01*
X67100000Y-115340000D02*
X67100000Y-116290000D01*
X67100000Y-121080000D02*
X67100000Y-120130000D01*
%TO.C,R10*%
X80020000Y-97765000D02*
X78180000Y-97765000D01*
X78180000Y-97765000D02*
X78180000Y-101605000D01*
X78180000Y-101605000D02*
X80020000Y-101605000D01*
X80020000Y-101605000D02*
X80020000Y-97765000D01*
X79100000Y-96815000D02*
X79100000Y-97765000D01*
X79100000Y-102555000D02*
X79100000Y-101605000D01*
%TO.C,R9*%
X72890000Y-114380000D02*
X72890000Y-116220000D01*
X72890000Y-116220000D02*
X76730000Y-116220000D01*
X76730000Y-116220000D02*
X76730000Y-114380000D01*
X76730000Y-114380000D02*
X72890000Y-114380000D01*
X71940000Y-115300000D02*
X72890000Y-115300000D01*
X77680000Y-115300000D02*
X76730000Y-115300000D01*
%TO.C,R8*%
X108290000Y-118155000D02*
X108290000Y-119995000D01*
X108290000Y-119995000D02*
X112130000Y-119995000D01*
X112130000Y-119995000D02*
X112130000Y-118155000D01*
X112130000Y-118155000D02*
X108290000Y-118155000D01*
X107340000Y-119075000D02*
X108290000Y-119075000D01*
X113080000Y-119075000D02*
X112130000Y-119075000D01*
%TO.C,R7*%
X89580000Y-80210000D02*
X89580000Y-82050000D01*
X89580000Y-82050000D02*
X93420000Y-82050000D01*
X93420000Y-82050000D02*
X93420000Y-80210000D01*
X93420000Y-80210000D02*
X89580000Y-80210000D01*
X88630000Y-81130000D02*
X89580000Y-81130000D01*
X94370000Y-81130000D02*
X93420000Y-81130000D01*
%TO.C,R6*%
X112110000Y-135195000D02*
X112110000Y-133355000D01*
X112110000Y-133355000D02*
X108270000Y-133355000D01*
X108270000Y-133355000D02*
X108270000Y-135195000D01*
X108270000Y-135195000D02*
X112110000Y-135195000D01*
X113060000Y-134275000D02*
X112110000Y-134275000D01*
X107320000Y-134275000D02*
X108270000Y-134275000D01*
%TO.C,R5*%
X112110000Y-132895000D02*
X112110000Y-131055000D01*
X112110000Y-131055000D02*
X108270000Y-131055000D01*
X108270000Y-131055000D02*
X108270000Y-132895000D01*
X108270000Y-132895000D02*
X112110000Y-132895000D01*
X113060000Y-131975000D02*
X112110000Y-131975000D01*
X107320000Y-131975000D02*
X108270000Y-131975000D01*
%TO.C,R4*%
X112110000Y-130395000D02*
X112110000Y-128555000D01*
X112110000Y-128555000D02*
X108270000Y-128555000D01*
X108270000Y-128555000D02*
X108270000Y-130395000D01*
X108270000Y-130395000D02*
X112110000Y-130395000D01*
X113060000Y-129475000D02*
X112110000Y-129475000D01*
X107320000Y-129475000D02*
X108270000Y-129475000D01*
%TO.C,R3*%
X108290000Y-126055000D02*
X108290000Y-127895000D01*
X108290000Y-127895000D02*
X112130000Y-127895000D01*
X112130000Y-127895000D02*
X112130000Y-126055000D01*
X112130000Y-126055000D02*
X108290000Y-126055000D01*
X107340000Y-126975000D02*
X108290000Y-126975000D01*
X113080000Y-126975000D02*
X112130000Y-126975000D01*
%TO.C,R2*%
X86510000Y-68520000D02*
X86510000Y-66680000D01*
X86510000Y-66680000D02*
X82670000Y-66680000D01*
X82670000Y-66680000D02*
X82670000Y-68520000D01*
X82670000Y-68520000D02*
X86510000Y-68520000D01*
X87460000Y-67600000D02*
X86510000Y-67600000D01*
X81720000Y-67600000D02*
X82670000Y-67600000D01*
%TO.C,R1*%
X82650000Y-69000000D02*
X82650000Y-70840000D01*
X82650000Y-70840000D02*
X86490000Y-70840000D01*
X86490000Y-70840000D02*
X86490000Y-69000000D01*
X86490000Y-69000000D02*
X82650000Y-69000000D01*
X81700000Y-69920000D02*
X82650000Y-69920000D01*
X87440000Y-69920000D02*
X86490000Y-69920000D01*
%TO.C,D4*%
X112410000Y-117495000D02*
X112410000Y-115255000D01*
X112410000Y-115255000D02*
X108170000Y-115255000D01*
X108170000Y-115255000D02*
X108170000Y-117495000D01*
X108170000Y-117495000D02*
X112410000Y-117495000D01*
X113060000Y-116375000D02*
X112410000Y-116375000D01*
X107520000Y-116375000D02*
X108170000Y-116375000D01*
X111690000Y-117495000D02*
X111690000Y-115255000D01*
X111570000Y-117495000D02*
X111570000Y-115255000D01*
X111810000Y-117495000D02*
X111810000Y-115255000D01*
%TO.C,U1*%
X73890000Y-134630000D02*
G75*
G02*
X75890000Y-134630000I1000000J0D01*
G01*
X75890000Y-134630000D02*
X77140000Y-134630000D01*
X77140000Y-134630000D02*
X77140000Y-116730000D01*
X77140000Y-116730000D02*
X72640000Y-116730000D01*
X72640000Y-116730000D02*
X72640000Y-134630000D01*
X72640000Y-134630000D02*
X73890000Y-134630000D01*
X80140000Y-134690000D02*
X80140000Y-116670000D01*
X80140000Y-116670000D02*
X69640000Y-116670000D01*
X69640000Y-116670000D02*
X69640000Y-134690000D01*
X69640000Y-134690000D02*
X80140000Y-134690000D01*
%TO.C,RV4*%
X103350000Y-119875000D02*
X93580000Y-119875000D01*
X103350000Y-110105000D02*
X93580000Y-110105000D01*
X103350000Y-119875000D02*
X103350000Y-110105000D01*
X93580000Y-119875000D02*
X93580000Y-110105000D01*
%TO.C,J3*%
X89100000Y-92600000D02*
X66100000Y-92600000D01*
X89100000Y-82600000D02*
X89100000Y-92600000D01*
X66100000Y-82600000D02*
X89100000Y-82600000D01*
X66100000Y-94600000D02*
X66100000Y-92600000D01*
X66100000Y-80600000D02*
X66100000Y-82600000D01*
X64100000Y-94600000D02*
X66100000Y-94600000D01*
X64100000Y-80600000D02*
X66100000Y-80600000D01*
X64100000Y-94600000D02*
X64100000Y-80600000D01*
%TO.C,J2*%
X93900000Y-82600000D02*
X116900000Y-82600000D01*
X93900000Y-92600000D02*
X93900000Y-82600000D01*
X116900000Y-92600000D02*
X93900000Y-92600000D01*
X116900000Y-80600000D02*
X116900000Y-82600000D01*
X116900000Y-94600000D02*
X116900000Y-92600000D01*
X118900000Y-80600000D02*
X116900000Y-80600000D01*
X118900000Y-94600000D02*
X116900000Y-94600000D01*
X118900000Y-80600000D02*
X118900000Y-94600000D01*
%TO.C,J1*%
X78550000Y-81100000D02*
X79600000Y-81100000D01*
X79600000Y-80050000D02*
X79600000Y-81100000D01*
X70200000Y-75000000D02*
X70200000Y-66200000D01*
X70200000Y-66200000D02*
X79400000Y-66200000D01*
X72900000Y-80900000D02*
X70200000Y-80900000D01*
X70200000Y-80900000D02*
X70200000Y-79000000D01*
X79400000Y-66200000D02*
X79400000Y-80900000D01*
X79400000Y-80900000D02*
X76800000Y-80900000D01*
%TO.C,D5*%
X108190000Y-112655000D02*
X108190000Y-114895000D01*
X108190000Y-114895000D02*
X112430000Y-114895000D01*
X112430000Y-114895000D02*
X112430000Y-112655000D01*
X112430000Y-112655000D02*
X108190000Y-112655000D01*
X107540000Y-113775000D02*
X108190000Y-113775000D01*
X113080000Y-113775000D02*
X112430000Y-113775000D01*
X108910000Y-112655000D02*
X108910000Y-114895000D01*
X109030000Y-112655000D02*
X109030000Y-114895000D01*
X108790000Y-112655000D02*
X108790000Y-114895000D01*
%TO.C,D3*%
X108190000Y-120655000D02*
X108190000Y-122895000D01*
X108190000Y-122895000D02*
X112430000Y-122895000D01*
X112430000Y-122895000D02*
X112430000Y-120655000D01*
X112430000Y-120655000D02*
X108190000Y-120655000D01*
X107540000Y-121775000D02*
X108190000Y-121775000D01*
X113080000Y-121775000D02*
X112430000Y-121775000D01*
X108910000Y-120655000D02*
X108910000Y-122895000D01*
X109030000Y-120655000D02*
X109030000Y-122895000D01*
X108790000Y-120655000D02*
X108790000Y-122895000D01*
%TO.C,D1*%
X112410000Y-125495000D02*
X112410000Y-123255000D01*
X112410000Y-123255000D02*
X108170000Y-123255000D01*
X108170000Y-123255000D02*
X108170000Y-125495000D01*
X108170000Y-125495000D02*
X112410000Y-125495000D01*
X113060000Y-124375000D02*
X112410000Y-124375000D01*
X107520000Y-124375000D02*
X108170000Y-124375000D01*
X111690000Y-125495000D02*
X111690000Y-123255000D01*
X111570000Y-125495000D02*
X111570000Y-123255000D01*
X111810000Y-125495000D02*
X111810000Y-123255000D01*
%TO.C,C6*%
X65705000Y-138920000D02*
X65705000Y-131480000D01*
X68445000Y-138920000D02*
X68445000Y-131480000D01*
X65705000Y-138920000D02*
X68445000Y-138920000D01*
X65705000Y-131480000D02*
X68445000Y-131480000D01*
%TO.C,C5*%
X83720000Y-96205000D02*
X83720000Y-103645000D01*
X80980000Y-96205000D02*
X80980000Y-103645000D01*
X83720000Y-96205000D02*
X80980000Y-96205000D01*
X83720000Y-103645000D02*
X80980000Y-103645000D01*
%TO.C,C4*%
X68470000Y-123280000D02*
X68470000Y-130720000D01*
X65730000Y-123280000D02*
X65730000Y-130720000D01*
X68470000Y-123280000D02*
X65730000Y-123280000D01*
X68470000Y-130720000D02*
X65730000Y-130720000D01*
%TO.C,C2*%
X71230000Y-137680000D02*
X78670000Y-137680000D01*
X71230000Y-140420000D02*
X78670000Y-140420000D01*
X71230000Y-137680000D02*
X71230000Y-140420000D01*
X78670000Y-137680000D02*
X78670000Y-140420000D01*
%TO.C,C1*%
X118270000Y-75220000D02*
G75*
G03*
X118270000Y-75220000I-6620000J0D01*
G01*
X118230000Y-75220000D02*
X105070000Y-75220000D01*
X118230000Y-75260000D02*
X105070000Y-75260000D01*
X118230000Y-75300000D02*
X105070000Y-75300000D01*
X118229000Y-75340000D02*
X105071000Y-75340000D01*
X118229000Y-75380000D02*
X105071000Y-75380000D01*
X118227000Y-75420000D02*
X105073000Y-75420000D01*
X118226000Y-75460000D02*
X105074000Y-75460000D01*
X118225000Y-75500000D02*
X105075000Y-75500000D01*
X118223000Y-75540000D02*
X105077000Y-75540000D01*
X118221000Y-75580000D02*
X105079000Y-75580000D01*
X118218000Y-75620000D02*
X105082000Y-75620000D01*
X118216000Y-75660000D02*
X105084000Y-75660000D01*
X118213000Y-75700000D02*
X105087000Y-75700000D01*
X118210000Y-75740000D02*
X105090000Y-75740000D01*
X118207000Y-75780000D02*
X105093000Y-75780000D01*
X118203000Y-75820000D02*
X105097000Y-75820000D01*
X118199000Y-75860000D02*
X105101000Y-75860000D01*
X118195000Y-75900000D02*
X105105000Y-75900000D01*
X118191000Y-75941000D02*
X105109000Y-75941000D01*
X118187000Y-75981000D02*
X105113000Y-75981000D01*
X118182000Y-76021000D02*
X105118000Y-76021000D01*
X118177000Y-76061000D02*
X105123000Y-76061000D01*
X118172000Y-76101000D02*
X105128000Y-76101000D01*
X118166000Y-76141000D02*
X105134000Y-76141000D01*
X118161000Y-76181000D02*
X105139000Y-76181000D01*
X118155000Y-76221000D02*
X105145000Y-76221000D01*
X118148000Y-76261000D02*
X105152000Y-76261000D01*
X118142000Y-76301000D02*
X113090000Y-76301000D01*
X110210000Y-76301000D02*
X105158000Y-76301000D01*
X118135000Y-76341000D02*
X113090000Y-76341000D01*
X110210000Y-76341000D02*
X105165000Y-76341000D01*
X118128000Y-76381000D02*
X113090000Y-76381000D01*
X110210000Y-76381000D02*
X105172000Y-76381000D01*
X118121000Y-76421000D02*
X113090000Y-76421000D01*
X110210000Y-76421000D02*
X105179000Y-76421000D01*
X118113000Y-76461000D02*
X113090000Y-76461000D01*
X110210000Y-76461000D02*
X105187000Y-76461000D01*
X118106000Y-76501000D02*
X113090000Y-76501000D01*
X110210000Y-76501000D02*
X105194000Y-76501000D01*
X118098000Y-76541000D02*
X113090000Y-76541000D01*
X110210000Y-76541000D02*
X105202000Y-76541000D01*
X118089000Y-76581000D02*
X113090000Y-76581000D01*
X110210000Y-76581000D02*
X105211000Y-76581000D01*
X118081000Y-76621000D02*
X113090000Y-76621000D01*
X110210000Y-76621000D02*
X105219000Y-76621000D01*
X118072000Y-76661000D02*
X113090000Y-76661000D01*
X110210000Y-76661000D02*
X105228000Y-76661000D01*
X118063000Y-76701000D02*
X113090000Y-76701000D01*
X110210000Y-76701000D02*
X105237000Y-76701000D01*
X118054000Y-76741000D02*
X113090000Y-76741000D01*
X110210000Y-76741000D02*
X105246000Y-76741000D01*
X118044000Y-76781000D02*
X113090000Y-76781000D01*
X110210000Y-76781000D02*
X105256000Y-76781000D01*
X118034000Y-76821000D02*
X113090000Y-76821000D01*
X110210000Y-76821000D02*
X105266000Y-76821000D01*
X118024000Y-76861000D02*
X113090000Y-76861000D01*
X110210000Y-76861000D02*
X105276000Y-76861000D01*
X118014000Y-76901000D02*
X113090000Y-76901000D01*
X110210000Y-76901000D02*
X105286000Y-76901000D01*
X118003000Y-76941000D02*
X113090000Y-76941000D01*
X110210000Y-76941000D02*
X105297000Y-76941000D01*
X117992000Y-76981000D02*
X113090000Y-76981000D01*
X110210000Y-76981000D02*
X105308000Y-76981000D01*
X117981000Y-77021000D02*
X113090000Y-77021000D01*
X110210000Y-77021000D02*
X105319000Y-77021000D01*
X117970000Y-77061000D02*
X113090000Y-77061000D01*
X110210000Y-77061000D02*
X105330000Y-77061000D01*
X117958000Y-77101000D02*
X113090000Y-77101000D01*
X110210000Y-77101000D02*
X105342000Y-77101000D01*
X117946000Y-77141000D02*
X113090000Y-77141000D01*
X110210000Y-77141000D02*
X105354000Y-77141000D01*
X117934000Y-77181000D02*
X113090000Y-77181000D01*
X110210000Y-77181000D02*
X105366000Y-77181000D01*
X117921000Y-77221000D02*
X113090000Y-77221000D01*
X110210000Y-77221000D02*
X105379000Y-77221000D01*
X117908000Y-77261000D02*
X113090000Y-77261000D01*
X110210000Y-77261000D02*
X105392000Y-77261000D01*
X117895000Y-77301000D02*
X113090000Y-77301000D01*
X110210000Y-77301000D02*
X105405000Y-77301000D01*
X117882000Y-77341000D02*
X113090000Y-77341000D01*
X110210000Y-77341000D02*
X105418000Y-77341000D01*
X117868000Y-77381000D02*
X113090000Y-77381000D01*
X110210000Y-77381000D02*
X105432000Y-77381000D01*
X117854000Y-77421000D02*
X113090000Y-77421000D01*
X110210000Y-77421000D02*
X105446000Y-77421000D01*
X117840000Y-77461000D02*
X113090000Y-77461000D01*
X110210000Y-77461000D02*
X105460000Y-77461000D01*
X117825000Y-77501000D02*
X113090000Y-77501000D01*
X110210000Y-77501000D02*
X105475000Y-77501000D01*
X117811000Y-77541000D02*
X113090000Y-77541000D01*
X110210000Y-77541000D02*
X105489000Y-77541000D01*
X117796000Y-77581000D02*
X113090000Y-77581000D01*
X110210000Y-77581000D02*
X105504000Y-77581000D01*
X117780000Y-77621000D02*
X113090000Y-77621000D01*
X110210000Y-77621000D02*
X105520000Y-77621000D01*
X117764000Y-77661000D02*
X113090000Y-77661000D01*
X110210000Y-77661000D02*
X105536000Y-77661000D01*
X117748000Y-77701000D02*
X113090000Y-77701000D01*
X110210000Y-77701000D02*
X105552000Y-77701000D01*
X117732000Y-77741000D02*
X113090000Y-77741000D01*
X110210000Y-77741000D02*
X105568000Y-77741000D01*
X117715000Y-77781000D02*
X113090000Y-77781000D01*
X110210000Y-77781000D02*
X105585000Y-77781000D01*
X117699000Y-77821000D02*
X113090000Y-77821000D01*
X110210000Y-77821000D02*
X105601000Y-77821000D01*
X117681000Y-77861000D02*
X113090000Y-77861000D01*
X110210000Y-77861000D02*
X105619000Y-77861000D01*
X117664000Y-77901000D02*
X113090000Y-77901000D01*
X110210000Y-77901000D02*
X105636000Y-77901000D01*
X117646000Y-77941000D02*
X113090000Y-77941000D01*
X110210000Y-77941000D02*
X105654000Y-77941000D01*
X117628000Y-77981000D02*
X113090000Y-77981000D01*
X110210000Y-77981000D02*
X105672000Y-77981000D01*
X117609000Y-78021000D02*
X113090000Y-78021000D01*
X110210000Y-78021000D02*
X105691000Y-78021000D01*
X117590000Y-78061000D02*
X113090000Y-78061000D01*
X110210000Y-78061000D02*
X105710000Y-78061000D01*
X117571000Y-78101000D02*
X113090000Y-78101000D01*
X110210000Y-78101000D02*
X105729000Y-78101000D01*
X117552000Y-78141000D02*
X113090000Y-78141000D01*
X110210000Y-78141000D02*
X105748000Y-78141000D01*
X117532000Y-78181000D02*
X113090000Y-78181000D01*
X110210000Y-78181000D02*
X105768000Y-78181000D01*
X117512000Y-78221000D02*
X113090000Y-78221000D01*
X110210000Y-78221000D02*
X105788000Y-78221000D01*
X117491000Y-78261000D02*
X113090000Y-78261000D01*
X110210000Y-78261000D02*
X105809000Y-78261000D01*
X117470000Y-78301000D02*
X113090000Y-78301000D01*
X110210000Y-78301000D02*
X105830000Y-78301000D01*
X117449000Y-78341000D02*
X113090000Y-78341000D01*
X110210000Y-78341000D02*
X105851000Y-78341000D01*
X117428000Y-78381000D02*
X113090000Y-78381000D01*
X110210000Y-78381000D02*
X105872000Y-78381000D01*
X117406000Y-78421000D02*
X113090000Y-78421000D01*
X110210000Y-78421000D02*
X105894000Y-78421000D01*
X117383000Y-78461000D02*
X113090000Y-78461000D01*
X110210000Y-78461000D02*
X105917000Y-78461000D01*
X117361000Y-78501000D02*
X113090000Y-78501000D01*
X110210000Y-78501000D02*
X105939000Y-78501000D01*
X117338000Y-78541000D02*
X113090000Y-78541000D01*
X110210000Y-78541000D02*
X105962000Y-78541000D01*
X117314000Y-78581000D02*
X113090000Y-78581000D01*
X110210000Y-78581000D02*
X105986000Y-78581000D01*
X117291000Y-78621000D02*
X113090000Y-78621000D01*
X110210000Y-78621000D02*
X106009000Y-78621000D01*
X117267000Y-78661000D02*
X113090000Y-78661000D01*
X110210000Y-78661000D02*
X106033000Y-78661000D01*
X117242000Y-78701000D02*
X113090000Y-78701000D01*
X110210000Y-78701000D02*
X106058000Y-78701000D01*
X117217000Y-78741000D02*
X113090000Y-78741000D01*
X110210000Y-78741000D02*
X106083000Y-78741000D01*
X117192000Y-78781000D02*
X113090000Y-78781000D01*
X110210000Y-78781000D02*
X106108000Y-78781000D01*
X117166000Y-78821000D02*
X113090000Y-78821000D01*
X110210000Y-78821000D02*
X106134000Y-78821000D01*
X117140000Y-78861000D02*
X113090000Y-78861000D01*
X110210000Y-78861000D02*
X106160000Y-78861000D01*
X117113000Y-78901000D02*
X113090000Y-78901000D01*
X110210000Y-78901000D02*
X106187000Y-78901000D01*
X117086000Y-78941000D02*
X113090000Y-78941000D01*
X110210000Y-78941000D02*
X106214000Y-78941000D01*
X117059000Y-78981000D02*
X113090000Y-78981000D01*
X110210000Y-78981000D02*
X106241000Y-78981000D01*
X117031000Y-79021000D02*
X113090000Y-79021000D01*
X110210000Y-79021000D02*
X106269000Y-79021000D01*
X117003000Y-79061000D02*
X113090000Y-79061000D01*
X110210000Y-79061000D02*
X106297000Y-79061000D01*
X116974000Y-79101000D02*
X113090000Y-79101000D01*
X110210000Y-79101000D02*
X106326000Y-79101000D01*
X116945000Y-79141000D02*
X113090000Y-79141000D01*
X110210000Y-79141000D02*
X106355000Y-79141000D01*
X116915000Y-79181000D02*
X106385000Y-79181000D01*
X116885000Y-79221000D02*
X106415000Y-79221000D01*
X116855000Y-79261000D02*
X106445000Y-79261000D01*
X116824000Y-79301000D02*
X106476000Y-79301000D01*
X116792000Y-79341000D02*
X106508000Y-79341000D01*
X116760000Y-79381000D02*
X106540000Y-79381000D01*
X116728000Y-79421000D02*
X106572000Y-79421000D01*
X116694000Y-79461000D02*
X106606000Y-79461000D01*
X116661000Y-79501000D02*
X106639000Y-79501000D01*
X116627000Y-79541000D02*
X106673000Y-79541000D01*
X116592000Y-79581000D02*
X106708000Y-79581000D01*
X116557000Y-79621000D02*
X106743000Y-79621000D01*
X116521000Y-79661000D02*
X106779000Y-79661000D01*
X116484000Y-79701000D02*
X106816000Y-79701000D01*
X116447000Y-79741000D02*
X106853000Y-79741000D01*
X116410000Y-79781000D02*
X106890000Y-79781000D01*
X116371000Y-79821000D02*
X106929000Y-79821000D01*
X116332000Y-79861000D02*
X106968000Y-79861000D01*
X116293000Y-79901000D02*
X107007000Y-79901000D01*
X116252000Y-79941000D02*
X107048000Y-79941000D01*
X116211000Y-79981000D02*
X107089000Y-79981000D01*
X116169000Y-80021000D02*
X107131000Y-80021000D01*
X116127000Y-80061000D02*
X107173000Y-80061000D01*
X116084000Y-80101000D02*
X107216000Y-80101000D01*
X116040000Y-80141000D02*
X107260000Y-80141000D01*
X115995000Y-80181000D02*
X107305000Y-80181000D01*
X115949000Y-80221000D02*
X107351000Y-80221000D01*
X115903000Y-80261000D02*
X107397000Y-80261000D01*
X115855000Y-80301000D02*
X107445000Y-80301000D01*
X115807000Y-80341000D02*
X107493000Y-80341000D01*
X115758000Y-80381000D02*
X107542000Y-80381000D01*
X115707000Y-80421000D02*
X107593000Y-80421000D01*
X115656000Y-80461000D02*
X107644000Y-80461000D01*
X115604000Y-80501000D02*
X107696000Y-80501000D01*
X115550000Y-80541000D02*
X107750000Y-80541000D01*
X115496000Y-80581000D02*
X107804000Y-80581000D01*
X115440000Y-80621000D02*
X107860000Y-80621000D01*
X115383000Y-80661000D02*
X107917000Y-80661000D01*
X115325000Y-80701000D02*
X107975000Y-80701000D01*
X115265000Y-80741000D02*
X108035000Y-80741000D01*
X115204000Y-80781000D02*
X108096000Y-80781000D01*
X115141000Y-80821000D02*
X108159000Y-80821000D01*
X115077000Y-80861000D02*
X108223000Y-80861000D01*
X115011000Y-80901000D02*
X108289000Y-80901000D01*
X114943000Y-80941000D02*
X108357000Y-80941000D01*
X114873000Y-80981000D02*
X108427000Y-80981000D01*
X114802000Y-81021000D02*
X108498000Y-81021000D01*
X114728000Y-81061000D02*
X108572000Y-81061000D01*
X114652000Y-81101000D02*
X108648000Y-81101000D01*
X114573000Y-81141000D02*
X108727000Y-81141000D01*
X114492000Y-81181000D02*
X108808000Y-81181000D01*
X114408000Y-81221000D02*
X108892000Y-81221000D01*
X114320000Y-81261000D02*
X108980000Y-81261000D01*
X114229000Y-81301000D02*
X109071000Y-81301000D01*
X114134000Y-81341000D02*
X109166000Y-81341000D01*
X114035000Y-81381000D02*
X109265000Y-81381000D01*
X113931000Y-81421000D02*
X109369000Y-81421000D01*
X113821000Y-81461000D02*
X109479000Y-81461000D01*
X113705000Y-81501000D02*
X109595000Y-81501000D01*
X113581000Y-81541000D02*
X109719000Y-81541000D01*
X113448000Y-81581000D02*
X109852000Y-81581000D01*
X113303000Y-81621000D02*
X109997000Y-81621000D01*
X113144000Y-81661000D02*
X110156000Y-81661000D01*
X112965000Y-81701000D02*
X110335000Y-81701000D01*
X112757000Y-81741000D02*
X110543000Y-81741000D01*
X112500000Y-81781000D02*
X110800000Y-81781000D01*
X112125000Y-81821000D02*
X111175000Y-81821000D01*
X115365000Y-68135431D02*
X115365000Y-69435431D01*
X116015000Y-68785431D02*
X114715000Y-68785431D01*
D16*
%TO.C,BT1*%
X68965000Y-74010000D02*
X67695000Y-74010000D01*
X67695000Y-74010000D02*
X67060000Y-73375000D01*
X67060000Y-72105000D02*
X67695000Y-71470000D01*
X67060000Y-73375000D02*
X66425000Y-74010000D01*
X66425000Y-74010000D02*
X65155000Y-74010000D01*
X65155000Y-74010000D02*
X64520000Y-73375000D01*
X64520000Y-72105000D02*
X65155000Y-71470000D01*
X65155000Y-71470000D02*
X66425000Y-71470000D01*
X66425000Y-71470000D02*
X67060000Y-72105000D01*
X69600000Y-73375000D02*
X69600000Y-72105000D01*
X68965000Y-74010000D02*
X69600000Y-73375000D01*
X69600000Y-72105000D02*
X68965000Y-71470000D01*
X67695000Y-71470000D02*
X68965000Y-71470000D01*
X64520000Y-73375000D02*
X64520000Y-72105000D01*
%TO.C,R12*%
D11*
X115757142Y-137202380D02*
X115423809Y-136726190D01*
X115185714Y-137202380D02*
X115185714Y-136202380D01*
X115566666Y-136202380D01*
X115661904Y-136250000D01*
X115709523Y-136297619D01*
X115757142Y-136392857D01*
X115757142Y-136535714D01*
X115709523Y-136630952D01*
X115661904Y-136678571D01*
X115566666Y-136726190D01*
X115185714Y-136726190D01*
X116709523Y-137202380D02*
X116138095Y-137202380D01*
X116423809Y-137202380D02*
X116423809Y-136202380D01*
X116328571Y-136345238D01*
X116233333Y-136440476D01*
X116138095Y-136488095D01*
X117090476Y-136297619D02*
X117138095Y-136250000D01*
X117233333Y-136202380D01*
X117471428Y-136202380D01*
X117566666Y-136250000D01*
X117614285Y-136297619D01*
X117661904Y-136392857D01*
X117661904Y-136488095D01*
X117614285Y-136630952D01*
X117042857Y-137202380D01*
X117661904Y-137202380D01*
%TO.C,R11*%
X65852380Y-118742857D02*
X65376190Y-119076190D01*
X65852380Y-119314285D02*
X64852380Y-119314285D01*
X64852380Y-118933333D01*
X64900000Y-118838095D01*
X64947619Y-118790476D01*
X65042857Y-118742857D01*
X65185714Y-118742857D01*
X65280952Y-118790476D01*
X65328571Y-118838095D01*
X65376190Y-118933333D01*
X65376190Y-119314285D01*
X65852380Y-117790476D02*
X65852380Y-118361904D01*
X65852380Y-118076190D02*
X64852380Y-118076190D01*
X64995238Y-118171428D01*
X65090476Y-118266666D01*
X65138095Y-118361904D01*
X65852380Y-116838095D02*
X65852380Y-117409523D01*
X65852380Y-117123809D02*
X64852380Y-117123809D01*
X64995238Y-117219047D01*
X65090476Y-117314285D01*
X65138095Y-117409523D01*
%TO.C,R10*%
X78482142Y-94552380D02*
X78148809Y-94076190D01*
X77910714Y-94552380D02*
X77910714Y-93552380D01*
X78291666Y-93552380D01*
X78386904Y-93600000D01*
X78434523Y-93647619D01*
X78482142Y-93742857D01*
X78482142Y-93885714D01*
X78434523Y-93980952D01*
X78386904Y-94028571D01*
X78291666Y-94076190D01*
X77910714Y-94076190D01*
X79434523Y-94552380D02*
X78863095Y-94552380D01*
X79148809Y-94552380D02*
X79148809Y-93552380D01*
X79053571Y-93695238D01*
X78958333Y-93790476D01*
X78863095Y-93838095D01*
X80053571Y-93552380D02*
X80148809Y-93552380D01*
X80244047Y-93600000D01*
X80291666Y-93647619D01*
X80339285Y-93742857D01*
X80386904Y-93933333D01*
X80386904Y-94171428D01*
X80339285Y-94361904D01*
X80291666Y-94457142D01*
X80244047Y-94504761D01*
X80148809Y-94552380D01*
X80053571Y-94552380D01*
X79958333Y-94504761D01*
X79910714Y-94457142D01*
X79863095Y-94361904D01*
X79815476Y-94171428D01*
X79815476Y-93933333D01*
X79863095Y-93742857D01*
X79910714Y-93647619D01*
X79958333Y-93600000D01*
X80053571Y-93552380D01*
%TO.C,R9*%
X74733333Y-114152380D02*
X74400000Y-113676190D01*
X74161904Y-114152380D02*
X74161904Y-113152380D01*
X74542857Y-113152380D01*
X74638095Y-113200000D01*
X74685714Y-113247619D01*
X74733333Y-113342857D01*
X74733333Y-113485714D01*
X74685714Y-113580952D01*
X74638095Y-113628571D01*
X74542857Y-113676190D01*
X74161904Y-113676190D01*
X75209523Y-114152380D02*
X75400000Y-114152380D01*
X75495238Y-114104761D01*
X75542857Y-114057142D01*
X75638095Y-113914285D01*
X75685714Y-113723809D01*
X75685714Y-113342857D01*
X75638095Y-113247619D01*
X75590476Y-113200000D01*
X75495238Y-113152380D01*
X75304761Y-113152380D01*
X75209523Y-113200000D01*
X75161904Y-113247619D01*
X75114285Y-113342857D01*
X75114285Y-113580952D01*
X75161904Y-113676190D01*
X75209523Y-113723809D01*
X75304761Y-113771428D01*
X75495238Y-113771428D01*
X75590476Y-113723809D01*
X75638095Y-113676190D01*
X75685714Y-113580952D01*
%TO.C,R8*%
X115833333Y-119427380D02*
X115500000Y-118951190D01*
X115261904Y-119427380D02*
X115261904Y-118427380D01*
X115642857Y-118427380D01*
X115738095Y-118475000D01*
X115785714Y-118522619D01*
X115833333Y-118617857D01*
X115833333Y-118760714D01*
X115785714Y-118855952D01*
X115738095Y-118903571D01*
X115642857Y-118951190D01*
X115261904Y-118951190D01*
X116404761Y-118855952D02*
X116309523Y-118808333D01*
X116261904Y-118760714D01*
X116214285Y-118665476D01*
X116214285Y-118617857D01*
X116261904Y-118522619D01*
X116309523Y-118475000D01*
X116404761Y-118427380D01*
X116595238Y-118427380D01*
X116690476Y-118475000D01*
X116738095Y-118522619D01*
X116785714Y-118617857D01*
X116785714Y-118665476D01*
X116738095Y-118760714D01*
X116690476Y-118808333D01*
X116595238Y-118855952D01*
X116404761Y-118855952D01*
X116309523Y-118903571D01*
X116261904Y-118951190D01*
X116214285Y-119046428D01*
X116214285Y-119236904D01*
X116261904Y-119332142D01*
X116309523Y-119379761D01*
X116404761Y-119427380D01*
X116595238Y-119427380D01*
X116690476Y-119379761D01*
X116738095Y-119332142D01*
X116785714Y-119236904D01*
X116785714Y-119046428D01*
X116738095Y-118951190D01*
X116690476Y-118903571D01*
X116595238Y-118855952D01*
%TO.C,R7*%
X91333333Y-83482380D02*
X91000000Y-83006190D01*
X90761904Y-83482380D02*
X90761904Y-82482380D01*
X91142857Y-82482380D01*
X91238095Y-82530000D01*
X91285714Y-82577619D01*
X91333333Y-82672857D01*
X91333333Y-82815714D01*
X91285714Y-82910952D01*
X91238095Y-82958571D01*
X91142857Y-83006190D01*
X90761904Y-83006190D01*
X91666666Y-82482380D02*
X92333333Y-82482380D01*
X91904761Y-83482380D01*
%TO.C,R6*%
X115833333Y-134727380D02*
X115500000Y-134251190D01*
X115261904Y-134727380D02*
X115261904Y-133727380D01*
X115642857Y-133727380D01*
X115738095Y-133775000D01*
X115785714Y-133822619D01*
X115833333Y-133917857D01*
X115833333Y-134060714D01*
X115785714Y-134155952D01*
X115738095Y-134203571D01*
X115642857Y-134251190D01*
X115261904Y-134251190D01*
X116690476Y-133727380D02*
X116500000Y-133727380D01*
X116404761Y-133775000D01*
X116357142Y-133822619D01*
X116261904Y-133965476D01*
X116214285Y-134155952D01*
X116214285Y-134536904D01*
X116261904Y-134632142D01*
X116309523Y-134679761D01*
X116404761Y-134727380D01*
X116595238Y-134727380D01*
X116690476Y-134679761D01*
X116738095Y-134632142D01*
X116785714Y-134536904D01*
X116785714Y-134298809D01*
X116738095Y-134203571D01*
X116690476Y-134155952D01*
X116595238Y-134108333D01*
X116404761Y-134108333D01*
X116309523Y-134155952D01*
X116261904Y-134203571D01*
X116214285Y-134298809D01*
%TO.C,R5*%
X115833333Y-132427380D02*
X115500000Y-131951190D01*
X115261904Y-132427380D02*
X115261904Y-131427380D01*
X115642857Y-131427380D01*
X115738095Y-131475000D01*
X115785714Y-131522619D01*
X115833333Y-131617857D01*
X115833333Y-131760714D01*
X115785714Y-131855952D01*
X115738095Y-131903571D01*
X115642857Y-131951190D01*
X115261904Y-131951190D01*
X116738095Y-131427380D02*
X116261904Y-131427380D01*
X116214285Y-131903571D01*
X116261904Y-131855952D01*
X116357142Y-131808333D01*
X116595238Y-131808333D01*
X116690476Y-131855952D01*
X116738095Y-131903571D01*
X116785714Y-131998809D01*
X116785714Y-132236904D01*
X116738095Y-132332142D01*
X116690476Y-132379761D01*
X116595238Y-132427380D01*
X116357142Y-132427380D01*
X116261904Y-132379761D01*
X116214285Y-132332142D01*
%TO.C,R4*%
X115833333Y-129927380D02*
X115500000Y-129451190D01*
X115261904Y-129927380D02*
X115261904Y-128927380D01*
X115642857Y-128927380D01*
X115738095Y-128975000D01*
X115785714Y-129022619D01*
X115833333Y-129117857D01*
X115833333Y-129260714D01*
X115785714Y-129355952D01*
X115738095Y-129403571D01*
X115642857Y-129451190D01*
X115261904Y-129451190D01*
X116690476Y-129260714D02*
X116690476Y-129927380D01*
X116452380Y-128879761D02*
X116214285Y-129594047D01*
X116833333Y-129594047D01*
%TO.C,R3*%
X115833333Y-127427380D02*
X115500000Y-126951190D01*
X115261904Y-127427380D02*
X115261904Y-126427380D01*
X115642857Y-126427380D01*
X115738095Y-126475000D01*
X115785714Y-126522619D01*
X115833333Y-126617857D01*
X115833333Y-126760714D01*
X115785714Y-126855952D01*
X115738095Y-126903571D01*
X115642857Y-126951190D01*
X115261904Y-126951190D01*
X116166666Y-126427380D02*
X116785714Y-126427380D01*
X116452380Y-126808333D01*
X116595238Y-126808333D01*
X116690476Y-126855952D01*
X116738095Y-126903571D01*
X116785714Y-126998809D01*
X116785714Y-127236904D01*
X116738095Y-127332142D01*
X116690476Y-127379761D01*
X116595238Y-127427380D01*
X116309523Y-127427380D01*
X116214285Y-127379761D01*
X116166666Y-127332142D01*
%TO.C,R2*%
X90153333Y-68052380D02*
X89820000Y-67576190D01*
X89581904Y-68052380D02*
X89581904Y-67052380D01*
X89962857Y-67052380D01*
X90058095Y-67100000D01*
X90105714Y-67147619D01*
X90153333Y-67242857D01*
X90153333Y-67385714D01*
X90105714Y-67480952D01*
X90058095Y-67528571D01*
X89962857Y-67576190D01*
X89581904Y-67576190D01*
X90534285Y-67147619D02*
X90581904Y-67100000D01*
X90677142Y-67052380D01*
X90915238Y-67052380D01*
X91010476Y-67100000D01*
X91058095Y-67147619D01*
X91105714Y-67242857D01*
X91105714Y-67338095D01*
X91058095Y-67480952D01*
X90486666Y-68052380D01*
X91105714Y-68052380D01*
%TO.C,R1*%
X90493333Y-70352380D02*
X90160000Y-69876190D01*
X89921904Y-70352380D02*
X89921904Y-69352380D01*
X90302857Y-69352380D01*
X90398095Y-69400000D01*
X90445714Y-69447619D01*
X90493333Y-69542857D01*
X90493333Y-69685714D01*
X90445714Y-69780952D01*
X90398095Y-69828571D01*
X90302857Y-69876190D01*
X89921904Y-69876190D01*
X91445714Y-70352380D02*
X90874285Y-70352380D01*
X91160000Y-70352380D02*
X91160000Y-69352380D01*
X91064761Y-69495238D01*
X90969523Y-69590476D01*
X90874285Y-69638095D01*
%TO.C,D4*%
X115361904Y-116127380D02*
X115361904Y-115127380D01*
X115600000Y-115127380D01*
X115742857Y-115175000D01*
X115838095Y-115270238D01*
X115885714Y-115365476D01*
X115933333Y-115555952D01*
X115933333Y-115698809D01*
X115885714Y-115889285D01*
X115838095Y-115984523D01*
X115742857Y-116079761D01*
X115600000Y-116127380D01*
X115361904Y-116127380D01*
X116790476Y-115460714D02*
X116790476Y-116127380D01*
X116552380Y-115079761D02*
X116314285Y-115794047D01*
X116933333Y-115794047D01*
X115338095Y-117427380D02*
X115338095Y-116427380D01*
X115909523Y-117427380D02*
X115480952Y-116855952D01*
X115909523Y-116427380D02*
X115338095Y-116998809D01*
%TO.C,U1*%
X74128095Y-135082380D02*
X74128095Y-135891904D01*
X74175714Y-135987142D01*
X74223333Y-136034761D01*
X74318571Y-136082380D01*
X74509047Y-136082380D01*
X74604285Y-136034761D01*
X74651904Y-135987142D01*
X74699523Y-135891904D01*
X74699523Y-135082380D01*
X75699523Y-136082380D02*
X75128095Y-136082380D01*
X75413809Y-136082380D02*
X75413809Y-135082380D01*
X75318571Y-135225238D01*
X75223333Y-135320476D01*
X75128095Y-135368095D01*
%TO.C,RV4*%
X94854761Y-109802380D02*
X94521428Y-109326190D01*
X94283333Y-109802380D02*
X94283333Y-108802380D01*
X94664285Y-108802380D01*
X94759523Y-108850000D01*
X94807142Y-108897619D01*
X94854761Y-108992857D01*
X94854761Y-109135714D01*
X94807142Y-109230952D01*
X94759523Y-109278571D01*
X94664285Y-109326190D01*
X94283333Y-109326190D01*
X95140476Y-108802380D02*
X95473809Y-109802380D01*
X95807142Y-108802380D01*
X96569047Y-109135714D02*
X96569047Y-109802380D01*
X96330952Y-108754761D02*
X96092857Y-109469047D01*
X96711904Y-109469047D01*
%TO.C,J3*%
X66866666Y-92852380D02*
X66866666Y-93566666D01*
X66819047Y-93709523D01*
X66723809Y-93804761D01*
X66580952Y-93852380D01*
X66485714Y-93852380D01*
X67247619Y-92852380D02*
X67866666Y-92852380D01*
X67533333Y-93233333D01*
X67676190Y-93233333D01*
X67771428Y-93280952D01*
X67819047Y-93328571D01*
X67866666Y-93423809D01*
X67866666Y-93661904D01*
X67819047Y-93757142D01*
X67771428Y-93804761D01*
X67676190Y-93852380D01*
X67390476Y-93852380D01*
X67295238Y-93804761D01*
X67247619Y-93757142D01*
%TO.C,J2*%
X115666666Y-92852380D02*
X115666666Y-93566666D01*
X115619047Y-93709523D01*
X115523809Y-93804761D01*
X115380952Y-93852380D01*
X115285714Y-93852380D01*
X116095238Y-92947619D02*
X116142857Y-92900000D01*
X116238095Y-92852380D01*
X116476190Y-92852380D01*
X116571428Y-92900000D01*
X116619047Y-92947619D01*
X116666666Y-93042857D01*
X116666666Y-93138095D01*
X116619047Y-93280952D01*
X116047619Y-93852380D01*
X116666666Y-93852380D01*
%TO.C,J1*%
X68866666Y-79252380D02*
X68866666Y-79966666D01*
X68819047Y-80109523D01*
X68723809Y-80204761D01*
X68580952Y-80252380D01*
X68485714Y-80252380D01*
X69866666Y-80252380D02*
X69295238Y-80252380D01*
X69580952Y-80252380D02*
X69580952Y-79252380D01*
X69485714Y-79395238D01*
X69390476Y-79490476D01*
X69295238Y-79538095D01*
%TO.C,D5*%
X115361904Y-113427380D02*
X115361904Y-112427380D01*
X115600000Y-112427380D01*
X115742857Y-112475000D01*
X115838095Y-112570238D01*
X115885714Y-112665476D01*
X115933333Y-112855952D01*
X115933333Y-112998809D01*
X115885714Y-113189285D01*
X115838095Y-113284523D01*
X115742857Y-113379761D01*
X115600000Y-113427380D01*
X115361904Y-113427380D01*
X116838095Y-112427380D02*
X116361904Y-112427380D01*
X116314285Y-112903571D01*
X116361904Y-112855952D01*
X116457142Y-112808333D01*
X116695238Y-112808333D01*
X116790476Y-112855952D01*
X116838095Y-112903571D01*
X116885714Y-112998809D01*
X116885714Y-113236904D01*
X116838095Y-113332142D01*
X116790476Y-113379761D01*
X116695238Y-113427380D01*
X116457142Y-113427380D01*
X116361904Y-113379761D01*
X116314285Y-113332142D01*
X104638095Y-114227380D02*
X104638095Y-113227380D01*
X105209523Y-114227380D02*
X104780952Y-113655952D01*
X105209523Y-113227380D02*
X104638095Y-113798809D01*
%TO.C,D3*%
X115461904Y-121527380D02*
X115461904Y-120527380D01*
X115700000Y-120527380D01*
X115842857Y-120575000D01*
X115938095Y-120670238D01*
X115985714Y-120765476D01*
X116033333Y-120955952D01*
X116033333Y-121098809D01*
X115985714Y-121289285D01*
X115938095Y-121384523D01*
X115842857Y-121479761D01*
X115700000Y-121527380D01*
X115461904Y-121527380D01*
X116366666Y-120527380D02*
X116985714Y-120527380D01*
X116652380Y-120908333D01*
X116795238Y-120908333D01*
X116890476Y-120955952D01*
X116938095Y-121003571D01*
X116985714Y-121098809D01*
X116985714Y-121336904D01*
X116938095Y-121432142D01*
X116890476Y-121479761D01*
X116795238Y-121527380D01*
X116509523Y-121527380D01*
X116414285Y-121479761D01*
X116366666Y-121432142D01*
X104638095Y-122227380D02*
X104638095Y-121227380D01*
X105209523Y-122227380D02*
X104780952Y-121655952D01*
X105209523Y-121227380D02*
X104638095Y-121798809D01*
%TO.C,D1*%
X115261904Y-124227380D02*
X115261904Y-123227380D01*
X115500000Y-123227380D01*
X115642857Y-123275000D01*
X115738095Y-123370238D01*
X115785714Y-123465476D01*
X115833333Y-123655952D01*
X115833333Y-123798809D01*
X115785714Y-123989285D01*
X115738095Y-124084523D01*
X115642857Y-124179761D01*
X115500000Y-124227380D01*
X115261904Y-124227380D01*
X116785714Y-124227380D02*
X116214285Y-124227380D01*
X116500000Y-124227380D02*
X116500000Y-123227380D01*
X116404761Y-123370238D01*
X116309523Y-123465476D01*
X116214285Y-123513095D01*
X115338095Y-125527380D02*
X115338095Y-124527380D01*
X115909523Y-125527380D02*
X115480952Y-124955952D01*
X115909523Y-124527380D02*
X115338095Y-125098809D01*
%TO.C,C6*%
X65232142Y-135366666D02*
X65279761Y-135414285D01*
X65327380Y-135557142D01*
X65327380Y-135652380D01*
X65279761Y-135795238D01*
X65184523Y-135890476D01*
X65089285Y-135938095D01*
X64898809Y-135985714D01*
X64755952Y-135985714D01*
X64565476Y-135938095D01*
X64470238Y-135890476D01*
X64375000Y-135795238D01*
X64327380Y-135652380D01*
X64327380Y-135557142D01*
X64375000Y-135414285D01*
X64422619Y-135366666D01*
X64327380Y-134509523D02*
X64327380Y-134700000D01*
X64375000Y-134795238D01*
X64422619Y-134842857D01*
X64565476Y-134938095D01*
X64755952Y-134985714D01*
X65136904Y-134985714D01*
X65232142Y-134938095D01*
X65279761Y-134890476D01*
X65327380Y-134795238D01*
X65327380Y-134604761D01*
X65279761Y-134509523D01*
X65232142Y-134461904D01*
X65136904Y-134414285D01*
X64898809Y-134414285D01*
X64803571Y-134461904D01*
X64755952Y-134509523D01*
X64708333Y-134604761D01*
X64708333Y-134795238D01*
X64755952Y-134890476D01*
X64803571Y-134938095D01*
X64898809Y-134985714D01*
%TO.C,C5*%
X82208333Y-95607142D02*
X82160714Y-95654761D01*
X82017857Y-95702380D01*
X81922619Y-95702380D01*
X81779761Y-95654761D01*
X81684523Y-95559523D01*
X81636904Y-95464285D01*
X81589285Y-95273809D01*
X81589285Y-95130952D01*
X81636904Y-94940476D01*
X81684523Y-94845238D01*
X81779761Y-94750000D01*
X81922619Y-94702380D01*
X82017857Y-94702380D01*
X82160714Y-94750000D01*
X82208333Y-94797619D01*
X83113095Y-94702380D02*
X82636904Y-94702380D01*
X82589285Y-95178571D01*
X82636904Y-95130952D01*
X82732142Y-95083333D01*
X82970238Y-95083333D01*
X83065476Y-95130952D01*
X83113095Y-95178571D01*
X83160714Y-95273809D01*
X83160714Y-95511904D01*
X83113095Y-95607142D01*
X83065476Y-95654761D01*
X82970238Y-95702380D01*
X82732142Y-95702380D01*
X82636904Y-95654761D01*
X82589285Y-95607142D01*
%TO.C,C4*%
X65357142Y-127166666D02*
X65404761Y-127214285D01*
X65452380Y-127357142D01*
X65452380Y-127452380D01*
X65404761Y-127595238D01*
X65309523Y-127690476D01*
X65214285Y-127738095D01*
X65023809Y-127785714D01*
X64880952Y-127785714D01*
X64690476Y-127738095D01*
X64595238Y-127690476D01*
X64500000Y-127595238D01*
X64452380Y-127452380D01*
X64452380Y-127357142D01*
X64500000Y-127214285D01*
X64547619Y-127166666D01*
X64785714Y-126309523D02*
X65452380Y-126309523D01*
X64404761Y-126547619D02*
X65119047Y-126785714D01*
X65119047Y-126166666D01*
%TO.C,C2*%
X74758333Y-142057142D02*
X74710714Y-142104761D01*
X74567857Y-142152380D01*
X74472619Y-142152380D01*
X74329761Y-142104761D01*
X74234523Y-142009523D01*
X74186904Y-141914285D01*
X74139285Y-141723809D01*
X74139285Y-141580952D01*
X74186904Y-141390476D01*
X74234523Y-141295238D01*
X74329761Y-141200000D01*
X74472619Y-141152380D01*
X74567857Y-141152380D01*
X74710714Y-141200000D01*
X74758333Y-141247619D01*
X75139285Y-141247619D02*
X75186904Y-141200000D01*
X75282142Y-141152380D01*
X75520238Y-141152380D01*
X75615476Y-141200000D01*
X75663095Y-141247619D01*
X75710714Y-141342857D01*
X75710714Y-141438095D01*
X75663095Y-141580952D01*
X75091666Y-142152380D01*
X75710714Y-142152380D01*
%TO.C,C1*%
X106083333Y-81677142D02*
X106035714Y-81724761D01*
X105892857Y-81772380D01*
X105797619Y-81772380D01*
X105654761Y-81724761D01*
X105559523Y-81629523D01*
X105511904Y-81534285D01*
X105464285Y-81343809D01*
X105464285Y-81200952D01*
X105511904Y-81010476D01*
X105559523Y-80915238D01*
X105654761Y-80820000D01*
X105797619Y-80772380D01*
X105892857Y-80772380D01*
X106035714Y-80820000D01*
X106083333Y-80867619D01*
X107035714Y-81772380D02*
X106464285Y-81772380D01*
X106750000Y-81772380D02*
X106750000Y-80772380D01*
X106654761Y-80915238D01*
X106559523Y-81010476D01*
X106464285Y-81058095D01*
%TO.C,BT1*%
D17*
X65301028Y-70746457D02*
X65388114Y-70775485D01*
X65417142Y-70804514D01*
X65446171Y-70862571D01*
X65446171Y-70949657D01*
X65417142Y-71007714D01*
X65388114Y-71036742D01*
X65330057Y-71065771D01*
X65097828Y-71065771D01*
X65097828Y-70456171D01*
X65301028Y-70456171D01*
X65359085Y-70485200D01*
X65388114Y-70514228D01*
X65417142Y-70572285D01*
X65417142Y-70630342D01*
X65388114Y-70688400D01*
X65359085Y-70717428D01*
X65301028Y-70746457D01*
X65097828Y-70746457D01*
X65620342Y-70456171D02*
X65968685Y-70456171D01*
X65794514Y-71065771D02*
X65794514Y-70456171D01*
X66491200Y-71065771D02*
X66142857Y-71065771D01*
X66317028Y-71065771D02*
X66317028Y-70456171D01*
X66258971Y-70543257D01*
X66200914Y-70601314D01*
X66142857Y-70630342D01*
X67067257Y-70791457D02*
X67154342Y-70820485D01*
X67183371Y-70849514D01*
X67212400Y-70907571D01*
X67212400Y-70994657D01*
X67183371Y-71052714D01*
X67154342Y-71081742D01*
X67096285Y-71110771D01*
X66864057Y-71110771D01*
X66864057Y-70501171D01*
X67067257Y-70501171D01*
X67125314Y-70530200D01*
X67154342Y-70559228D01*
X67183371Y-70617285D01*
X67183371Y-70675342D01*
X67154342Y-70733400D01*
X67125314Y-70762428D01*
X67067257Y-70791457D01*
X66864057Y-70791457D01*
X67734914Y-71110771D02*
X67734914Y-70791457D01*
X67705885Y-70733400D01*
X67647828Y-70704371D01*
X67531714Y-70704371D01*
X67473657Y-70733400D01*
X67734914Y-71081742D02*
X67676857Y-71110771D01*
X67531714Y-71110771D01*
X67473657Y-71081742D01*
X67444628Y-71023685D01*
X67444628Y-70965628D01*
X67473657Y-70907571D01*
X67531714Y-70878542D01*
X67676857Y-70878542D01*
X67734914Y-70849514D01*
X67938114Y-70704371D02*
X68170342Y-70704371D01*
X68025200Y-70501171D02*
X68025200Y-71023685D01*
X68054228Y-71081742D01*
X68112285Y-71110771D01*
X68170342Y-71110771D01*
X68286457Y-70704371D02*
X68518685Y-70704371D01*
X68373542Y-70501171D02*
X68373542Y-71023685D01*
X68402571Y-71081742D01*
X68460628Y-71110771D01*
X68518685Y-71110771D01*
X68954114Y-71081742D02*
X68896057Y-71110771D01*
X68779942Y-71110771D01*
X68721885Y-71081742D01*
X68692857Y-71023685D01*
X68692857Y-70791457D01*
X68721885Y-70733400D01*
X68779942Y-70704371D01*
X68896057Y-70704371D01*
X68954114Y-70733400D01*
X68983142Y-70791457D01*
X68983142Y-70849514D01*
X68692857Y-70907571D01*
X69244400Y-71110771D02*
X69244400Y-70704371D01*
X69244400Y-70820485D02*
X69273428Y-70762428D01*
X69302457Y-70733400D01*
X69360514Y-70704371D01*
X69418571Y-70704371D01*
X69563714Y-70704371D02*
X69708857Y-71110771D01*
X69854000Y-70704371D02*
X69708857Y-71110771D01*
X69650800Y-71255914D01*
X69621771Y-71284942D01*
X69563714Y-71313971D01*
%TD*%
M02*
